M48
METRIC,TZ
T1C1.500
T2C2.000
T3C2.500
T4C3.500
T5C5.000
%
G90
G05
T1
X45294Y-66652
X45294Y-73652
X45294Y-82125
X45294Y-89125
X45294Y-97633
X45294Y-104633
X58847Y-73400
X59037Y-89600
X59037Y-97600
X61287Y-84600
X71787Y-84600
X73427Y-73400
X83087Y-69600
X94687Y-110900
X95587Y-69600
X105187Y-110900
X118037Y-92710
X118037Y-107290
X120637Y-59750
X120637Y-70250
X128837Y-56625
X128837Y-64625
X128837Y-67125
X128837Y-79750
X128837Y-87750
X128837Y-90250
X128837Y-101750
X128837Y-109750
X128837Y-112250
T2
X53737Y-86900
X53737Y-107900
X83937Y-91300
X91937Y-74200
X101437Y-73700
X118537Y-81700
X139300Y-105600
X139372Y-71200
X139372Y-89300
T3
X64437Y-101000
X66537Y-58400
X79487Y-101000
X81587Y-58400
X93987Y-101000
X96087Y-58400
X109037Y-101000
X111137Y-58400
T4
X71937Y-101000
X74037Y-58400
X101537Y-101000
X103637Y-58400
T5
X46216Y-56890
X46216Y-113468
X139369Y-56896
X139372Y-113461
T1
G00X45294Y-71152
M15
G01X45294Y-69152
M16
G05
G00X45294Y-86625
M15
G01X45294Y-84625
M16
G05
G00X45294Y-102133
M15
G01X45294Y-100133
M16
G05
T0
M30
