%TF.GenerationSoftware,KiCad,Pcbnew,(6.0.7)*%
%TF.CreationDate,2024-06-28T14:52:28+05:30*%
%TF.ProjectId,JT48VSPD_EXT,4a543438-5653-4504-945f-4558542e6b69,rev?*%
%TF.SameCoordinates,Original*%
%TF.FileFunction,Legend,Top*%
%TF.FilePolarity,Positive*%
%FSLAX46Y46*%
G04 Gerber Fmt 4.6, Leading zero omitted, Abs format (unit mm)*
G04 Created by KiCad (PCBNEW (6.0.7)) date 2024-06-28 14:52:28*
%MOMM*%
%LPD*%
G01*
G04 APERTURE LIST*
%ADD10C,0.250000*%
%ADD11C,0.150000*%
%ADD12C,0.254000*%
%ADD13C,0.127000*%
%ADD14C,0.120000*%
%ADD15C,0.200000*%
%ADD16C,0.350000*%
G04 APERTURE END LIST*
D10*
X59528571Y-64307142D02*
X60671428Y-64307142D01*
X62028571Y-63878571D02*
X62028571Y-64878571D01*
X61671428Y-63307142D02*
X61314285Y-64378571D01*
X62242857Y-64378571D01*
X63028571Y-64021428D02*
X62885714Y-63950000D01*
X62814285Y-63878571D01*
X62742857Y-63735714D01*
X62742857Y-63664285D01*
X62814285Y-63521428D01*
X62885714Y-63450000D01*
X63028571Y-63378571D01*
X63314285Y-63378571D01*
X63457142Y-63450000D01*
X63528571Y-63521428D01*
X63600000Y-63664285D01*
X63600000Y-63735714D01*
X63528571Y-63878571D01*
X63457142Y-63950000D01*
X63314285Y-64021428D01*
X63028571Y-64021428D01*
X62885714Y-64092857D01*
X62814285Y-64164285D01*
X62742857Y-64307142D01*
X62742857Y-64592857D01*
X62814285Y-64735714D01*
X62885714Y-64807142D01*
X63028571Y-64878571D01*
X63314285Y-64878571D01*
X63457142Y-64807142D01*
X63528571Y-64735714D01*
X63600000Y-64592857D01*
X63600000Y-64307142D01*
X63528571Y-64164285D01*
X63457142Y-64092857D01*
X63314285Y-64021428D01*
X64100000Y-63878571D02*
X64457142Y-64878571D01*
X64814285Y-63878571D01*
X148828571Y-91878571D02*
X148328571Y-91164285D01*
X147971428Y-91878571D02*
X147971428Y-90378571D01*
X148542857Y-90378571D01*
X148685714Y-90450000D01*
X148757142Y-90521428D01*
X148828571Y-90664285D01*
X148828571Y-90878571D01*
X148757142Y-91021428D01*
X148685714Y-91092857D01*
X148542857Y-91164285D01*
X147971428Y-91164285D01*
X149471428Y-91092857D02*
X149971428Y-91092857D01*
X150185714Y-91878571D02*
X149471428Y-91878571D01*
X149471428Y-90378571D01*
X150185714Y-90378571D01*
X150614285Y-90378571D02*
X151471428Y-90378571D01*
X151042857Y-91878571D02*
X151042857Y-90378571D01*
X151971428Y-91878571D02*
X151971428Y-90378571D01*
X152828571Y-91878571D01*
X152828571Y-90378571D01*
X60728571Y-100278571D02*
X60228571Y-99564285D01*
X59871428Y-100278571D02*
X59871428Y-98778571D01*
X60442857Y-98778571D01*
X60585714Y-98850000D01*
X60657142Y-98921428D01*
X60728571Y-99064285D01*
X60728571Y-99278571D01*
X60657142Y-99421428D01*
X60585714Y-99492857D01*
X60442857Y-99564285D01*
X59871428Y-99564285D01*
X61371428Y-99492857D02*
X61871428Y-99492857D01*
X62085714Y-100278571D02*
X61371428Y-100278571D01*
X61371428Y-98778571D01*
X62085714Y-98778571D01*
X62514285Y-98778571D02*
X63371428Y-98778571D01*
X62942857Y-100278571D02*
X62942857Y-98778571D01*
X63871428Y-100278571D02*
X63871428Y-98778571D01*
X64728571Y-100278571D01*
X64728571Y-98778571D01*
X138528571Y-73007142D02*
X139671428Y-73007142D01*
X141028571Y-72578571D02*
X141028571Y-73578571D01*
X140671428Y-72007142D02*
X140314285Y-73078571D01*
X141242857Y-73078571D01*
X142028571Y-72721428D02*
X141885714Y-72650000D01*
X141814285Y-72578571D01*
X141742857Y-72435714D01*
X141742857Y-72364285D01*
X141814285Y-72221428D01*
X141885714Y-72150000D01*
X142028571Y-72078571D01*
X142314285Y-72078571D01*
X142457142Y-72150000D01*
X142528571Y-72221428D01*
X142600000Y-72364285D01*
X142600000Y-72435714D01*
X142528571Y-72578571D01*
X142457142Y-72650000D01*
X142314285Y-72721428D01*
X142028571Y-72721428D01*
X141885714Y-72792857D01*
X141814285Y-72864285D01*
X141742857Y-73007142D01*
X141742857Y-73292857D01*
X141814285Y-73435714D01*
X141885714Y-73507142D01*
X142028571Y-73578571D01*
X142314285Y-73578571D01*
X142457142Y-73507142D01*
X142528571Y-73435714D01*
X142600000Y-73292857D01*
X142600000Y-73007142D01*
X142528571Y-72864285D01*
X142457142Y-72792857D01*
X142314285Y-72721428D01*
X143100000Y-72578571D02*
X143457142Y-73578571D01*
X143814285Y-72578571D01*
D11*
%TO.C,RV1*%
X113804761Y-66152380D02*
X113471428Y-65676190D01*
X113233333Y-66152380D02*
X113233333Y-65152380D01*
X113614285Y-65152380D01*
X113709523Y-65200000D01*
X113757142Y-65247619D01*
X113804761Y-65342857D01*
X113804761Y-65485714D01*
X113757142Y-65580952D01*
X113709523Y-65628571D01*
X113614285Y-65676190D01*
X113233333Y-65676190D01*
X114090476Y-65152380D02*
X114423809Y-66152380D01*
X114757142Y-65152380D01*
X115614285Y-66152380D02*
X115042857Y-66152380D01*
X115328571Y-66152380D02*
X115328571Y-65152380D01*
X115233333Y-65295238D01*
X115138095Y-65390476D01*
X115042857Y-65438095D01*
%TO.C,GD2*%
X98942857Y-81980000D02*
X98881904Y-81949523D01*
X98790476Y-81949523D01*
X98699047Y-81980000D01*
X98638095Y-82040952D01*
X98607619Y-82101904D01*
X98577142Y-82223809D01*
X98577142Y-82315238D01*
X98607619Y-82437142D01*
X98638095Y-82498095D01*
X98699047Y-82559047D01*
X98790476Y-82589523D01*
X98851428Y-82589523D01*
X98942857Y-82559047D01*
X98973333Y-82528571D01*
X98973333Y-82315238D01*
X98851428Y-82315238D01*
X99247619Y-82589523D02*
X99247619Y-81949523D01*
X99400000Y-81949523D01*
X99491428Y-81980000D01*
X99552380Y-82040952D01*
X99582857Y-82101904D01*
X99613333Y-82223809D01*
X99613333Y-82315238D01*
X99582857Y-82437142D01*
X99552380Y-82498095D01*
X99491428Y-82559047D01*
X99400000Y-82589523D01*
X99247619Y-82589523D01*
X99857142Y-82010476D02*
X99887619Y-81980000D01*
X99948571Y-81949523D01*
X100100952Y-81949523D01*
X100161904Y-81980000D01*
X100192380Y-82010476D01*
X100222857Y-82071428D01*
X100222857Y-82132380D01*
X100192380Y-82223809D01*
X99826666Y-82589523D01*
X100222857Y-82589523D01*
%TO.C,RV3*%
X113804761Y-98552380D02*
X113471428Y-98076190D01*
X113233333Y-98552380D02*
X113233333Y-97552380D01*
X113614285Y-97552380D01*
X113709523Y-97600000D01*
X113757142Y-97647619D01*
X113804761Y-97742857D01*
X113804761Y-97885714D01*
X113757142Y-97980952D01*
X113709523Y-98028571D01*
X113614285Y-98076190D01*
X113233333Y-98076190D01*
X114090476Y-97552380D02*
X114423809Y-98552380D01*
X114757142Y-97552380D01*
X114995238Y-97552380D02*
X115614285Y-97552380D01*
X115280952Y-97933333D01*
X115423809Y-97933333D01*
X115519047Y-97980952D01*
X115566666Y-98028571D01*
X115614285Y-98123809D01*
X115614285Y-98361904D01*
X115566666Y-98457142D01*
X115519047Y-98504761D01*
X115423809Y-98552380D01*
X115138095Y-98552380D01*
X115042857Y-98504761D01*
X114995238Y-98457142D01*
%TO.C,L2*%
X132233333Y-96152380D02*
X131757142Y-96152380D01*
X131757142Y-95152380D01*
X132519047Y-95247619D02*
X132566666Y-95200000D01*
X132661904Y-95152380D01*
X132900000Y-95152380D01*
X132995238Y-95200000D01*
X133042857Y-95247619D01*
X133090476Y-95342857D01*
X133090476Y-95438095D01*
X133042857Y-95580952D01*
X132471428Y-96152380D01*
X133090476Y-96152380D01*
%TO.C,GD1*%
X99242857Y-65280000D02*
X99181904Y-65249523D01*
X99090476Y-65249523D01*
X98999047Y-65280000D01*
X98938095Y-65340952D01*
X98907619Y-65401904D01*
X98877142Y-65523809D01*
X98877142Y-65615238D01*
X98907619Y-65737142D01*
X98938095Y-65798095D01*
X98999047Y-65859047D01*
X99090476Y-65889523D01*
X99151428Y-65889523D01*
X99242857Y-65859047D01*
X99273333Y-65828571D01*
X99273333Y-65615238D01*
X99151428Y-65615238D01*
X99547619Y-65889523D02*
X99547619Y-65249523D01*
X99700000Y-65249523D01*
X99791428Y-65280000D01*
X99852380Y-65340952D01*
X99882857Y-65401904D01*
X99913333Y-65523809D01*
X99913333Y-65615238D01*
X99882857Y-65737142D01*
X99852380Y-65798095D01*
X99791428Y-65859047D01*
X99700000Y-65889523D01*
X99547619Y-65889523D01*
X100522857Y-65889523D02*
X100157142Y-65889523D01*
X100340000Y-65889523D02*
X100340000Y-65249523D01*
X100279047Y-65340952D01*
X100218095Y-65401904D01*
X100157142Y-65432380D01*
%TO.C,F2*%
X99666666Y-90328571D02*
X99333333Y-90328571D01*
X99333333Y-90852380D02*
X99333333Y-89852380D01*
X99809523Y-89852380D01*
X100142857Y-89947619D02*
X100190476Y-89900000D01*
X100285714Y-89852380D01*
X100523809Y-89852380D01*
X100619047Y-89900000D01*
X100666666Y-89947619D01*
X100714285Y-90042857D01*
X100714285Y-90138095D01*
X100666666Y-90280952D01*
X100095238Y-90852380D01*
X100714285Y-90852380D01*
%TO.C,J1*%
X84552380Y-82583333D02*
X85266666Y-82583333D01*
X85409523Y-82630952D01*
X85504761Y-82726190D01*
X85552380Y-82869047D01*
X85552380Y-82964285D01*
X85552380Y-81583333D02*
X85552380Y-82154761D01*
X85552380Y-81869047D02*
X84552380Y-81869047D01*
X84695238Y-81964285D01*
X84790476Y-82059523D01*
X84838095Y-82154761D01*
%TO.C,RV2*%
X113804761Y-82952380D02*
X113471428Y-82476190D01*
X113233333Y-82952380D02*
X113233333Y-81952380D01*
X113614285Y-81952380D01*
X113709523Y-82000000D01*
X113757142Y-82047619D01*
X113804761Y-82142857D01*
X113804761Y-82285714D01*
X113757142Y-82380952D01*
X113709523Y-82428571D01*
X113614285Y-82476190D01*
X113233333Y-82476190D01*
X114090476Y-81952380D02*
X114423809Y-82952380D01*
X114757142Y-81952380D01*
X115042857Y-82047619D02*
X115090476Y-82000000D01*
X115185714Y-81952380D01*
X115423809Y-81952380D01*
X115519047Y-82000000D01*
X115566666Y-82047619D01*
X115614285Y-82142857D01*
X115614285Y-82238095D01*
X115566666Y-82380952D01*
X114995238Y-82952380D01*
X115614285Y-82952380D01*
%TO.C,GD3*%
X99042857Y-98080000D02*
X98981904Y-98049523D01*
X98890476Y-98049523D01*
X98799047Y-98080000D01*
X98738095Y-98140952D01*
X98707619Y-98201904D01*
X98677142Y-98323809D01*
X98677142Y-98415238D01*
X98707619Y-98537142D01*
X98738095Y-98598095D01*
X98799047Y-98659047D01*
X98890476Y-98689523D01*
X98951428Y-98689523D01*
X99042857Y-98659047D01*
X99073333Y-98628571D01*
X99073333Y-98415238D01*
X98951428Y-98415238D01*
X99347619Y-98689523D02*
X99347619Y-98049523D01*
X99500000Y-98049523D01*
X99591428Y-98080000D01*
X99652380Y-98140952D01*
X99682857Y-98201904D01*
X99713333Y-98323809D01*
X99713333Y-98415238D01*
X99682857Y-98537142D01*
X99652380Y-98598095D01*
X99591428Y-98659047D01*
X99500000Y-98689523D01*
X99347619Y-98689523D01*
X99926666Y-98049523D02*
X100322857Y-98049523D01*
X100109523Y-98293333D01*
X100200952Y-98293333D01*
X100261904Y-98323809D01*
X100292380Y-98354285D01*
X100322857Y-98415238D01*
X100322857Y-98567619D01*
X100292380Y-98628571D01*
X100261904Y-98659047D01*
X100200952Y-98689523D01*
X100018095Y-98689523D01*
X99957142Y-98659047D01*
X99926666Y-98628571D01*
%TO.C,H5*%
X143938095Y-98152380D02*
X143938095Y-97152380D01*
X143938095Y-97628571D02*
X144509523Y-97628571D01*
X144509523Y-98152380D02*
X144509523Y-97152380D01*
X145461904Y-97152380D02*
X144985714Y-97152380D01*
X144938095Y-97628571D01*
X144985714Y-97580952D01*
X145080952Y-97533333D01*
X145319047Y-97533333D01*
X145414285Y-97580952D01*
X145461904Y-97628571D01*
X145509523Y-97723809D01*
X145509523Y-97961904D01*
X145461904Y-98057142D01*
X145414285Y-98104761D01*
X145319047Y-98152380D01*
X145080952Y-98152380D01*
X144985714Y-98104761D01*
X144938095Y-98057142D01*
%TO.C,H3*%
X146052380Y-65861904D02*
X145052380Y-65861904D01*
X145528571Y-65861904D02*
X145528571Y-65290476D01*
X146052380Y-65290476D02*
X145052380Y-65290476D01*
X145052380Y-64909523D02*
X145052380Y-64290476D01*
X145433333Y-64623809D01*
X145433333Y-64480952D01*
X145480952Y-64385714D01*
X145528571Y-64338095D01*
X145623809Y-64290476D01*
X145861904Y-64290476D01*
X145957142Y-64338095D01*
X146004761Y-64385714D01*
X146052380Y-64480952D01*
X146052380Y-64766666D01*
X146004761Y-64861904D01*
X145957142Y-64909523D01*
%TO.C,H4*%
X148438095Y-94952380D02*
X148438095Y-93952380D01*
X148438095Y-94428571D02*
X149009523Y-94428571D01*
X149009523Y-94952380D02*
X149009523Y-93952380D01*
X149914285Y-94285714D02*
X149914285Y-94952380D01*
X149676190Y-93904761D02*
X149438095Y-94619047D01*
X150057142Y-94619047D01*
%TO.C,F1*%
X99766666Y-73028571D02*
X99433333Y-73028571D01*
X99433333Y-73552380D02*
X99433333Y-72552380D01*
X99909523Y-72552380D01*
X100814285Y-73552380D02*
X100242857Y-73552380D01*
X100528571Y-73552380D02*
X100528571Y-72552380D01*
X100433333Y-72695238D01*
X100338095Y-72790476D01*
X100242857Y-72838095D01*
D12*
%TO.C,D1*%
X120474523Y-74837380D02*
X119204523Y-74837380D01*
X119204523Y-74535000D01*
X119265000Y-74353571D01*
X119385952Y-74232619D01*
X119506904Y-74172142D01*
X119748809Y-74111666D01*
X119930238Y-74111666D01*
X120172142Y-74172142D01*
X120293095Y-74232619D01*
X120414047Y-74353571D01*
X120474523Y-74535000D01*
X120474523Y-74837380D01*
X120474523Y-72902142D02*
X120474523Y-73627857D01*
X120474523Y-73265000D02*
X119204523Y-73265000D01*
X119385952Y-73385952D01*
X119506904Y-73506904D01*
X119567380Y-73627857D01*
D11*
%TO.C,L1*%
X132233333Y-68552380D02*
X131757142Y-68552380D01*
X131757142Y-67552380D01*
X133090476Y-68552380D02*
X132519047Y-68552380D01*
X132804761Y-68552380D02*
X132804761Y-67552380D01*
X132709523Y-67695238D01*
X132614285Y-67790476D01*
X132519047Y-67838095D01*
D12*
%TO.C,D2*%
X131274523Y-83037380D02*
X130004523Y-83037380D01*
X130004523Y-82735000D01*
X130065000Y-82553571D01*
X130185952Y-82432619D01*
X130306904Y-82372142D01*
X130548809Y-82311666D01*
X130730238Y-82311666D01*
X130972142Y-82372142D01*
X131093095Y-82432619D01*
X131214047Y-82553571D01*
X131274523Y-82735000D01*
X131274523Y-83037380D01*
X130125476Y-81827857D02*
X130065000Y-81767380D01*
X130004523Y-81646428D01*
X130004523Y-81344047D01*
X130065000Y-81223095D01*
X130125476Y-81162619D01*
X130246428Y-81102142D01*
X130367380Y-81102142D01*
X130548809Y-81162619D01*
X131274523Y-81888333D01*
X131274523Y-81102142D01*
D11*
%TO.C,H2*%
X84552380Y-100961904D02*
X83552380Y-100961904D01*
X84028571Y-100961904D02*
X84028571Y-100390476D01*
X84552380Y-100390476D02*
X83552380Y-100390476D01*
X83647619Y-99961904D02*
X83600000Y-99914285D01*
X83552380Y-99819047D01*
X83552380Y-99580952D01*
X83600000Y-99485714D01*
X83647619Y-99438095D01*
X83742857Y-99390476D01*
X83838095Y-99390476D01*
X83980952Y-99438095D01*
X84552380Y-100009523D01*
X84552380Y-99390476D01*
%TO.C,J2*%
X136152380Y-82583333D02*
X136866666Y-82583333D01*
X137009523Y-82630952D01*
X137104761Y-82726190D01*
X137152380Y-82869047D01*
X137152380Y-82964285D01*
X136247619Y-82154761D02*
X136200000Y-82107142D01*
X136152380Y-82011904D01*
X136152380Y-81773809D01*
X136200000Y-81678571D01*
X136247619Y-81630952D01*
X136342857Y-81583333D01*
X136438095Y-81583333D01*
X136580952Y-81630952D01*
X137152380Y-82202380D01*
X137152380Y-81583333D01*
%TO.C,H1*%
X84452380Y-64161904D02*
X83452380Y-64161904D01*
X83928571Y-64161904D02*
X83928571Y-63590476D01*
X84452380Y-63590476D02*
X83452380Y-63590476D01*
X84452380Y-62590476D02*
X84452380Y-63161904D01*
X84452380Y-62876190D02*
X83452380Y-62876190D01*
X83595238Y-62971428D01*
X83690476Y-63066666D01*
X83738095Y-63161904D01*
D12*
%TO.C,D3*%
X120474523Y-91337380D02*
X119204523Y-91337380D01*
X119204523Y-91035000D01*
X119265000Y-90853571D01*
X119385952Y-90732619D01*
X119506904Y-90672142D01*
X119748809Y-90611666D01*
X119930238Y-90611666D01*
X120172142Y-90672142D01*
X120293095Y-90732619D01*
X120414047Y-90853571D01*
X120474523Y-91035000D01*
X120474523Y-91337380D01*
X119204523Y-90188333D02*
X119204523Y-89402142D01*
X119688333Y-89825476D01*
X119688333Y-89644047D01*
X119748809Y-89523095D01*
X119809285Y-89462619D01*
X119930238Y-89402142D01*
X120232619Y-89402142D01*
X120353571Y-89462619D01*
X120414047Y-89523095D01*
X120474523Y-89644047D01*
X120474523Y-90006904D01*
X120414047Y-90127857D01*
X120353571Y-90188333D01*
D13*
%TO.C,RV1*%
X106000000Y-68100000D02*
X123000000Y-68100000D01*
X106000000Y-63100000D02*
X106000000Y-68100000D01*
X123000000Y-63100000D02*
X106000000Y-63100000D01*
X123000000Y-68100000D02*
X123000000Y-63100000D01*
%TO.C,G\u002A\u002A\u002A*%
G36*
X140829004Y-90260201D02*
G01*
X140840075Y-90286923D01*
X140847294Y-90340526D01*
X140851403Y-90428427D01*
X140853144Y-90558041D01*
X140853362Y-90653152D01*
X140853362Y-91053362D01*
X141120168Y-91053362D01*
X141244586Y-91054684D01*
X141324465Y-91059529D01*
X141368581Y-91069214D01*
X141385712Y-91085054D01*
X141386975Y-91093383D01*
X141380629Y-91106753D01*
X141357396Y-91116840D01*
X141310982Y-91124082D01*
X141235094Y-91128919D01*
X141123439Y-91131790D01*
X140969724Y-91133133D01*
X140813341Y-91133404D01*
X140621701Y-91132961D01*
X140477123Y-91131340D01*
X140373316Y-91128102D01*
X140303985Y-91122807D01*
X140262838Y-91115017D01*
X140243580Y-91104293D01*
X140239706Y-91093383D01*
X140248523Y-91074720D01*
X140280824Y-91062738D01*
X140345387Y-91056121D01*
X140450988Y-91053551D01*
X140506513Y-91053362D01*
X140773320Y-91053362D01*
X140773320Y-90653152D01*
X140774046Y-90496517D01*
X140776718Y-90385813D01*
X140782078Y-90313623D01*
X140790868Y-90272529D01*
X140803830Y-90255115D01*
X140813341Y-90252942D01*
X140829004Y-90260201D01*
G37*
G36*
X140910617Y-91723050D02*
G01*
X140964684Y-91732597D01*
X140985495Y-91751317D01*
X140986765Y-91760400D01*
X140975187Y-91782848D01*
X140933817Y-91795325D01*
X140852699Y-91800127D01*
X140813341Y-91800421D01*
X140716064Y-91797749D01*
X140661998Y-91788202D01*
X140641186Y-91769482D01*
X140639916Y-91760400D01*
X140651494Y-91737951D01*
X140692865Y-91725474D01*
X140773982Y-91720672D01*
X140813341Y-91720379D01*
X140910617Y-91723050D01*
G37*
G36*
X139829000Y-90883915D02*
G01*
X139835845Y-90790870D01*
X139850951Y-90717269D01*
X139877343Y-90646176D01*
X139902681Y-90591854D01*
X140012855Y-90418011D01*
X140160710Y-90260735D01*
X140330575Y-90135698D01*
X140391854Y-90102681D01*
X140556525Y-90046857D01*
X140746338Y-90021366D01*
X140942536Y-90026208D01*
X141126361Y-90061384D01*
X141234827Y-90102681D01*
X141408670Y-90212855D01*
X141565947Y-90360710D01*
X141690984Y-90530575D01*
X141724000Y-90591854D01*
X141759590Y-90670674D01*
X141781878Y-90740721D01*
X141793891Y-90818930D01*
X141798652Y-90922236D01*
X141799291Y-91013341D01*
X141797682Y-91142766D01*
X141790837Y-91235812D01*
X141775731Y-91309413D01*
X141749338Y-91380505D01*
X141724000Y-91434827D01*
X141616095Y-91605815D01*
X141472114Y-91760317D01*
X141307353Y-91883076D01*
X141236211Y-91921229D01*
X141126086Y-91965324D01*
X141013128Y-91990621D01*
X140872703Y-92002577D01*
X140868086Y-92002775D01*
X140754281Y-92004439D01*
X140650780Y-92000554D01*
X140577496Y-91991956D01*
X140570084Y-91990246D01*
X140374815Y-91913801D01*
X140192960Y-91793489D01*
X140035882Y-91638765D01*
X139914942Y-91459085D01*
X139902681Y-91434827D01*
X139867091Y-91356007D01*
X139844803Y-91285960D01*
X139832791Y-91207752D01*
X139828030Y-91104445D01*
X139827984Y-91097964D01*
X139921303Y-91097964D01*
X139961328Y-91288214D01*
X140039886Y-91461900D01*
X140152044Y-91614088D01*
X140292867Y-91739845D01*
X140457424Y-91834237D01*
X140640780Y-91892333D01*
X140838003Y-91909198D01*
X141044159Y-91879899D01*
X141139178Y-91850100D01*
X141296614Y-91767480D01*
X141443524Y-91645782D01*
X141565748Y-91499165D01*
X141649128Y-91341788D01*
X141650100Y-91339178D01*
X141703150Y-91123923D01*
X141704458Y-90911684D01*
X141655300Y-90708370D01*
X141556955Y-90519890D01*
X141443324Y-90383357D01*
X141271020Y-90246465D01*
X141079141Y-90157733D01*
X140873596Y-90118442D01*
X140660294Y-90129868D01*
X140487503Y-90176582D01*
X140330067Y-90259201D01*
X140183158Y-90380899D01*
X140060933Y-90527516D01*
X139977553Y-90684893D01*
X139976582Y-90687503D01*
X139924743Y-90896083D01*
X139921303Y-91097964D01*
X139827984Y-91097964D01*
X139827390Y-91013341D01*
X139829000Y-90883915D01*
G37*
G36*
X140960919Y-91374374D02*
G01*
X141062921Y-91377482D01*
X141127113Y-91383717D01*
X141161261Y-91393942D01*
X141173133Y-91409019D01*
X141173530Y-91413551D01*
X141165931Y-91429948D01*
X141137958Y-91441282D01*
X141081843Y-91448414D01*
X140989821Y-91452209D01*
X140854125Y-91453528D01*
X140813341Y-91453572D01*
X140665762Y-91452728D01*
X140563760Y-91449619D01*
X140499568Y-91443384D01*
X140465420Y-91433160D01*
X140453549Y-91418082D01*
X140453152Y-91413551D01*
X140460750Y-91397153D01*
X140488724Y-91385820D01*
X140544838Y-91378687D01*
X140636860Y-91374893D01*
X140772557Y-91373574D01*
X140813341Y-91373530D01*
X140960919Y-91374374D01*
G37*
%TO.C,GD2*%
X101900000Y-84700000D02*
X101900000Y-79700000D01*
X101900000Y-79700000D02*
X96900000Y-79700000D01*
X101900000Y-84700000D02*
X96900000Y-84700000D01*
X96900000Y-84700000D02*
X96900000Y-79700000D01*
%TO.C,RV3*%
X106000000Y-95900000D02*
X106000000Y-100900000D01*
X106000000Y-100900000D02*
X123000000Y-100900000D01*
X123000000Y-95900000D02*
X106000000Y-95900000D01*
X123000000Y-100900000D02*
X123000000Y-95900000D01*
D14*
%TO.C,L2*%
X124900000Y-96200000D02*
X124900000Y-94200000D01*
X140900000Y-97200000D02*
X123900000Y-97200000D01*
X123900000Y-97200000D02*
X123900000Y-96200000D01*
X123900000Y-94200000D02*
X124900000Y-94200000D01*
X123900000Y-96200000D02*
X124900000Y-96200000D01*
X140900000Y-93200000D02*
X140900000Y-97200000D01*
X123900000Y-93200000D02*
X140900000Y-93200000D01*
X123900000Y-93200000D02*
X123900000Y-94200000D01*
D13*
%TO.C,GD1*%
X96900000Y-68100000D02*
X101900000Y-68100000D01*
X96900000Y-63100000D02*
X96900000Y-68100000D01*
X96900000Y-63100000D02*
X101900000Y-63100000D01*
X101900000Y-63100000D02*
X101900000Y-68100000D01*
D14*
%TO.C,F2*%
X114400000Y-93450000D02*
X85400000Y-93450000D01*
X114400000Y-87350000D02*
X114400000Y-93450000D01*
X85400000Y-87350000D02*
X114400000Y-87350000D01*
X85400000Y-93450000D02*
X85400000Y-87350000D01*
D13*
%TO.C,J1*%
X83912500Y-66080000D02*
X54662500Y-66080000D01*
X54662500Y-97420000D02*
X83912500Y-97420000D01*
X83912500Y-97420000D02*
X83912500Y-66080000D01*
X54662500Y-66080000D02*
X54662500Y-97420000D01*
D15*
X84512500Y-77940000D02*
G75*
G03*
X84512500Y-77940000I-100000J0D01*
G01*
D13*
%TO.C,RV2*%
X106000000Y-79700000D02*
X106000000Y-84700000D01*
X123000000Y-79700000D02*
X106000000Y-79700000D01*
X106000000Y-84700000D02*
X123000000Y-84700000D01*
X123000000Y-84700000D02*
X123000000Y-79700000D01*
%TO.C,GD3*%
X101800000Y-95900000D02*
X96800000Y-95900000D01*
X101800000Y-100900000D02*
X96800000Y-100900000D01*
X96800000Y-100900000D02*
X96800000Y-95900000D01*
X101800000Y-100900000D02*
X101800000Y-95900000D01*
D14*
%TO.C,F1*%
X85500000Y-76050000D02*
X85500000Y-69950000D01*
X114500000Y-76050000D02*
X85500000Y-76050000D01*
X114500000Y-69950000D02*
X114500000Y-76050000D01*
X85500000Y-69950000D02*
X114500000Y-69950000D01*
D15*
%TO.C,D1*%
X116948000Y-69930000D02*
X116948000Y-78500000D01*
X122852000Y-77870000D02*
X122852000Y-69930000D01*
D14*
%TO.C,L1*%
X140900000Y-67200000D02*
X139900000Y-67200000D01*
X140900000Y-66200000D02*
X140900000Y-67200000D01*
X123900000Y-66200000D02*
X140900000Y-66200000D01*
X140900000Y-70200000D02*
X123900000Y-70200000D01*
X140900000Y-70200000D02*
X140900000Y-69200000D01*
X123900000Y-70200000D02*
X123900000Y-66200000D01*
X139900000Y-67200000D02*
X139900000Y-69200000D01*
X140900000Y-69200000D02*
X139900000Y-69200000D01*
D15*
%TO.C,D2*%
X132652000Y-86170000D02*
X132652000Y-78230000D01*
X126748000Y-78230000D02*
X126748000Y-86800000D01*
D13*
%TO.C,J2*%
X138337500Y-89370000D02*
X168437500Y-89370000D01*
X168437500Y-74130000D02*
X138337500Y-74130000D01*
X168437500Y-89370000D02*
X168437500Y-74130000D01*
X138337500Y-74130000D02*
X138337500Y-89370000D01*
D15*
X137787500Y-85560000D02*
G75*
G03*
X137787500Y-85560000I-100000J0D01*
G01*
%TO.C,G\u002A\u002A\u002A*%
G36*
X149912115Y-70035113D02*
G01*
X149886037Y-70061191D01*
X149859959Y-70035113D01*
X149886037Y-70009035D01*
X149912115Y-70035113D01*
G37*
G36*
X151251645Y-70625129D02*
G01*
X151257863Y-70706642D01*
X151247527Y-70725094D01*
X151223822Y-70709539D01*
X151220134Y-70656639D01*
X151232872Y-70600987D01*
X151251645Y-70625129D01*
G37*
G36*
X147542995Y-72890292D02*
G01*
X147553403Y-72954899D01*
X147495407Y-73014500D01*
X147420448Y-73034086D01*
X147363412Y-73026599D01*
X147382444Y-72987181D01*
X147422284Y-72945918D01*
X147501275Y-72890151D01*
X147542995Y-72890292D01*
G37*
G36*
X150203880Y-71964094D02*
G01*
X150198973Y-71990965D01*
X150132294Y-72041132D01*
X150117661Y-72043121D01*
X150069988Y-72003340D01*
X150068583Y-71990965D01*
X150111036Y-71945192D01*
X150149895Y-71938809D01*
X150203880Y-71964094D01*
G37*
G36*
X151268173Y-70191581D02*
G01*
X151317929Y-70238449D01*
X151320329Y-70246815D01*
X151279976Y-70269217D01*
X151268173Y-70269815D01*
X151218021Y-70229720D01*
X151216016Y-70214581D01*
X151247969Y-70183432D01*
X151268173Y-70191581D01*
G37*
G36*
X151400326Y-71507858D02*
G01*
X151391346Y-71547639D01*
X151341051Y-71616634D01*
X151316385Y-71625873D01*
X151292488Y-71587419D01*
X151301468Y-71547639D01*
X151351762Y-71478643D01*
X151376428Y-71469405D01*
X151400326Y-71507858D01*
G37*
G36*
X150016427Y-71495483D02*
G01*
X149990349Y-71521561D01*
X149964271Y-71495483D01*
X149990349Y-71469405D01*
X150016427Y-71495483D01*
G37*
G36*
X147871671Y-72961124D02*
G01*
X147878029Y-73002428D01*
X147835786Y-73081994D01*
X147795529Y-73106740D01*
X147701988Y-73135802D01*
X147671189Y-73117420D01*
X147669405Y-73096674D01*
X147702052Y-73027419D01*
X147731992Y-72992362D01*
X147820534Y-72933909D01*
X147871671Y-72961124D01*
G37*
G36*
X149018835Y-72906892D02*
G01*
X149025462Y-72927939D01*
X148985807Y-72989832D01*
X148900153Y-73042620D01*
X148818470Y-73059462D01*
X148798070Y-73050089D01*
X148796354Y-72990184D01*
X148853668Y-72920679D01*
X148936051Y-72879233D01*
X148953614Y-72877618D01*
X149018835Y-72906892D01*
G37*
G36*
X149859959Y-69722177D02*
G01*
X149833881Y-69748255D01*
X149807803Y-69722177D01*
X149833881Y-69696099D01*
X149859959Y-69722177D01*
G37*
G36*
X151312679Y-70412063D02*
G01*
X151320329Y-70449284D01*
X151303140Y-70524640D01*
X151257979Y-70502050D01*
X151244322Y-70482044D01*
X151250862Y-70415058D01*
X151267322Y-70400731D01*
X151312679Y-70412063D01*
G37*
G36*
X150798768Y-69878645D02*
G01*
X150772690Y-69904723D01*
X150746612Y-69878645D01*
X150772690Y-69852567D01*
X150798768Y-69878645D01*
G37*
G36*
X147240215Y-72835206D02*
G01*
X147192439Y-72897758D01*
X147129564Y-72921832D01*
X147095820Y-72891412D01*
X147095688Y-72887545D01*
X147137478Y-72827278D01*
X147178280Y-72804929D01*
X147239423Y-72803514D01*
X147240215Y-72835206D01*
G37*
G36*
X150068583Y-70087269D02*
G01*
X150042505Y-70113347D01*
X150016427Y-70087269D01*
X150042505Y-70061191D01*
X150068583Y-70087269D01*
G37*
G36*
X151563723Y-71226010D02*
G01*
X151569966Y-71287907D01*
X151563723Y-71295551D01*
X151532717Y-71288392D01*
X151528953Y-71260780D01*
X151548036Y-71217850D01*
X151563723Y-71226010D01*
G37*
G36*
X150781383Y-71747570D02*
G01*
X150779250Y-71805633D01*
X150726752Y-71882498D01*
X150657083Y-71934527D01*
X150635914Y-71938809D01*
X150590657Y-71899877D01*
X150590144Y-71893039D01*
X150624332Y-71825000D01*
X150697806Y-71763140D01*
X150766927Y-71740654D01*
X150781383Y-71747570D01*
G37*
G36*
X150521624Y-69625477D02*
G01*
X150511910Y-69643943D01*
X150462767Y-69693752D01*
X150453597Y-69696099D01*
X150450039Y-69662409D01*
X150459754Y-69643943D01*
X150508896Y-69594134D01*
X150518066Y-69591787D01*
X150521624Y-69625477D01*
G37*
G36*
X150938873Y-69990569D02*
G01*
X150929158Y-70009035D01*
X150880016Y-70058844D01*
X150870846Y-70061191D01*
X150867287Y-70027501D01*
X150877002Y-70009035D01*
X150926144Y-69959226D01*
X150935314Y-69956879D01*
X150938873Y-69990569D01*
G37*
G36*
X146770445Y-72539626D02*
G01*
X146717815Y-72599838D01*
X146668975Y-72616838D01*
X146647951Y-72587038D01*
X146679485Y-72537343D01*
X146743262Y-72482668D01*
X146769328Y-72481717D01*
X146770445Y-72539626D01*
G37*
G36*
X146661912Y-71146689D02*
G01*
X146668130Y-71228203D01*
X146657794Y-71246655D01*
X146634089Y-71231100D01*
X146630401Y-71178200D01*
X146643139Y-71122548D01*
X146661912Y-71146689D01*
G37*
G36*
X151211998Y-71289243D02*
G01*
X151216016Y-71306780D01*
X151177955Y-71380512D01*
X151163860Y-71391171D01*
X151115723Y-71388786D01*
X151111704Y-71371249D01*
X151149765Y-71297517D01*
X151163860Y-71286859D01*
X151211998Y-71289243D01*
G37*
G36*
X151876660Y-70600137D02*
G01*
X151882902Y-70662034D01*
X151876660Y-70669679D01*
X151845653Y-70662519D01*
X151841889Y-70634908D01*
X151860972Y-70591977D01*
X151876660Y-70600137D01*
G37*
G36*
X150230435Y-70144940D02*
G01*
X150273283Y-70206551D01*
X150269391Y-70241947D01*
X150224725Y-70224216D01*
X150183878Y-70186321D01*
X150150632Y-70127465D01*
X150167761Y-70113347D01*
X150230435Y-70144940D01*
G37*
G36*
X149373169Y-71330322D02*
G01*
X149379411Y-71392219D01*
X149373169Y-71399863D01*
X149342162Y-71392704D01*
X149338398Y-71365093D01*
X149357481Y-71322162D01*
X149373169Y-71330322D01*
G37*
G36*
X149025462Y-72486448D02*
G01*
X148999384Y-72512526D01*
X148973306Y-72486448D01*
X148999384Y-72460370D01*
X149025462Y-72486448D01*
G37*
G36*
X151563723Y-70495825D02*
G01*
X151569966Y-70557722D01*
X151563723Y-70565366D01*
X151532717Y-70558207D01*
X151528953Y-70530596D01*
X151548036Y-70487665D01*
X151563723Y-70495825D01*
G37*
G36*
X150364134Y-71330322D02*
G01*
X150370376Y-71392219D01*
X150364134Y-71399863D01*
X150333127Y-71392704D01*
X150329363Y-71365093D01*
X150348447Y-71322162D01*
X150364134Y-71330322D01*
G37*
G36*
X148812819Y-72697456D02*
G01*
X148816838Y-72714994D01*
X148778777Y-72788726D01*
X148764682Y-72799384D01*
X148716544Y-72797000D01*
X148712526Y-72779462D01*
X148750587Y-72705730D01*
X148764682Y-72695072D01*
X148812819Y-72697456D01*
G37*
G36*
X150850924Y-69565709D02*
G01*
X150824846Y-69591787D01*
X150798768Y-69565709D01*
X150824846Y-69539631D01*
X150850924Y-69565709D01*
G37*
G36*
X149859959Y-69878645D02*
G01*
X149833881Y-69904723D01*
X149807803Y-69878645D01*
X149833881Y-69852567D01*
X149859959Y-69878645D01*
G37*
G36*
X149651335Y-71912731D02*
G01*
X149625257Y-71938809D01*
X149599179Y-71912731D01*
X149625257Y-71886653D01*
X149651335Y-71912731D01*
G37*
G36*
X143785933Y-68725195D02*
G01*
X143795781Y-68768823D01*
X143789308Y-68793366D01*
X143763954Y-68885523D01*
X143722020Y-69049180D01*
X143671132Y-69254374D01*
X143652485Y-69331006D01*
X143578734Y-69622495D01*
X143516547Y-69829471D01*
X143457815Y-69969865D01*
X143394430Y-70061605D01*
X143318283Y-70122620D01*
X143286424Y-70140393D01*
X143070801Y-70212619D01*
X142805601Y-70244594D01*
X142566958Y-70233936D01*
X142448364Y-70204131D01*
X142417889Y-70152705D01*
X142423529Y-70131542D01*
X142449814Y-70011269D01*
X142453799Y-69950250D01*
X142468163Y-69883688D01*
X142530662Y-69866935D01*
X142631811Y-69881235D01*
X142798450Y-69895607D01*
X142929044Y-69860755D01*
X143032300Y-69765290D01*
X143116921Y-69597823D01*
X143191614Y-69346965D01*
X143251722Y-69070226D01*
X143318577Y-68731212D01*
X143568696Y-68715132D01*
X143717785Y-68709974D01*
X143785933Y-68725195D01*
G37*
G36*
X150417312Y-70094881D02*
G01*
X150407598Y-70113347D01*
X150358455Y-70163156D01*
X150349285Y-70165503D01*
X150345727Y-70131813D01*
X150355441Y-70113347D01*
X150404584Y-70063538D01*
X150413754Y-70061191D01*
X150417312Y-70094881D01*
G37*
G36*
X151424641Y-69617865D02*
G01*
X151398563Y-69643943D01*
X151372485Y-69617865D01*
X151398563Y-69591787D01*
X151424641Y-69617865D01*
G37*
G36*
X149372832Y-72388193D02*
G01*
X149364476Y-72408214D01*
X149295385Y-72458423D01*
X149280086Y-72460370D01*
X149251809Y-72428235D01*
X149260164Y-72408214D01*
X149329256Y-72358005D01*
X149344555Y-72356058D01*
X149372832Y-72388193D01*
G37*
G36*
X150782405Y-70616442D02*
G01*
X150772690Y-70634908D01*
X150723548Y-70684717D01*
X150714378Y-70687064D01*
X150710819Y-70653374D01*
X150720534Y-70634908D01*
X150769676Y-70585099D01*
X150778846Y-70582752D01*
X150782405Y-70616442D01*
G37*
G36*
X150485832Y-69357084D02*
G01*
X150459754Y-69383162D01*
X150433676Y-69357084D01*
X150459754Y-69331006D01*
X150485832Y-69357084D01*
G37*
G36*
X146036203Y-71607407D02*
G01*
X146026489Y-71625873D01*
X145977347Y-71675682D01*
X145968176Y-71678029D01*
X145964618Y-71644339D01*
X145974333Y-71625873D01*
X146023475Y-71576064D01*
X146032645Y-71573717D01*
X146036203Y-71607407D01*
G37*
G36*
X146609756Y-71355313D02*
G01*
X146615974Y-71436827D01*
X146605638Y-71455279D01*
X146581933Y-71439724D01*
X146578245Y-71386824D01*
X146590982Y-71331172D01*
X146609756Y-71355313D01*
G37*
G36*
X150225051Y-69774333D02*
G01*
X150198973Y-69800411D01*
X150172895Y-69774333D01*
X150198973Y-69748255D01*
X150225051Y-69774333D01*
G37*
G36*
X149651335Y-69982957D02*
G01*
X149625257Y-70009035D01*
X149599179Y-69982957D01*
X149625257Y-69956879D01*
X149651335Y-69982957D01*
G37*
G36*
X148809396Y-71096939D02*
G01*
X148829305Y-71173362D01*
X148814048Y-71213838D01*
X148733078Y-71288655D01*
X148626087Y-71313091D01*
X148541430Y-71277718D01*
X148534636Y-71268315D01*
X148556023Y-71243495D01*
X148635870Y-71248317D01*
X148735315Y-71248467D01*
X148764662Y-71187834D01*
X148764682Y-71185112D01*
X148739082Y-71123589D01*
X148647802Y-71129237D01*
X148647331Y-71129366D01*
X148572373Y-71145793D01*
X148589724Y-71124342D01*
X148616770Y-71106720D01*
X148728963Y-71069519D01*
X148809396Y-71096939D01*
G37*
G36*
X150277207Y-71234702D02*
G01*
X150251129Y-71260780D01*
X150225051Y-71234702D01*
X150251129Y-71208624D01*
X150277207Y-71234702D01*
G37*
G36*
X147564149Y-70861350D02*
G01*
X147769981Y-70808580D01*
X147947202Y-70840087D01*
X148052192Y-70907135D01*
X148086007Y-71022090D01*
X148086653Y-71050865D01*
X148080942Y-71144654D01*
X148045762Y-71191162D01*
X147954046Y-71206960D01*
X147828951Y-71208624D01*
X147674294Y-71217239D01*
X147567715Y-71239184D01*
X147542667Y-71254871D01*
X147546183Y-71323916D01*
X147622594Y-71379716D01*
X147740531Y-71405876D01*
X147820490Y-71400071D01*
X147924337Y-71388175D01*
X147953385Y-71421806D01*
X147944668Y-71471811D01*
X147879007Y-71539547D01*
X147749150Y-71576505D01*
X147590587Y-71582628D01*
X147438807Y-71557859D01*
X147329299Y-71502141D01*
X147306147Y-71472834D01*
X147255586Y-71298636D01*
X147300631Y-71127589D01*
X147333891Y-71079789D01*
X147575774Y-71079789D01*
X147599170Y-71099378D01*
X147682444Y-71102654D01*
X147786511Y-71088466D01*
X147825873Y-71055234D01*
X147791006Y-70985259D01*
X147703954Y-70988052D01*
X147637971Y-71026090D01*
X147575774Y-71079789D01*
X147333891Y-71079789D01*
X147383956Y-71007836D01*
X147564149Y-70861350D01*
G37*
G36*
X150832996Y-70458236D02*
G01*
X150824846Y-70478440D01*
X150777978Y-70528196D01*
X150769612Y-70530596D01*
X150747210Y-70490243D01*
X150746612Y-70478440D01*
X150786707Y-70428288D01*
X150801846Y-70426284D01*
X150832996Y-70458236D01*
G37*
G36*
X150381520Y-70556674D02*
G01*
X150355441Y-70582752D01*
X150329363Y-70556674D01*
X150355441Y-70530596D01*
X150381520Y-70556674D01*
G37*
G36*
X149268857Y-71330322D02*
G01*
X149275099Y-71392219D01*
X149268857Y-71399863D01*
X149237850Y-71392704D01*
X149234086Y-71365093D01*
X149253169Y-71322162D01*
X149268857Y-71330322D01*
G37*
G36*
X149286242Y-70035113D02*
G01*
X149260164Y-70061191D01*
X149234086Y-70035113D01*
X149260164Y-70009035D01*
X149286242Y-70035113D01*
G37*
G36*
X149900892Y-71148190D02*
G01*
X149901717Y-71182546D01*
X149885631Y-71314898D01*
X149859959Y-71417249D01*
X149830251Y-71495971D01*
X149819026Y-71477683D01*
X149818201Y-71443327D01*
X149834286Y-71310975D01*
X149859959Y-71208624D01*
X149889666Y-71129902D01*
X149900892Y-71148190D01*
G37*
G36*
X150687533Y-71545578D02*
G01*
X150684677Y-71576977D01*
X150618642Y-71656019D01*
X150593404Y-71668250D01*
X150544910Y-71654012D01*
X150547767Y-71622613D01*
X150613801Y-71543571D01*
X150639040Y-71531340D01*
X150687533Y-71545578D01*
G37*
G36*
X150694456Y-69461397D02*
G01*
X150668378Y-69487475D01*
X150642300Y-69461397D01*
X150668378Y-69435318D01*
X150694456Y-69461397D01*
G37*
G36*
X149896753Y-72370295D02*
G01*
X149864546Y-72428717D01*
X149859959Y-72434292D01*
X149767749Y-72500738D01*
X149716796Y-72512526D01*
X149666697Y-72498289D01*
X149698904Y-72439867D01*
X149703491Y-72434292D01*
X149795701Y-72367846D01*
X149846653Y-72356058D01*
X149896753Y-72370295D01*
G37*
G36*
X148534910Y-73256334D02*
G01*
X148538015Y-73318626D01*
X148481492Y-73393840D01*
X148397570Y-73445465D01*
X148362779Y-73451335D01*
X148306578Y-73419158D01*
X148307074Y-73389866D01*
X148364413Y-73311609D01*
X148452552Y-73256333D01*
X148526668Y-73250311D01*
X148534910Y-73256334D01*
G37*
G36*
X146285807Y-72508200D02*
G01*
X146266184Y-72532588D01*
X146186185Y-72601380D01*
X146126299Y-72611486D01*
X146115437Y-72559195D01*
X146117737Y-72551643D01*
X146181702Y-72487812D01*
X146237775Y-72467393D01*
X146304200Y-72463523D01*
X146285807Y-72508200D01*
G37*
G36*
X149390554Y-72017043D02*
G01*
X149364476Y-72043121D01*
X149338398Y-72017043D01*
X149364476Y-71990965D01*
X149390554Y-72017043D01*
G37*
G36*
X146562895Y-71557329D02*
G01*
X146634170Y-71596931D01*
X146771819Y-71628767D01*
X146861994Y-71639201D01*
X147121766Y-71659227D01*
X146821869Y-71668628D01*
X146650357Y-71669412D01*
X146559352Y-71653746D01*
X146525535Y-71615246D01*
X146522770Y-71586756D01*
X146536326Y-71532314D01*
X146562895Y-71557329D01*
G37*
G36*
X148094304Y-71415124D02*
G01*
X148111106Y-71464286D01*
X148187405Y-71576905D01*
X148260747Y-71625944D01*
X148328509Y-71660369D01*
X148299580Y-71673949D01*
X148285196Y-71674723D01*
X148191391Y-71637797D01*
X148115688Y-71562112D01*
X148056771Y-71498157D01*
X148034497Y-71518648D01*
X148017931Y-71566243D01*
X148003638Y-71560243D01*
X148000163Y-71495834D01*
X148023505Y-71438743D01*
X148064954Y-71381683D01*
X148094304Y-71415124D01*
G37*
G36*
X146716362Y-72955152D02*
G01*
X146716507Y-73010260D01*
X146648096Y-73054584D01*
X146555508Y-73082735D01*
X146524683Y-73055699D01*
X146521971Y-73008008D01*
X146565454Y-72944295D01*
X146626283Y-72929774D01*
X146716362Y-72955152D01*
G37*
G36*
X146989971Y-72708776D02*
G01*
X146991376Y-72721150D01*
X146948923Y-72766923D01*
X146910064Y-72773306D01*
X146856079Y-72748021D01*
X146860986Y-72721150D01*
X146927665Y-72670984D01*
X146942298Y-72668994D01*
X146989971Y-72708776D01*
G37*
G36*
X150510448Y-72299576D02*
G01*
X150490824Y-72323964D01*
X150410826Y-72392756D01*
X150350940Y-72402862D01*
X150340077Y-72350571D01*
X150342378Y-72343019D01*
X150406343Y-72279187D01*
X150462415Y-72258769D01*
X150528841Y-72254899D01*
X150510448Y-72299576D01*
G37*
G36*
X150676527Y-70040988D02*
G01*
X150668378Y-70061191D01*
X150621510Y-70110947D01*
X150613144Y-70113347D01*
X150590742Y-70072995D01*
X150590144Y-70061191D01*
X150630239Y-70011039D01*
X150645378Y-70009035D01*
X150676527Y-70040988D01*
G37*
G36*
X149703491Y-69826489D02*
G01*
X149677413Y-69852567D01*
X149651335Y-69826489D01*
X149677413Y-69800411D01*
X149703491Y-69826489D01*
G37*
G36*
X146608898Y-72321287D02*
G01*
X146601739Y-72352294D01*
X146574127Y-72356058D01*
X146531197Y-72336975D01*
X146539357Y-72321287D01*
X146601254Y-72315045D01*
X146608898Y-72321287D01*
G37*
G36*
X149512252Y-72495141D02*
G01*
X149512729Y-72554880D01*
X149461204Y-72627972D01*
X149391508Y-72668496D01*
X149384168Y-72668994D01*
X149338912Y-72630062D01*
X149338398Y-72623224D01*
X149372521Y-72553596D01*
X149444275Y-72498408D01*
X149507739Y-72491492D01*
X149512252Y-72495141D01*
G37*
G36*
X151143350Y-71808427D02*
G01*
X151137782Y-71834497D01*
X151062543Y-71881963D01*
X151027314Y-71886653D01*
X150975747Y-71860568D01*
X150981314Y-71834497D01*
X151056554Y-71787031D01*
X151091782Y-71782341D01*
X151143350Y-71808427D01*
G37*
G36*
X148125580Y-73319097D02*
G01*
X148097916Y-73397059D01*
X148058575Y-73433169D01*
X147943795Y-73497104D01*
X147886543Y-73476829D01*
X147878029Y-73427092D01*
X147919386Y-73343435D01*
X147979176Y-73296561D01*
X148079798Y-73274927D01*
X148125580Y-73319097D01*
G37*
G36*
X150521624Y-70199193D02*
G01*
X150511910Y-70217659D01*
X150462767Y-70267469D01*
X150453597Y-70269815D01*
X150450039Y-70236125D01*
X150459754Y-70217659D01*
X150508896Y-70167850D01*
X150518066Y-70165503D01*
X150521624Y-70199193D01*
G37*
G36*
X146991376Y-72225668D02*
G01*
X146965298Y-72251746D01*
X146939220Y-72225668D01*
X146965298Y-72199590D01*
X146991376Y-72225668D01*
G37*
G36*
X149164208Y-72648973D02*
G01*
X149155852Y-72668994D01*
X149086760Y-72719203D01*
X149071462Y-72721150D01*
X149043185Y-72689015D01*
X149051540Y-72668994D01*
X149120632Y-72618785D01*
X149135930Y-72616838D01*
X149164208Y-72648973D01*
G37*
G36*
X149599179Y-69513553D02*
G01*
X149573101Y-69539631D01*
X149547023Y-69513553D01*
X149573101Y-69487475D01*
X149599179Y-69513553D01*
G37*
G36*
X147131481Y-72389748D02*
G01*
X147121766Y-72408214D01*
X147072624Y-72458023D01*
X147063454Y-72460370D01*
X147059895Y-72426680D01*
X147069610Y-72408214D01*
X147118752Y-72358405D01*
X147127922Y-72356058D01*
X147131481Y-72389748D01*
G37*
G36*
X151089074Y-71080392D02*
G01*
X151080082Y-71126032D01*
X151031722Y-71191559D01*
X150979922Y-71206517D01*
X150962726Y-71163942D01*
X150967189Y-71146689D01*
X151031020Y-71072714D01*
X151049804Y-71064097D01*
X151089074Y-71080392D01*
G37*
G36*
X148601856Y-72961124D02*
G01*
X148608214Y-73002428D01*
X148565971Y-73081994D01*
X148525714Y-73106740D01*
X148432173Y-73135802D01*
X148401374Y-73117420D01*
X148399589Y-73096674D01*
X148432237Y-73027419D01*
X148462177Y-72992362D01*
X148550719Y-72933909D01*
X148601856Y-72961124D01*
G37*
G36*
X149633406Y-72283698D02*
G01*
X149625257Y-72303902D01*
X149578389Y-72353658D01*
X149570023Y-72356058D01*
X149547621Y-72315705D01*
X149547023Y-72303902D01*
X149587118Y-72253750D01*
X149602257Y-72251746D01*
X149633406Y-72283698D01*
G37*
G36*
X149315998Y-71513240D02*
G01*
X149323133Y-71539473D01*
X149358084Y-71599444D01*
X149440164Y-71621872D01*
X149577863Y-71617331D01*
X149715849Y-71614311D01*
X149797899Y-71627880D01*
X149807803Y-71638536D01*
X149760877Y-71661069D01*
X149640898Y-71675367D01*
X149547023Y-71678029D01*
X149392225Y-71673507D01*
X149315888Y-71652041D01*
X149292285Y-71601777D01*
X149292292Y-71560678D01*
X149300307Y-71487140D01*
X149315998Y-71513240D01*
G37*
G36*
X150225051Y-71495483D02*
G01*
X150198973Y-71521561D01*
X150172895Y-71495483D01*
X150198973Y-71469405D01*
X150225051Y-71495483D01*
G37*
G36*
X149433949Y-71180006D02*
G01*
X149442710Y-71199932D01*
X149400342Y-71238527D01*
X149364476Y-71243395D01*
X149295004Y-71219857D01*
X149286242Y-71199932D01*
X149328610Y-71161336D01*
X149364476Y-71156468D01*
X149433949Y-71180006D01*
G37*
G36*
X151000470Y-71545578D02*
G01*
X150997613Y-71576977D01*
X150931579Y-71656019D01*
X150906340Y-71668250D01*
X150857847Y-71654012D01*
X150860703Y-71622613D01*
X150926737Y-71543571D01*
X150951976Y-71531340D01*
X151000470Y-71545578D01*
G37*
G36*
X151368466Y-71915115D02*
G01*
X151372485Y-71932653D01*
X151334424Y-72006385D01*
X151320329Y-72017043D01*
X151272191Y-72014659D01*
X151268173Y-71997121D01*
X151306234Y-71923390D01*
X151320329Y-71912731D01*
X151368466Y-71915115D01*
G37*
G36*
X148173580Y-72529911D02*
G01*
X148166420Y-72560918D01*
X148138809Y-72564682D01*
X148095879Y-72545599D01*
X148104038Y-72529911D01*
X148165935Y-72523669D01*
X148173580Y-72529911D01*
G37*
G36*
X149547023Y-72121355D02*
G01*
X149520945Y-72147433D01*
X149494867Y-72121355D01*
X149520945Y-72095277D01*
X149547023Y-72121355D01*
G37*
G36*
X150381520Y-70400206D02*
G01*
X150355441Y-70426284D01*
X150329363Y-70400206D01*
X150355441Y-70374128D01*
X150381520Y-70400206D01*
G37*
G36*
X149286242Y-69878645D02*
G01*
X149260164Y-69904723D01*
X149234086Y-69878645D01*
X149260164Y-69852567D01*
X149286242Y-69878645D01*
G37*
G36*
X149878727Y-72913772D02*
G01*
X149880443Y-72973677D01*
X149823129Y-73043181D01*
X149740746Y-73084628D01*
X149723183Y-73086243D01*
X149657961Y-73056969D01*
X149651335Y-73035921D01*
X149690990Y-72974029D01*
X149776644Y-72921241D01*
X149858327Y-72904399D01*
X149878727Y-72913772D01*
G37*
G36*
X150520602Y-69922108D02*
G01*
X150526844Y-69984005D01*
X150520602Y-69991650D01*
X150489596Y-69984490D01*
X150485832Y-69956879D01*
X150504915Y-69913949D01*
X150520602Y-69922108D01*
G37*
G36*
X149946548Y-72127412D02*
G01*
X149938193Y-72147433D01*
X149869101Y-72197642D01*
X149853803Y-72199590D01*
X149825526Y-72167455D01*
X149833881Y-72147433D01*
X149902973Y-72097225D01*
X149918271Y-72095277D01*
X149946548Y-72127412D01*
G37*
G36*
X149181930Y-69774333D02*
G01*
X149155852Y-69800411D01*
X149129774Y-69774333D01*
X149155852Y-69748255D01*
X149181930Y-69774333D01*
G37*
G36*
X148451745Y-70452362D02*
G01*
X148425667Y-70478440D01*
X148399589Y-70452362D01*
X148425667Y-70426284D01*
X148451745Y-70452362D01*
G37*
G36*
X150829753Y-72068406D02*
G01*
X150824846Y-72095277D01*
X150758167Y-72145444D01*
X150743534Y-72147433D01*
X150695861Y-72107652D01*
X150694456Y-72095277D01*
X150736909Y-72049505D01*
X150775768Y-72043121D01*
X150829753Y-72068406D01*
G37*
G36*
X149218106Y-71542184D02*
G01*
X149217564Y-71547639D01*
X149197098Y-71608651D01*
X149134521Y-71641194D01*
X149004326Y-71654655D01*
X148920661Y-71656925D01*
X148634292Y-71661899D01*
X148904789Y-71641276D01*
X149083262Y-71616474D01*
X149177413Y-71571972D01*
X149201692Y-71531989D01*
X149219567Y-71486744D01*
X149218106Y-71542184D01*
G37*
G36*
X148451745Y-72538604D02*
G01*
X148425667Y-72564682D01*
X148399589Y-72538604D01*
X148425667Y-72512526D01*
X148451745Y-72538604D01*
G37*
G36*
X143938772Y-68744251D02*
G01*
X143910375Y-68897593D01*
X143891894Y-69018148D01*
X143890567Y-69030047D01*
X143859775Y-69130629D01*
X143838198Y-69160437D01*
X143817837Y-69145056D01*
X143826079Y-69041553D01*
X143861450Y-68861687D01*
X143891224Y-68737296D01*
X143925477Y-68600822D01*
X143584323Y-68600822D01*
X143393307Y-68605782D01*
X143282779Y-68624551D01*
X143229220Y-68662960D01*
X143216234Y-68692095D01*
X143193022Y-68781480D01*
X143153450Y-68944312D01*
X143104330Y-69152332D01*
X143079221Y-69260541D01*
X143017224Y-69507194D01*
X142957712Y-69665798D01*
X142885815Y-69751166D01*
X142786667Y-69778109D01*
X142645399Y-69761438D01*
X142588637Y-69749258D01*
X142463466Y-69733574D01*
X142390970Y-69768696D01*
X142357520Y-69872297D01*
X142349487Y-70059374D01*
X142360464Y-70178804D01*
X142405639Y-70255470D01*
X142503377Y-70298586D01*
X142672041Y-70317367D01*
X142871047Y-70321064D01*
X143150508Y-70286545D01*
X143378052Y-70187998D01*
X143533971Y-70034558D01*
X143550651Y-70006091D01*
X143594611Y-69934447D01*
X143631452Y-69937098D01*
X143689656Y-70020836D01*
X143702981Y-70042418D01*
X143886748Y-70269326D01*
X144103567Y-70402168D01*
X144185852Y-70427095D01*
X144288715Y-70454271D01*
X144295001Y-70467627D01*
X144226173Y-70473101D01*
X144101294Y-70447565D01*
X143949469Y-70377297D01*
X143903918Y-70348697D01*
X143776818Y-70242713D01*
X143690308Y-70134877D01*
X143676917Y-70105317D01*
X143640850Y-69991679D01*
X143555846Y-70099039D01*
X143386932Y-70236724D01*
X143148669Y-70330224D01*
X142868558Y-70374098D01*
X142574099Y-70362904D01*
X142401643Y-70327399D01*
X142325010Y-70285923D01*
X142287301Y-70203375D01*
X142286143Y-70061587D01*
X142319167Y-69842391D01*
X142330582Y-69782999D01*
X142353361Y-69701073D01*
X142396133Y-69662582D01*
X142482515Y-69663862D01*
X142636125Y-69701252D01*
X142714579Y-69723463D01*
X142797688Y-69728375D01*
X142866859Y-69681533D01*
X142929326Y-69570048D01*
X142992321Y-69381036D01*
X143062674Y-69103343D01*
X143192688Y-68548666D01*
X143977933Y-68548666D01*
X143938772Y-68744251D01*
G37*
G36*
X149633949Y-69661328D02*
G01*
X149640191Y-69723225D01*
X149633949Y-69730869D01*
X149602943Y-69723710D01*
X149599179Y-69696099D01*
X149618262Y-69653168D01*
X149633949Y-69661328D01*
G37*
G36*
X150746014Y-70153700D02*
G01*
X150746612Y-70165503D01*
X150706517Y-70215655D01*
X150691378Y-70217659D01*
X150660228Y-70185707D01*
X150668378Y-70165503D01*
X150715246Y-70115747D01*
X150723612Y-70113347D01*
X150746014Y-70153700D01*
G37*
G36*
X150068583Y-69565709D02*
G01*
X150042505Y-69591787D01*
X150016427Y-69565709D01*
X150042505Y-69539631D01*
X150068583Y-69565709D01*
G37*
G36*
X149129774Y-70087269D02*
G01*
X149103696Y-70113347D01*
X149077618Y-70087269D01*
X149103696Y-70061191D01*
X149129774Y-70087269D01*
G37*
G36*
X150485832Y-70921766D02*
G01*
X150459754Y-70947844D01*
X150433676Y-70921766D01*
X150459754Y-70895688D01*
X150485832Y-70921766D01*
G37*
G36*
X150328765Y-69997232D02*
G01*
X150329363Y-70009035D01*
X150289268Y-70059187D01*
X150274129Y-70061191D01*
X150242980Y-70029238D01*
X150251129Y-70009035D01*
X150297997Y-69959279D01*
X150306364Y-69956879D01*
X150328765Y-69997232D01*
G37*
G36*
X151041620Y-70145300D02*
G01*
X151033470Y-70165503D01*
X150986602Y-70215259D01*
X150978236Y-70217659D01*
X150955834Y-70177307D01*
X150955236Y-70165503D01*
X150995331Y-70115351D01*
X151010470Y-70113347D01*
X151041620Y-70145300D01*
G37*
G36*
X151163860Y-69826489D02*
G01*
X151137782Y-69852567D01*
X151111704Y-69826489D01*
X151137782Y-69800411D01*
X151163860Y-69826489D01*
G37*
G36*
X150172895Y-71339015D02*
G01*
X150146817Y-71365093D01*
X150120739Y-71339015D01*
X150146817Y-71312937D01*
X150172895Y-71339015D01*
G37*
G36*
X150533969Y-71132775D02*
G01*
X150537988Y-71150312D01*
X150499927Y-71224044D01*
X150485832Y-71234702D01*
X150437694Y-71232318D01*
X150433676Y-71214781D01*
X150471737Y-71141049D01*
X150485832Y-71130390D01*
X150533969Y-71132775D01*
G37*
G36*
X147340105Y-72546216D02*
G01*
X147330390Y-72564682D01*
X147281248Y-72614491D01*
X147272078Y-72616838D01*
X147268519Y-72583148D01*
X147278234Y-72564682D01*
X147327376Y-72514873D01*
X147336546Y-72512526D01*
X147340105Y-72546216D01*
G37*
G36*
X149286242Y-72225668D02*
G01*
X149260164Y-72251746D01*
X149234086Y-72225668D01*
X149260164Y-72199590D01*
X149286242Y-72225668D01*
G37*
G36*
X151946201Y-70348049D02*
G01*
X151920123Y-70374128D01*
X151894045Y-70348049D01*
X151920123Y-70321971D01*
X151946201Y-70348049D01*
G37*
G36*
X146706460Y-70853460D02*
G01*
X146751923Y-70883614D01*
X146745708Y-70947844D01*
X146711042Y-71038158D01*
X146685110Y-71037083D01*
X146678439Y-70977387D01*
X146633107Y-70915802D01*
X146535010Y-70880889D01*
X146458888Y-70866429D01*
X146476674Y-70857550D01*
X146582284Y-70851347D01*
X146706460Y-70853460D01*
G37*
G36*
X150641702Y-70988197D02*
G01*
X150642300Y-71000000D01*
X150602205Y-71050152D01*
X150587066Y-71052156D01*
X150555916Y-71020203D01*
X150564066Y-71000000D01*
X150610934Y-70950244D01*
X150619300Y-70947844D01*
X150641702Y-70988197D01*
G37*
G36*
X149373169Y-72790692D02*
G01*
X149371037Y-72848754D01*
X149318539Y-72925619D01*
X149248869Y-72977648D01*
X149227700Y-72981930D01*
X149182444Y-72942998D01*
X149181930Y-72936161D01*
X149216119Y-72868121D01*
X149289593Y-72806261D01*
X149358713Y-72783775D01*
X149373169Y-72790692D01*
G37*
G36*
X151059548Y-69722177D02*
G01*
X151033470Y-69748255D01*
X151007392Y-69722177D01*
X151033470Y-69696099D01*
X151059548Y-69722177D01*
G37*
G36*
X147913821Y-72494060D02*
G01*
X147904107Y-72512526D01*
X147854965Y-72562335D01*
X147845795Y-72564682D01*
X147842236Y-72530992D01*
X147851951Y-72512526D01*
X147901093Y-72462717D01*
X147910263Y-72460370D01*
X147913821Y-72494060D01*
G37*
G36*
X150208558Y-72166556D02*
G01*
X150213871Y-72171023D01*
X150207623Y-72224933D01*
X150152756Y-72299061D01*
X150084052Y-72350976D01*
X150062197Y-72356058D01*
X150020746Y-72314123D01*
X150016427Y-72283404D01*
X150054633Y-72213141D01*
X150135535Y-72164596D01*
X150208558Y-72166556D01*
G37*
G36*
X147250568Y-71507362D02*
G01*
X147270154Y-71545389D01*
X147283500Y-71618880D01*
X147248463Y-71604616D01*
X147223933Y-71570247D01*
X147207902Y-71501984D01*
X147214412Y-71489763D01*
X147250568Y-71507362D01*
G37*
G36*
X147860643Y-72738535D02*
G01*
X147853484Y-72769542D01*
X147825873Y-72773306D01*
X147782942Y-72754223D01*
X147791102Y-72738535D01*
X147852999Y-72732293D01*
X147860643Y-72738535D01*
G37*
G36*
X147700413Y-73256334D02*
G01*
X147703518Y-73318626D01*
X147646995Y-73393840D01*
X147563073Y-73445465D01*
X147528282Y-73451335D01*
X147472082Y-73419158D01*
X147472577Y-73389866D01*
X147529916Y-73311609D01*
X147618055Y-73256333D01*
X147692171Y-73250311D01*
X147700413Y-73256334D01*
G37*
G36*
X151684823Y-71614070D02*
G01*
X151685421Y-71625873D01*
X151645326Y-71676025D01*
X151630187Y-71678029D01*
X151599037Y-71646076D01*
X151607187Y-71625873D01*
X151654055Y-71576117D01*
X151662421Y-71573717D01*
X151684823Y-71614070D01*
G37*
G36*
X150016427Y-71651951D02*
G01*
X149990349Y-71678029D01*
X149964271Y-71651951D01*
X149990349Y-71625873D01*
X150016427Y-71651951D01*
G37*
G36*
X151043185Y-70303505D02*
G01*
X151033470Y-70321971D01*
X150984328Y-70371781D01*
X150975158Y-70374128D01*
X150971600Y-70340437D01*
X150981314Y-70321971D01*
X151030456Y-70272162D01*
X151039626Y-70269815D01*
X151043185Y-70303505D01*
G37*
G36*
X151928816Y-71226010D02*
G01*
X151935058Y-71287907D01*
X151928816Y-71295551D01*
X151897809Y-71288392D01*
X151894045Y-71260780D01*
X151913128Y-71217850D01*
X151928816Y-71226010D01*
G37*
G36*
X151057283Y-70468873D02*
G01*
X151059548Y-70504518D01*
X151032253Y-70573938D01*
X151009029Y-70582752D01*
X150980332Y-70544521D01*
X150988531Y-70504518D01*
X151025551Y-70435893D01*
X151039050Y-70426284D01*
X151057283Y-70468873D01*
G37*
G36*
X149329924Y-70629404D02*
G01*
X149312179Y-70739865D01*
X149293259Y-70849126D01*
X149313831Y-70877627D01*
X149381973Y-70848125D01*
X149554330Y-70794967D01*
X149699970Y-70823594D01*
X149756237Y-70870321D01*
X149789911Y-70937862D01*
X149793211Y-71041735D01*
X149766084Y-71210370D01*
X149755496Y-71261491D01*
X149715563Y-71433674D01*
X149677637Y-71527174D01*
X149624790Y-71565886D01*
X149540094Y-71573708D01*
X149534316Y-71573717D01*
X149425763Y-71559336D01*
X149404279Y-71510707D01*
X149407994Y-71499187D01*
X149436447Y-71399746D01*
X149468448Y-71254426D01*
X149472379Y-71233908D01*
X149490268Y-71109875D01*
X149470845Y-71060422D01*
X149400337Y-71058507D01*
X149384164Y-71060697D01*
X149297138Y-71096816D01*
X149231306Y-71192261D01*
X149181930Y-71325702D01*
X149127357Y-71475316D01*
X149072066Y-71548927D01*
X148992606Y-71572336D01*
X148956752Y-71573443D01*
X148855173Y-71563015D01*
X148833422Y-71514082D01*
X148848574Y-71456366D01*
X148879999Y-71347274D01*
X148925138Y-71174033D01*
X148974223Y-70974127D01*
X148974272Y-70973922D01*
X149023144Y-70782961D01*
X149065519Y-70671344D01*
X149115253Y-70616110D01*
X149186200Y-70594294D01*
X149204813Y-70591843D01*
X149301271Y-70588376D01*
X149329924Y-70629404D01*
G37*
G36*
X147838912Y-71640299D02*
G01*
X147878276Y-71650526D01*
X147825028Y-71658007D01*
X147690857Y-71661292D01*
X147669405Y-71661335D01*
X147526116Y-71658665D01*
X147462316Y-71651620D01*
X147489695Y-71641652D01*
X147499897Y-71640299D01*
X147682783Y-71631668D01*
X147838912Y-71640299D01*
G37*
G36*
X151190921Y-70881763D02*
G01*
X151182721Y-70921766D01*
X151145702Y-70990391D01*
X151132202Y-71000000D01*
X151113970Y-70957410D01*
X151111704Y-70921766D01*
X151138999Y-70852345D01*
X151162223Y-70843532D01*
X151190921Y-70881763D01*
G37*
G36*
X146135531Y-72213013D02*
G01*
X146121478Y-72260241D01*
X146079905Y-72302856D01*
X146014325Y-72336490D01*
X146000411Y-72313366D01*
X146033000Y-72245038D01*
X146097751Y-72204858D01*
X146135531Y-72213013D01*
G37*
G36*
X148486179Y-72753285D02*
G01*
X148477823Y-72773306D01*
X148408732Y-72823515D01*
X148393433Y-72825462D01*
X148365156Y-72793327D01*
X148373511Y-72773306D01*
X148442603Y-72723097D01*
X148457902Y-72721150D01*
X148486179Y-72753285D01*
G37*
G36*
X146417659Y-71808419D02*
G01*
X146391581Y-71834497D01*
X146365503Y-71808419D01*
X146391581Y-71782341D01*
X146417659Y-71808419D01*
G37*
G36*
X146453288Y-70677285D02*
G01*
X146459505Y-70758798D01*
X146449170Y-70777250D01*
X146425465Y-70761695D01*
X146421777Y-70708796D01*
X146434514Y-70653143D01*
X146453288Y-70677285D01*
G37*
G36*
X150590144Y-70608830D02*
G01*
X150564066Y-70634908D01*
X150537988Y-70608830D01*
X150564066Y-70582752D01*
X150590144Y-70608830D01*
G37*
G36*
X150050655Y-71866450D02*
G01*
X150042505Y-71886653D01*
X149995637Y-71936409D01*
X149987271Y-71938809D01*
X149964869Y-71898457D01*
X149964271Y-71886653D01*
X150004366Y-71836501D01*
X150019505Y-71834497D01*
X150050655Y-71866450D01*
G37*
G36*
X151772348Y-70913073D02*
G01*
X151778590Y-70974970D01*
X151772348Y-70982615D01*
X151741341Y-70975455D01*
X151737577Y-70947844D01*
X151756660Y-70904914D01*
X151772348Y-70913073D01*
G37*
G36*
X151581109Y-70035113D02*
G01*
X151555031Y-70061191D01*
X151528953Y-70035113D01*
X151555031Y-70009035D01*
X151581109Y-70035113D01*
G37*
G36*
X152085284Y-70913073D02*
G01*
X152091526Y-70974970D01*
X152085284Y-70982615D01*
X152054277Y-70975455D01*
X152050513Y-70947844D01*
X152069596Y-70904914D01*
X152085284Y-70913073D01*
G37*
G36*
X147599320Y-72648791D02*
G01*
X147591170Y-72668994D01*
X147544303Y-72718750D01*
X147535936Y-72721150D01*
X147513534Y-72680797D01*
X147512936Y-72668994D01*
X147553031Y-72618842D01*
X147568171Y-72616838D01*
X147599320Y-72648791D01*
G37*
G36*
X148960152Y-70634908D02*
G01*
X148897713Y-70698781D01*
X148812753Y-70722772D01*
X148736521Y-70725604D01*
X148760090Y-70712514D01*
X148790760Y-70703700D01*
X148897588Y-70652832D01*
X148938160Y-70615835D01*
X148966517Y-70594097D01*
X148960152Y-70634908D01*
G37*
G36*
X151084165Y-72247420D02*
G01*
X151064541Y-72271808D01*
X150984542Y-72340600D01*
X150924657Y-72350706D01*
X150913794Y-72298415D01*
X150916095Y-72290863D01*
X150980060Y-72227031D01*
X151036132Y-72206613D01*
X151102558Y-72202743D01*
X151084165Y-72247420D01*
G37*
G36*
X150506358Y-71976721D02*
G01*
X150504603Y-72034217D01*
X150451999Y-72105990D01*
X150383344Y-72146769D01*
X150375133Y-72147433D01*
X150333682Y-72105499D01*
X150329363Y-72074779D01*
X150367033Y-72000518D01*
X150445512Y-71960935D01*
X150506358Y-71976721D01*
G37*
G36*
X148712526Y-72538604D02*
G01*
X148686448Y-72564682D01*
X148660370Y-72538604D01*
X148686448Y-72512526D01*
X148712526Y-72538604D01*
G37*
G36*
X151355957Y-71042377D02*
G01*
X151362175Y-71123891D01*
X151351840Y-71142343D01*
X151328134Y-71126788D01*
X151324446Y-71073888D01*
X151337184Y-71018236D01*
X151355957Y-71042377D01*
G37*
G36*
X150260844Y-71659563D02*
G01*
X150251129Y-71678029D01*
X150201987Y-71727838D01*
X150192817Y-71730185D01*
X150189259Y-71696495D01*
X150198973Y-71678029D01*
X150248116Y-71628220D01*
X150257286Y-71625873D01*
X150260844Y-71659563D01*
G37*
G36*
X147917146Y-71276984D02*
G01*
X147933378Y-71292101D01*
X147861260Y-71300332D01*
X147825873Y-71300836D01*
X147730984Y-71295399D01*
X147719801Y-71281860D01*
X147734600Y-71276984D01*
X147866879Y-71268873D01*
X147917146Y-71276984D01*
G37*
G36*
X150381520Y-70817454D02*
G01*
X150355441Y-70843532D01*
X150329363Y-70817454D01*
X150355441Y-70791376D01*
X150381520Y-70817454D01*
G37*
G36*
X144522656Y-69504860D02*
G01*
X144528898Y-69566757D01*
X144522656Y-69574401D01*
X144491649Y-69567242D01*
X144487885Y-69539631D01*
X144506968Y-69496700D01*
X144522656Y-69504860D01*
G37*
G36*
X150886553Y-70885909D02*
G01*
X150892770Y-70967422D01*
X150882435Y-70985875D01*
X150858729Y-70970320D01*
X150855042Y-70917420D01*
X150867779Y-70861768D01*
X150886553Y-70885909D01*
G37*
G36*
X150381520Y-70660986D02*
G01*
X150355441Y-70687064D01*
X150329363Y-70660986D01*
X150355441Y-70634908D01*
X150381520Y-70660986D01*
G37*
G36*
X150207123Y-69936676D02*
G01*
X150198973Y-69956879D01*
X150152106Y-70006635D01*
X150143739Y-70009035D01*
X150121337Y-69968682D01*
X150120739Y-69956879D01*
X150160834Y-69906727D01*
X150175973Y-69904723D01*
X150207123Y-69936676D01*
G37*
G36*
X146462893Y-72693011D02*
G01*
X146460036Y-72724410D01*
X146394002Y-72803452D01*
X146368763Y-72815683D01*
X146320270Y-72801445D01*
X146323126Y-72770046D01*
X146389160Y-72691004D01*
X146414399Y-72678773D01*
X146462893Y-72693011D01*
G37*
G36*
X149774415Y-72652991D02*
G01*
X149776131Y-72712896D01*
X149718817Y-72782401D01*
X149636434Y-72823847D01*
X149618870Y-72825462D01*
X149553649Y-72796189D01*
X149547023Y-72775141D01*
X149586678Y-72713249D01*
X149672332Y-72660460D01*
X149754015Y-72643618D01*
X149774415Y-72652991D01*
G37*
G36*
X146209035Y-69229058D02*
G01*
X146200719Y-69335858D01*
X146154445Y-69370746D01*
X146039528Y-69358342D01*
X145898127Y-69352483D01*
X145793044Y-69379460D01*
X145791786Y-69380270D01*
X145755467Y-69423486D01*
X145783963Y-69481930D01*
X145887748Y-69577312D01*
X146003586Y-69693378D01*
X146045788Y-69800389D01*
X146044216Y-69873838D01*
X145976871Y-70032995D01*
X145829379Y-70154308D01*
X145621904Y-70228549D01*
X145374610Y-70246491D01*
X145257187Y-70233981D01*
X145152200Y-70197420D01*
X145115898Y-70111327D01*
X145113758Y-70058725D01*
X145119370Y-69965460D01*
X145155098Y-69926260D01*
X145249276Y-69926103D01*
X145341583Y-69937945D01*
X145515763Y-69946421D01*
X145595720Y-69910421D01*
X145582079Y-69828886D01*
X145479220Y-69704493D01*
X145353937Y-69531509D01*
X145325963Y-69372013D01*
X145388344Y-69236411D01*
X145534121Y-69135114D01*
X145756339Y-69078529D01*
X145903132Y-69070226D01*
X146209035Y-69070226D01*
X146209035Y-69229058D01*
G37*
G36*
X150068583Y-69722177D02*
G01*
X150042505Y-69748255D01*
X150016427Y-69722177D01*
X150042505Y-69696099D01*
X150068583Y-69722177D01*
G37*
G36*
X147390390Y-70857869D02*
G01*
X147385119Y-70891525D01*
X147327842Y-70929898D01*
X147309401Y-70924911D01*
X147268100Y-70940819D01*
X147262136Y-70963177D01*
X147236188Y-71138327D01*
X147202793Y-71304556D01*
X147167204Y-71444685D01*
X147134675Y-71541532D01*
X147110460Y-71577916D01*
X147099812Y-71536656D01*
X147100695Y-71491136D01*
X147125998Y-71286104D01*
X147175163Y-71093833D01*
X147238446Y-70942239D01*
X147306099Y-70859238D01*
X147323754Y-70852228D01*
X147390390Y-70857869D01*
G37*
G36*
X150573780Y-70303505D02*
G01*
X150564066Y-70321971D01*
X150514924Y-70371781D01*
X150505753Y-70374128D01*
X150502195Y-70340437D01*
X150511910Y-70321971D01*
X150561052Y-70272162D01*
X150570222Y-70269815D01*
X150573780Y-70303505D01*
G37*
G36*
X148921150Y-70139425D02*
G01*
X148895072Y-70165503D01*
X148868994Y-70139425D01*
X148895072Y-70113347D01*
X148921150Y-70139425D01*
G37*
G36*
X151615880Y-70287201D02*
G01*
X151608720Y-70318207D01*
X151581109Y-70321971D01*
X151538179Y-70302888D01*
X151546338Y-70287201D01*
X151608235Y-70280959D01*
X151615880Y-70287201D01*
G37*
G36*
X150417312Y-69834101D02*
G01*
X150407598Y-69852567D01*
X150358455Y-69902376D01*
X150349285Y-69904723D01*
X150345727Y-69871033D01*
X150355441Y-69852567D01*
X150404584Y-69802758D01*
X150413754Y-69800411D01*
X150417312Y-69834101D01*
G37*
G36*
X148831056Y-70846510D02*
G01*
X148868994Y-70947201D01*
X148849695Y-71023266D01*
X148772733Y-71029367D01*
X148746101Y-71023300D01*
X148607603Y-71035181D01*
X148498104Y-71123223D01*
X148451801Y-71259403D01*
X148451745Y-71264506D01*
X148477020Y-71337564D01*
X148570009Y-71363908D01*
X148613794Y-71365093D01*
X148724360Y-71376692D01*
X148751806Y-71419684D01*
X148744184Y-71447592D01*
X148716569Y-71530735D01*
X148712526Y-71551905D01*
X148665887Y-71564961D01*
X148547994Y-71572753D01*
X148479658Y-71573717D01*
X148315157Y-71560515D01*
X148222544Y-71513905D01*
X148192800Y-71472834D01*
X148147744Y-71361928D01*
X148150822Y-71255440D01*
X148205204Y-71111169D01*
X148222813Y-71073443D01*
X148318181Y-70946052D01*
X148451317Y-70854852D01*
X148597592Y-70804654D01*
X148732380Y-70800270D01*
X148831056Y-70846510D01*
G37*
G36*
X150730249Y-70825066D02*
G01*
X150720534Y-70843532D01*
X150671392Y-70893341D01*
X150662222Y-70895688D01*
X150658663Y-70861998D01*
X150668378Y-70843532D01*
X150717520Y-70793723D01*
X150726690Y-70791376D01*
X150730249Y-70825066D01*
G37*
G36*
X145053635Y-69808106D02*
G01*
X144986356Y-69882909D01*
X144933001Y-69937546D01*
X144950399Y-69956879D01*
X144990542Y-69987447D01*
X144982842Y-70009886D01*
X144917643Y-70037237D01*
X144893471Y-70027905D01*
X144861319Y-70025740D01*
X144871494Y-70048956D01*
X144858616Y-70115184D01*
X144781267Y-70202827D01*
X144768207Y-70213483D01*
X144657386Y-70284019D01*
X144561606Y-70319313D01*
X144507033Y-70313566D01*
X144513963Y-70269815D01*
X144583564Y-70219598D01*
X144599001Y-70217659D01*
X144696423Y-70170793D01*
X144781366Y-70050030D01*
X144817652Y-69949076D01*
X144873074Y-69834582D01*
X144938226Y-69778858D01*
X145034416Y-69765040D01*
X145053635Y-69808106D01*
G37*
G36*
X151005127Y-70677498D02*
G01*
X151007392Y-70713142D01*
X150980097Y-70782563D01*
X150956873Y-70791376D01*
X150928176Y-70753145D01*
X150936375Y-70713142D01*
X150973395Y-70644517D01*
X150986894Y-70634908D01*
X151005127Y-70677498D01*
G37*
G36*
X151511567Y-69765640D02*
G01*
X151517809Y-69827537D01*
X151511567Y-69835182D01*
X151480561Y-69828022D01*
X151476797Y-69800411D01*
X151495880Y-69757481D01*
X151511567Y-69765640D01*
G37*
G36*
X146104125Y-71301133D02*
G01*
X146104723Y-71312937D01*
X146064628Y-71363088D01*
X146049489Y-71365093D01*
X146018339Y-71333140D01*
X146026489Y-71312937D01*
X146073357Y-71263181D01*
X146081723Y-71260780D01*
X146104125Y-71301133D01*
G37*
G36*
X146035181Y-71956195D02*
G01*
X146028022Y-71987201D01*
X146000411Y-71990965D01*
X145957480Y-71971882D01*
X145965640Y-71956195D01*
X146027537Y-71949953D01*
X146035181Y-71956195D01*
G37*
G36*
X148800474Y-72337592D02*
G01*
X148790760Y-72356058D01*
X148741618Y-72405867D01*
X148732448Y-72408214D01*
X148728889Y-72374524D01*
X148738604Y-72356058D01*
X148787746Y-72306249D01*
X148796916Y-72303902D01*
X148800474Y-72337592D01*
G37*
G36*
X145992415Y-70249748D02*
G01*
X145898689Y-70294554D01*
X145759394Y-70338360D01*
X145568152Y-70364843D01*
X145363322Y-70372568D01*
X145183261Y-70360099D01*
X145066329Y-70326002D01*
X145065873Y-70325715D01*
X144957437Y-70316398D01*
X144871465Y-70357819D01*
X144764431Y-70412427D01*
X144635133Y-70458662D01*
X144513583Y-70488993D01*
X144429792Y-70495886D01*
X144413097Y-70472864D01*
X144482249Y-70436447D01*
X144565196Y-70426284D01*
X144683241Y-70393515D01*
X144821966Y-70312209D01*
X144854667Y-70286468D01*
X144962449Y-70202430D01*
X145022414Y-70183151D01*
X145062635Y-70221828D01*
X145069884Y-70234312D01*
X145127773Y-70287010D01*
X145241937Y-70314311D01*
X145431876Y-70321971D01*
X145722890Y-70293516D01*
X145944589Y-70214111D01*
X146089865Y-70092701D01*
X146151611Y-69938232D01*
X146122721Y-69759646D01*
X146015184Y-69587863D01*
X145955683Y-69517150D01*
X146086281Y-69517150D01*
X146092860Y-69568146D01*
X146108244Y-69598367D01*
X146174609Y-69662320D01*
X146238928Y-69654409D01*
X146261191Y-69594792D01*
X146217857Y-69548518D01*
X146157784Y-69524755D01*
X146086281Y-69517150D01*
X145955683Y-69517150D01*
X145873488Y-69419468D01*
X146060952Y-69454636D01*
X146188298Y-69469955D01*
X146250689Y-69442634D01*
X146280169Y-69371288D01*
X146312733Y-69175429D01*
X146282130Y-69053912D01*
X146195996Y-68998787D01*
X145944564Y-68964842D01*
X145697885Y-68989176D01*
X145482878Y-69064200D01*
X145326460Y-69182326D01*
X145277453Y-69257740D01*
X145226474Y-69406044D01*
X145239941Y-69525284D01*
X145325328Y-69658372D01*
X145353096Y-69692097D01*
X145431659Y-69798002D01*
X145436716Y-69846264D01*
X145409518Y-69852567D01*
X145251859Y-69819428D01*
X145174483Y-69723199D01*
X145230377Y-69723199D01*
X145283006Y-69783411D01*
X145331846Y-69800411D01*
X145352870Y-69770611D01*
X145321336Y-69720916D01*
X145257559Y-69666241D01*
X145231493Y-69665290D01*
X145230377Y-69723199D01*
X145174483Y-69723199D01*
X145173839Y-69722398D01*
X145165914Y-69661851D01*
X145141695Y-69523924D01*
X145085887Y-69379697D01*
X145021066Y-69277952D01*
X144958623Y-69257387D01*
X144903341Y-69279810D01*
X144828782Y-69345272D01*
X144801107Y-69416281D01*
X144824938Y-69459642D01*
X144879055Y-69454179D01*
X144948705Y-69395696D01*
X144958088Y-69364543D01*
X144980006Y-69348936D01*
X145009446Y-69383162D01*
X145054296Y-69494797D01*
X145060004Y-69539631D01*
X145052915Y-69591552D01*
X145017961Y-69552674D01*
X145009446Y-69539631D01*
X144971033Y-69497612D01*
X144958582Y-69549041D01*
X144958088Y-69574401D01*
X144929886Y-69682080D01*
X144863773Y-69714314D01*
X144784354Y-69679164D01*
X144716231Y-69584691D01*
X144688207Y-69485979D01*
X144660798Y-69406102D01*
X144588949Y-69367096D01*
X144450956Y-69352185D01*
X144273008Y-69364032D01*
X144163486Y-69432113D01*
X144107648Y-69572412D01*
X144091902Y-69741512D01*
X144085175Y-69918072D01*
X144076298Y-70013045D01*
X144060800Y-70049130D01*
X144034212Y-70049028D01*
X144031520Y-70048152D01*
X143976125Y-70072950D01*
X143967362Y-70087269D01*
X143992715Y-70141289D01*
X144086675Y-70211701D01*
X144123830Y-70232088D01*
X144220197Y-70285818D01*
X144221899Y-70300945D01*
X144174949Y-70291424D01*
X144057776Y-70237445D01*
X143928253Y-70144932D01*
X143818434Y-70041100D01*
X143760373Y-69953166D01*
X143757700Y-69937153D01*
X143783508Y-69931586D01*
X143836734Y-69986028D01*
X143889444Y-70047531D01*
X143900561Y-70028750D01*
X143881679Y-69930801D01*
X143839600Y-69773972D01*
X143801467Y-69716582D01*
X143763439Y-69754045D01*
X143753460Y-69777795D01*
X143732048Y-69800366D01*
X143724471Y-69725985D01*
X143726788Y-69643943D01*
X143766094Y-69392521D01*
X143863928Y-69209255D01*
X144034280Y-69067977D01*
X144034848Y-69067630D01*
X144138906Y-68994451D01*
X144150154Y-68966052D01*
X144073559Y-68990882D01*
X144008758Y-69023274D01*
X143934492Y-69053369D01*
X143936155Y-69024691D01*
X144019089Y-68966074D01*
X144019574Y-68965914D01*
X144633732Y-68965914D01*
X144635557Y-68991663D01*
X144706681Y-69056598D01*
X144753991Y-69091838D01*
X144890647Y-69184497D01*
X144951283Y-69215455D01*
X144933250Y-69184621D01*
X144837030Y-69094656D01*
X144726754Y-69010056D01*
X144643289Y-68967214D01*
X144633732Y-68965914D01*
X144019574Y-68965914D01*
X144066570Y-68950409D01*
X144311826Y-68950409D01*
X144383573Y-68957679D01*
X144457615Y-68949482D01*
X144448768Y-68931372D01*
X144341986Y-68924483D01*
X144318378Y-68931372D01*
X144311826Y-68950409D01*
X144066570Y-68950409D01*
X144165915Y-68917633D01*
X144336219Y-68888371D01*
X144489585Y-68887290D01*
X144525048Y-68893515D01*
X144809841Y-69001551D01*
X145011525Y-69167906D01*
X145059328Y-69235493D01*
X145156753Y-69395697D01*
X145243032Y-69228853D01*
X145381628Y-69059500D01*
X145589612Y-68958696D01*
X145872134Y-68924580D01*
X146061032Y-68933557D01*
X146408511Y-68965792D01*
X146443747Y-68757229D01*
X146478984Y-68548666D01*
X147249574Y-68548666D01*
X147198709Y-68682451D01*
X147156005Y-68820667D01*
X147175214Y-68889519D01*
X147271108Y-68912691D01*
X147343429Y-68914527D01*
X147512676Y-68932931D01*
X147659843Y-68976631D01*
X147668538Y-68980830D01*
X147776222Y-69056588D01*
X147838705Y-69162420D01*
X147857913Y-69314897D01*
X147835766Y-69530586D01*
X147774189Y-69826057D01*
X147769100Y-69847446D01*
X147643327Y-70373248D01*
X147265195Y-70373688D01*
X147081750Y-70372252D01*
X146947484Y-70368057D01*
X146888293Y-70361967D01*
X146887462Y-70361088D01*
X146901695Y-70308595D01*
X146938660Y-70183323D01*
X146990412Y-70012193D01*
X146991376Y-70009035D01*
X147058688Y-69776843D01*
X147090474Y-69632471D01*
X147087472Y-69565936D01*
X147050419Y-69567253D01*
X147022542Y-69587564D01*
X146974233Y-69666301D01*
X146916803Y-69815483D01*
X146862373Y-70003426D01*
X146860455Y-70011199D01*
X146771515Y-70374128D01*
X146412041Y-70374128D01*
X146216137Y-70369553D01*
X146104616Y-70352932D01*
X146057832Y-70319914D01*
X146052567Y-70294554D01*
X146050946Y-70287005D01*
X146123846Y-70287005D01*
X146179346Y-70311385D01*
X146309888Y-70321012D01*
X146410069Y-70321971D01*
X146726575Y-70321971D01*
X146783675Y-70100308D01*
X146846111Y-69870101D01*
X146901724Y-69687445D01*
X146944316Y-69571496D01*
X146965077Y-69539631D01*
X147022440Y-69523548D01*
X147065344Y-69507972D01*
X147127190Y-69511184D01*
X147145667Y-69589217D01*
X147120562Y-69748592D01*
X147051660Y-69995826D01*
X147049001Y-70004388D01*
X146950158Y-70321971D01*
X147596717Y-70321971D01*
X147716550Y-69824899D01*
X147765420Y-69597407D01*
X147797821Y-69396485D01*
X147809565Y-69251221D01*
X147805713Y-69205628D01*
X147726153Y-69086672D01*
X147572907Y-69005381D01*
X147373186Y-68972953D01*
X147256438Y-68979587D01*
X147054065Y-69006731D01*
X147100955Y-68843238D01*
X147135037Y-68710985D01*
X147128198Y-68638494D01*
X147061460Y-68607798D01*
X146915844Y-68600924D01*
X146844942Y-68600822D01*
X146542040Y-68600822D01*
X146348296Y-69381928D01*
X146279111Y-69658138D01*
X146216725Y-69902165D01*
X146166268Y-70094315D01*
X146132873Y-70214894D01*
X146124058Y-70242503D01*
X146123846Y-70287005D01*
X146050946Y-70287005D01*
X146042105Y-70245825D01*
X145992415Y-70249748D01*
G37*
G36*
X146400274Y-71538946D02*
G01*
X146393114Y-71569953D01*
X146365503Y-71573717D01*
X146322573Y-71554634D01*
X146330732Y-71538946D01*
X146392629Y-71532704D01*
X146400274Y-71538946D01*
G37*
G36*
X150687533Y-72484387D02*
G01*
X150684677Y-72515786D01*
X150618642Y-72594828D01*
X150593404Y-72607059D01*
X150544910Y-72592821D01*
X150547767Y-72561422D01*
X150613801Y-72482380D01*
X150639040Y-72470149D01*
X150687533Y-72484387D01*
G37*
G36*
X147010144Y-73070240D02*
G01*
X147011860Y-73130145D01*
X146954546Y-73199650D01*
X146872163Y-73241096D01*
X146854599Y-73242711D01*
X146789378Y-73213437D01*
X146782752Y-73192390D01*
X146822407Y-73130497D01*
X146908061Y-73077709D01*
X146989744Y-73060867D01*
X147010144Y-73070240D01*
G37*
G36*
X147354317Y-73211088D02*
G01*
X147319970Y-73300493D01*
X147302857Y-73322698D01*
X147209465Y-73394283D01*
X147134554Y-73365637D01*
X147123971Y-73350591D01*
X147139199Y-73289393D01*
X147211895Y-73219387D01*
X147312365Y-73177321D01*
X147354317Y-73211088D01*
G37*
G36*
X149790418Y-72008351D02*
G01*
X149783258Y-72039357D01*
X149755647Y-72043121D01*
X149712716Y-72024038D01*
X149720876Y-72008351D01*
X149782773Y-72002109D01*
X149790418Y-72008351D01*
G37*
G36*
X150798170Y-70310168D02*
G01*
X150798768Y-70321971D01*
X150758673Y-70372123D01*
X150743534Y-70374128D01*
X150712384Y-70342175D01*
X150720534Y-70321971D01*
X150767402Y-70272215D01*
X150775768Y-70269815D01*
X150798170Y-70310168D01*
G37*
G36*
X150160781Y-72479741D02*
G01*
X150161541Y-72520584D01*
X150095712Y-72589824D01*
X150045215Y-72608780D01*
X149976385Y-72597467D01*
X149975625Y-72556624D01*
X150041454Y-72487384D01*
X150091951Y-72468428D01*
X150160781Y-72479741D01*
G37*
G36*
X150693858Y-69736451D02*
G01*
X150694456Y-69748255D01*
X150654361Y-69798407D01*
X150639222Y-69800411D01*
X150608072Y-69768458D01*
X150616222Y-69748255D01*
X150663090Y-69698499D01*
X150671456Y-69696099D01*
X150693858Y-69736451D01*
G37*
G36*
X150460507Y-71775752D02*
G01*
X150413501Y-71829597D01*
X150335435Y-71862205D01*
X150304623Y-71836661D01*
X150314865Y-71775262D01*
X150354385Y-71749451D01*
X150446219Y-71735051D01*
X150460507Y-71775752D01*
G37*
G36*
X148964771Y-73224337D02*
G01*
X148963926Y-73295818D01*
X148906688Y-73360192D01*
X148890806Y-73367521D01*
X148765585Y-73397598D01*
X148713398Y-73366827D01*
X148712526Y-73357454D01*
X148753817Y-73276028D01*
X148843772Y-73207430D01*
X148905503Y-73190555D01*
X148964771Y-73224337D01*
G37*
G36*
X148541932Y-71698674D02*
G01*
X148526377Y-71722380D01*
X148473477Y-71726067D01*
X148417825Y-71713330D01*
X148441966Y-71694556D01*
X148523480Y-71688339D01*
X148541932Y-71698674D01*
G37*
G36*
X150537988Y-70765298D02*
G01*
X150511910Y-70791376D01*
X150485832Y-70765298D01*
X150511910Y-70739220D01*
X150537988Y-70765298D01*
G37*
G36*
X147327318Y-70479546D02*
G01*
X147498368Y-70484911D01*
X147600408Y-70497604D01*
X147651086Y-70520693D01*
X147668049Y-70557249D01*
X147669405Y-70582752D01*
X147696409Y-70661409D01*
X147794049Y-70686749D01*
X147814268Y-70687064D01*
X147970021Y-70717854D01*
X148079290Y-70771227D01*
X148168348Y-70822511D01*
X148247530Y-70821162D01*
X148365492Y-70765967D01*
X148369135Y-70764007D01*
X148500191Y-70710835D01*
X148601888Y-70698838D01*
X148612634Y-70701805D01*
X148637406Y-70725636D01*
X148576130Y-70735102D01*
X148457095Y-70769625D01*
X148333201Y-70843532D01*
X148233076Y-70919054D01*
X148173751Y-70932007D01*
X148111424Y-70880844D01*
X148068613Y-70834184D01*
X147958052Y-70758934D01*
X147801291Y-70745797D01*
X147778353Y-70747717D01*
X147652639Y-70753736D01*
X147603795Y-70728292D01*
X147605565Y-70655601D01*
X147607533Y-70645030D01*
X147630700Y-70523843D01*
X147050151Y-70540258D01*
X146818234Y-70543540D01*
X146630388Y-70539963D01*
X146507509Y-70530343D01*
X146469709Y-70517557D01*
X146518472Y-70502156D01*
X146650944Y-70489610D01*
X146846532Y-70481261D01*
X147069610Y-70478440D01*
X147327318Y-70479546D01*
G37*
G36*
X146961075Y-68709536D02*
G01*
X147019405Y-68733835D01*
X147022258Y-68797470D01*
X147010810Y-68848563D01*
X146967334Y-69004797D01*
X146931810Y-69112142D01*
X146906431Y-69194106D01*
X146933879Y-69197258D01*
X147003208Y-69151259D01*
X147130199Y-69100135D01*
X147302061Y-69074782D01*
X147477629Y-69076357D01*
X147615738Y-69106018D01*
X147658973Y-69132813D01*
X147704828Y-69212828D01*
X147717311Y-69339277D01*
X147695748Y-69528713D01*
X147639463Y-69797691D01*
X147630287Y-69836331D01*
X147539014Y-70217064D01*
X147311268Y-70217361D01*
X147171301Y-70212916D01*
X147111677Y-70189502D01*
X147108529Y-70132746D01*
X147116930Y-70100308D01*
X147190804Y-69825632D01*
X147230975Y-69633523D01*
X147239499Y-69508557D01*
X147218433Y-69435310D01*
X147207390Y-69421846D01*
X147138441Y-69387727D01*
X147038262Y-69418886D01*
X147002571Y-69438000D01*
X146912532Y-69511650D01*
X146840326Y-69633343D01*
X146771442Y-69828775D01*
X146760071Y-69867523D01*
X146659157Y-70217659D01*
X146232570Y-70217659D01*
X146416388Y-69462334D01*
X146600205Y-68707008D01*
X146822862Y-68706071D01*
X146961075Y-68709536D01*
G37*
G36*
X146504043Y-72075074D02*
G01*
X146495893Y-72095277D01*
X146449025Y-72145033D01*
X146440659Y-72147433D01*
X146418257Y-72107081D01*
X146417659Y-72095277D01*
X146457754Y-72045126D01*
X146472893Y-72043121D01*
X146504043Y-72075074D01*
G37*
G36*
X150268381Y-72749313D02*
G01*
X150277207Y-72773306D01*
X150234963Y-72819578D01*
X150198973Y-72825462D01*
X150129566Y-72797299D01*
X150120739Y-72773306D01*
X150162983Y-72727034D01*
X150198973Y-72721150D01*
X150268381Y-72749313D01*
G37*
G36*
X148225857Y-72999456D02*
G01*
X148226725Y-73000305D01*
X148223933Y-73057702D01*
X148171061Y-73134134D01*
X148101558Y-73186150D01*
X148080267Y-73190555D01*
X148039867Y-73148108D01*
X148034497Y-73110684D01*
X148072102Y-73033189D01*
X148152232Y-72986728D01*
X148225857Y-72999456D01*
G37*
G36*
X149442121Y-73068033D02*
G01*
X149430784Y-73139394D01*
X149377511Y-73202447D01*
X149360211Y-73211053D01*
X149266670Y-73240115D01*
X149235871Y-73221732D01*
X149234086Y-73200986D01*
X149271657Y-73125690D01*
X149349705Y-73054123D01*
X149400986Y-73034086D01*
X149442121Y-73068033D01*
G37*
G36*
X150901587Y-71350370D02*
G01*
X150903080Y-71362015D01*
X150865168Y-71432651D01*
X150850924Y-71443327D01*
X150806273Y-71431503D01*
X150798768Y-71394249D01*
X150825999Y-71322888D01*
X150850924Y-71312937D01*
X150901587Y-71350370D01*
G37*
G36*
X151460269Y-70781597D02*
G01*
X151466487Y-70863110D01*
X151456152Y-70881562D01*
X151432446Y-70866008D01*
X151428758Y-70813108D01*
X151441496Y-70757455D01*
X151460269Y-70781597D01*
G37*
G36*
X148173242Y-72753285D02*
G01*
X148164887Y-72773306D01*
X148095795Y-72823515D01*
X148080497Y-72825462D01*
X148052220Y-72793327D01*
X148060575Y-72773306D01*
X148129667Y-72723097D01*
X148144965Y-72721150D01*
X148173242Y-72753285D01*
G37*
G36*
X149396095Y-70429498D02*
G01*
X149471661Y-70447739D01*
X149490791Y-70493901D01*
X149482101Y-70556674D01*
X149476702Y-70646530D01*
X149526471Y-70681690D01*
X149624406Y-70687064D01*
X149782138Y-70721998D01*
X149900649Y-70810589D01*
X149953291Y-70928524D01*
X149948815Y-70983081D01*
X149929402Y-71040276D01*
X149920130Y-70998596D01*
X149918165Y-70967269D01*
X149867641Y-70828694D01*
X149740378Y-70755394D01*
X149571927Y-70749256D01*
X149450249Y-70758233D01*
X149406278Y-70731018D01*
X149414379Y-70645610D01*
X149420132Y-70618975D01*
X149453494Y-70467078D01*
X149213400Y-70486174D01*
X149071901Y-70489789D01*
X148985647Y-70477267D01*
X148973306Y-70465776D01*
X149020293Y-70443464D01*
X149140691Y-70429146D01*
X149240166Y-70426284D01*
X149396095Y-70429498D01*
G37*
G36*
X150673108Y-71274204D02*
G01*
X150659055Y-71321432D01*
X150617482Y-71364047D01*
X150551902Y-71397681D01*
X150537988Y-71374557D01*
X150570577Y-71306229D01*
X150635328Y-71266049D01*
X150673108Y-71274204D01*
G37*
G36*
X149494867Y-69878645D02*
G01*
X149468789Y-69904723D01*
X149442710Y-69878645D01*
X149468789Y-69852567D01*
X149494867Y-69878645D01*
G37*
G36*
X147266551Y-70584495D02*
G01*
X147405132Y-70592665D01*
X147479127Y-70611674D01*
X147508391Y-70645935D01*
X147512936Y-70687064D01*
X147491167Y-70760481D01*
X147407497Y-70788867D01*
X147339927Y-70791376D01*
X147251980Y-70795098D01*
X147194535Y-70820348D01*
X147153267Y-70888256D01*
X147113848Y-71019949D01*
X147074698Y-71182546D01*
X147025999Y-71379827D01*
X146986460Y-71496399D01*
X146942861Y-71553437D01*
X146881981Y-71572115D01*
X146830460Y-71573717D01*
X146722744Y-71569833D01*
X146679333Y-71560678D01*
X146691890Y-71507729D01*
X146724267Y-71379683D01*
X146769919Y-71202367D01*
X146778445Y-71169507D01*
X146876662Y-70791376D01*
X146725395Y-70791376D01*
X146613211Y-70773707D01*
X146575139Y-70708754D01*
X146574127Y-70687064D01*
X146581971Y-70637504D01*
X146618737Y-70606708D01*
X146704279Y-70590265D01*
X146858451Y-70583762D01*
X147043532Y-70582752D01*
X147266551Y-70584495D01*
G37*
G36*
X149807803Y-71808419D02*
G01*
X149781725Y-71834497D01*
X149755647Y-71808419D01*
X149781725Y-71782341D01*
X149807803Y-71808419D01*
G37*
G36*
X149442710Y-70035113D02*
G01*
X149416632Y-70061191D01*
X149390554Y-70035113D01*
X149416632Y-70009035D01*
X149442710Y-70035113D01*
G37*
G36*
X150329363Y-70921766D02*
G01*
X150303285Y-70947844D01*
X150277207Y-70921766D01*
X150303285Y-70895688D01*
X150329363Y-70921766D01*
G37*
G36*
X150794750Y-71080618D02*
G01*
X150798768Y-71098156D01*
X150760707Y-71171888D01*
X150746612Y-71182546D01*
X150698474Y-71180162D01*
X150694456Y-71162625D01*
X150732517Y-71088893D01*
X150746612Y-71078234D01*
X150794750Y-71080618D01*
G37*
G36*
X150467903Y-71501357D02*
G01*
X150459754Y-71521561D01*
X150412886Y-71571317D01*
X150404519Y-71573717D01*
X150382118Y-71533364D01*
X150381520Y-71521561D01*
X150421615Y-71471409D01*
X150436754Y-71469405D01*
X150467903Y-71501357D01*
G37*
G36*
X150590144Y-70452362D02*
G01*
X150564066Y-70478440D01*
X150537988Y-70452362D01*
X150564066Y-70426284D01*
X150590144Y-70452362D01*
G37*
G36*
X150329363Y-69565709D02*
G01*
X150303285Y-69591787D01*
X150277207Y-69565709D01*
X150303285Y-69539631D01*
X150329363Y-69565709D01*
G37*
G36*
X151268173Y-70035113D02*
G01*
X151242094Y-70061191D01*
X151216016Y-70035113D01*
X151242094Y-70009035D01*
X151268173Y-70035113D01*
G37*
G36*
X149807803Y-69982957D02*
G01*
X149781725Y-70009035D01*
X149755647Y-69982957D01*
X149781725Y-69956879D01*
X149807803Y-69982957D01*
G37*
G36*
X150050655Y-69884520D02*
G01*
X150042505Y-69904723D01*
X149995637Y-69954479D01*
X149987271Y-69956879D01*
X149964869Y-69916526D01*
X149964271Y-69904723D01*
X150004366Y-69854571D01*
X150019505Y-69852567D01*
X150050655Y-69884520D01*
G37*
%TO.C,D3*%
X116948000Y-86430000D02*
X116948000Y-95000000D01*
X122852000Y-94370000D02*
X122852000Y-86430000D01*
%TD*%
D16*
X110750000Y-64600000D03*
X118250000Y-66600000D03*
X118250000Y-99400000D03*
X110750000Y-97400000D03*
X132400000Y-99700000D03*
X135400000Y-99700000D03*
X129400000Y-99700000D03*
X129400000Y-90700000D03*
X135400000Y-90700000D03*
X132400000Y-90700000D03*
X87150000Y-90400000D03*
X91750000Y-90400000D03*
X108050000Y-90400000D03*
X112650000Y-90400000D03*
X71662500Y-93620000D03*
X71662500Y-69880000D03*
X82002500Y-77940000D03*
X76922500Y-77940000D03*
X74382500Y-77940000D03*
X82002500Y-85560000D03*
X76922500Y-85560000D03*
X74382500Y-85560000D03*
X110750000Y-81200000D03*
X118250000Y-83200000D03*
X144700000Y-93300000D03*
X149800000Y-65000000D03*
X149200000Y-98500000D03*
X87250000Y-73000000D03*
X91850000Y-73000000D03*
X112750000Y-73000000D03*
X108150000Y-73000000D03*
X135400000Y-63700000D03*
X132400000Y-63700000D03*
X129400000Y-63700000D03*
X132400000Y-72700000D03*
X135400000Y-72700000D03*
X129400000Y-72700000D03*
X88800000Y-98500000D03*
X140917500Y-85560000D03*
X145997500Y-85560000D03*
X148537500Y-85560000D03*
X140917500Y-77940000D03*
X145997500Y-77940000D03*
X148537500Y-77940000D03*
X88800000Y-65000000D03*
M02*
