%TF.GenerationSoftware,KiCad,Pcbnew,(6.0.7)*%
%TF.CreationDate,2024-06-28T14:52:28+05:30*%
%TF.ProjectId,JT48VSPD_EXT,4a543438-5653-4504-945f-4558542e6b69,rev?*%
%TF.SameCoordinates,Original*%
%TF.FileFunction,Soldermask,Top*%
%TF.FilePolarity,Negative*%
%FSLAX46Y46*%
G04 Gerber Fmt 4.6, Leading zero omitted, Abs format (unit mm)*
G04 Created by KiCad (PCBNEW (6.0.7)) date 2024-06-28 14:52:28*
%MOMM*%
%LPD*%
G01*
G04 APERTURE LIST*
G04 Aperture macros list*
%AMRoundRect*
0 Rectangle with rounded corners*
0 $1 Rounding radius*
0 $2 $3 $4 $5 $6 $7 $8 $9 X,Y pos of 4 corners*
0 Add a 4 corners polygon primitive as box body*
4,1,4,$2,$3,$4,$5,$6,$7,$8,$9,$2,$3,0*
0 Add four circle primitives for the rounded corners*
1,1,$1+$1,$2,$3*
1,1,$1+$1,$4,$5*
1,1,$1+$1,$6,$7*
1,1,$1+$1,$8,$9*
0 Add four rect primitives between the rounded corners*
20,1,$1+$1,$2,$3,$4,$5,0*
20,1,$1+$1,$4,$5,$6,$7,0*
20,1,$1+$1,$6,$7,$8,$9,0*
20,1,$1+$1,$8,$9,$2,$3,0*%
G04 Aperture macros list end*
%ADD10C,1.794000*%
%ADD11RoundRect,0.102000X0.900000X2.900000X-0.900000X2.900000X-0.900000X-2.900000X0.900000X-2.900000X0*%
%ADD12C,3.000000*%
%ADD13R,3.000000X3.000000*%
%ADD14RoundRect,0.102000X-0.900000X-2.900000X0.900000X-2.900000X0.900000X2.900000X-0.900000X2.900000X0*%
%ADD15C,2.300000*%
%ADD16C,3.200000*%
%ADD17C,2.154000*%
%ADD18C,6.000000*%
%ADD19C,3.400000*%
%ADD20R,3.150000X2.200000*%
G04 APERTURE END LIST*
D10*
%TO.C,RV1*%
X110750000Y-64600000D03*
X118250000Y-66600000D03*
%TD*%
D11*
%TO.C,GD2*%
X103400000Y-82200000D03*
X95400000Y-82200000D03*
%TD*%
D10*
%TO.C,RV3*%
X118250000Y-99400000D03*
X110750000Y-97400000D03*
%TD*%
D12*
%TO.C,L2*%
X132400000Y-99700000D03*
X135400000Y-99700000D03*
D13*
X129400000Y-99700000D03*
D12*
X129400000Y-90700000D03*
X135400000Y-90700000D03*
X132400000Y-90700000D03*
%TD*%
D14*
%TO.C,GD1*%
X95400000Y-65600000D03*
X103400000Y-65600000D03*
%TD*%
D15*
%TO.C,F2*%
X87150000Y-90400000D03*
X91750000Y-90400000D03*
X108050000Y-90400000D03*
X112650000Y-90400000D03*
%TD*%
D16*
%TO.C,J1*%
X71662500Y-93620000D03*
X71662500Y-69880000D03*
D17*
X82002500Y-77940000D03*
X76922500Y-77940000D03*
X74382500Y-77940000D03*
X82002500Y-85560000D03*
X76922500Y-85560000D03*
X74382500Y-85560000D03*
%TD*%
D10*
%TO.C,RV2*%
X110750000Y-81200000D03*
X118250000Y-83200000D03*
%TD*%
D11*
%TO.C,GD3*%
X103300000Y-98400000D03*
X95300000Y-98400000D03*
%TD*%
D18*
%TO.C,H5*%
X144700000Y-93300000D03*
D19*
X144700000Y-93300000D03*
%TD*%
D18*
%TO.C,H3*%
X149800000Y-65000000D03*
D19*
X149800000Y-65000000D03*
%TD*%
%TO.C,H4*%
X149200000Y-98500000D03*
D18*
X149200000Y-98500000D03*
%TD*%
D15*
%TO.C,F1*%
X87250000Y-73000000D03*
X91850000Y-73000000D03*
X112750000Y-73000000D03*
X108150000Y-73000000D03*
%TD*%
D20*
%TO.C,D1*%
X119900000Y-77400000D03*
X119900000Y-70400000D03*
%TD*%
D13*
%TO.C,L1*%
X135400000Y-63700000D03*
D12*
X132400000Y-63700000D03*
X129400000Y-63700000D03*
X132400000Y-72700000D03*
X135400000Y-72700000D03*
X129400000Y-72700000D03*
%TD*%
D20*
%TO.C,D2*%
X129700000Y-85700000D03*
X129700000Y-78700000D03*
%TD*%
D19*
%TO.C,H2*%
X88800000Y-98500000D03*
D18*
X88800000Y-98500000D03*
%TD*%
D17*
%TO.C,J2*%
X140917500Y-85560000D03*
X145997500Y-85560000D03*
X148537500Y-85560000D03*
X140917500Y-77940000D03*
X145997500Y-77940000D03*
X148537500Y-77940000D03*
%TD*%
D19*
%TO.C,H1*%
X88800000Y-65000000D03*
D18*
X88800000Y-65000000D03*
%TD*%
D20*
%TO.C,D3*%
X119900000Y-93900000D03*
X119900000Y-86900000D03*
%TD*%
M02*
