%TF.GenerationSoftware,KiCad,Pcbnew,(6.0.7)*%
%TF.CreationDate,2024-06-22T12:01:18+05:30*%
%TF.ProjectId,BBNL_PDU_Protector,42424e4c-5f50-4445-955f-50726f746563,rev?*%
%TF.SameCoordinates,Original*%
%TF.FileFunction,Legend,Bot*%
%TF.FilePolarity,Positive*%
%FSLAX46Y46*%
G04 Gerber Fmt 4.6, Leading zero omitted, Abs format (unit mm)*
G04 Created by KiCad (PCBNEW (6.0.7)) date 2024-06-22 12:01:18*
%MOMM*%
%LPD*%
G01*
G04 APERTURE LIST*
%ADD10C,0.350000*%
G04 APERTURE END LIST*
D10*
X110750000Y-64600000D03*
X118250000Y-66600000D03*
X118250000Y-99400000D03*
X110750000Y-97400000D03*
X132400000Y-99700000D03*
X135400000Y-99700000D03*
X129400000Y-99700000D03*
X129400000Y-90700000D03*
X135400000Y-90700000D03*
X132400000Y-90700000D03*
X87150000Y-90400000D03*
X91750000Y-90400000D03*
X108050000Y-90400000D03*
X112650000Y-90400000D03*
X71662500Y-93620000D03*
X71662500Y-69880000D03*
X82002500Y-77940000D03*
X76922500Y-77940000D03*
X74382500Y-77940000D03*
X82002500Y-85560000D03*
X76922500Y-85560000D03*
X74382500Y-85560000D03*
X110750000Y-81200000D03*
X118250000Y-83200000D03*
X144700000Y-93300000D03*
X149800000Y-65000000D03*
X149200000Y-98500000D03*
X87250000Y-73000000D03*
X91850000Y-73000000D03*
X112750000Y-73000000D03*
X108150000Y-73000000D03*
X135400000Y-63700000D03*
X132400000Y-63700000D03*
X129400000Y-63700000D03*
X132400000Y-72700000D03*
X135400000Y-72700000D03*
X129400000Y-72700000D03*
X88800000Y-98500000D03*
X140917500Y-85560000D03*
X145997500Y-85560000D03*
X148537500Y-85560000D03*
X140917500Y-77940000D03*
X145997500Y-77940000D03*
X148537500Y-77940000D03*
X88800000Y-65000000D03*
M02*
