%TF.GenerationSoftware,KiCad,Pcbnew,(6.0.7)*%
%TF.CreationDate,2024-06-21T12:53:57+05:30*%
%TF.ProjectId,BBNL_PDU_Protector,42424e4c-5f50-4445-955f-50726f746563,rev?*%
%TF.SameCoordinates,Original*%
%TF.FileFunction,Copper,L2,Bot*%
%TF.FilePolarity,Positive*%
%FSLAX46Y46*%
G04 Gerber Fmt 4.6, Leading zero omitted, Abs format (unit mm)*
G04 Created by KiCad (PCBNEW (6.0.7)) date 2024-06-21 12:53:57*
%MOMM*%
%LPD*%
G01*
G04 APERTURE LIST*
%TA.AperFunction,ComponentPad*%
%ADD10C,1.590000*%
%TD*%
%TA.AperFunction,ComponentPad*%
%ADD11C,3.000000*%
%TD*%
%TA.AperFunction,ComponentPad*%
%ADD12R,3.000000X3.000000*%
%TD*%
%TA.AperFunction,ComponentPad*%
%ADD13C,2.300000*%
%TD*%
%TA.AperFunction,ComponentPad*%
%ADD14C,1.950000*%
%TD*%
%TA.AperFunction,ConnectorPad*%
%ADD15C,6.000000*%
%TD*%
%TA.AperFunction,ComponentPad*%
%ADD16C,3.400000*%
%TD*%
%TA.AperFunction,Conductor*%
%ADD17C,5.000000*%
%TD*%
%ADD18C,0.350000*%
G04 APERTURE END LIST*
D10*
%TO.P,RV1,1*%
%TO.N,Earth*%
X110750000Y-64600000D03*
%TO.P,RV1,2*%
%TO.N,Net-(F1-Pad2)*%
X118250000Y-66600000D03*
%TD*%
%TO.P,RV3,1*%
%TO.N,Net-(F2-Pad2)*%
X118250000Y-99400000D03*
%TO.P,RV3,2*%
%TO.N,Earth*%
X110750000Y-97400000D03*
%TD*%
D11*
%TO.P,L2,1,1*%
%TO.N,Net-(F2-Pad2)*%
X132400000Y-99700000D03*
X135400000Y-99700000D03*
D12*
X129400000Y-99700000D03*
D11*
%TO.P,L2,2,2*%
%TO.N,Net-(D2-Pad1)*%
X129400000Y-90700000D03*
X135400000Y-90700000D03*
X132400000Y-90700000D03*
%TD*%
D13*
%TO.P,F2,1*%
%TO.N,Net-(F2-Pad1)*%
X87150000Y-90400000D03*
X91750000Y-90400000D03*
%TO.P,F2,2*%
%TO.N,Net-(F2-Pad2)*%
X108050000Y-90400000D03*
X112650000Y-90400000D03*
%TD*%
D14*
%TO.P,J1,1_1,1_1*%
%TO.N,Net-(F1-Pad1)*%
X82002500Y-77940000D03*
%TO.P,J1,1_2,1_2*%
X76922500Y-77940000D03*
%TO.P,J1,1_3,1_3*%
X74382500Y-77940000D03*
%TO.P,J1,2_1,2_1*%
%TO.N,Net-(F2-Pad1)*%
X82002500Y-85560000D03*
%TO.P,J1,2_2,2_2*%
X76922500Y-85560000D03*
%TO.P,J1,2_3,2_3*%
X74382500Y-85560000D03*
%TD*%
D10*
%TO.P,RV2,1*%
%TO.N,Net-(F1-Pad2)*%
X110750000Y-81200000D03*
%TO.P,RV2,2*%
%TO.N,Net-(F2-Pad2)*%
X118250000Y-83200000D03*
%TD*%
D15*
%TO.P,H5,1,1*%
%TO.N,Earth*%
X144700000Y-93300000D03*
D16*
X144700000Y-93300000D03*
%TD*%
%TO.P,H3,1,1*%
%TO.N,Earth*%
X149800000Y-65000000D03*
D15*
X149800000Y-65000000D03*
%TD*%
D16*
%TO.P,H4,1,1*%
%TO.N,Earth*%
X149200000Y-98500000D03*
D15*
X149200000Y-98500000D03*
%TD*%
D13*
%TO.P,F1,1*%
%TO.N,Net-(F1-Pad1)*%
X87250000Y-73000000D03*
X91850000Y-73000000D03*
%TO.P,F1,2*%
%TO.N,Net-(F1-Pad2)*%
X112750000Y-73000000D03*
X108150000Y-73000000D03*
%TD*%
D12*
%TO.P,L1,1,1*%
%TO.N,Net-(F1-Pad2)*%
X135400000Y-63700000D03*
D11*
X132400000Y-63700000D03*
X129400000Y-63700000D03*
%TO.P,L1,2,2*%
%TO.N,Net-(D1-Pad1)*%
X132400000Y-72700000D03*
X135400000Y-72700000D03*
X129400000Y-72700000D03*
%TD*%
D16*
%TO.P,H2,1,1*%
%TO.N,unconnected-(H2-Pad1)*%
X88800000Y-98500000D03*
D15*
X88800000Y-98500000D03*
%TD*%
D14*
%TO.P,J2,1_1,1_1*%
%TO.N,Net-(D1-Pad1)*%
X140917500Y-85560000D03*
%TO.P,J2,1_2,1_2*%
X145997500Y-85560000D03*
%TO.P,J2,1_3,1_3*%
X148537500Y-85560000D03*
%TO.P,J2,2_1,2_1*%
%TO.N,Net-(D2-Pad1)*%
X140917500Y-77940000D03*
%TO.P,J2,2_2,2_2*%
X145997500Y-77940000D03*
%TO.P,J2,2_3,2_3*%
X148537500Y-77940000D03*
%TD*%
D16*
%TO.P,H1,1,1*%
%TO.N,unconnected-(H1-Pad1)*%
X88800000Y-65000000D03*
D15*
X88800000Y-65000000D03*
%TD*%
D17*
%TO.N,Net-(D2-Pad1)*%
X140917500Y-77940000D02*
X138860000Y-77940000D01*
X138860000Y-77940000D02*
X134900000Y-81900000D01*
X134900000Y-90200000D02*
X135400000Y-90700000D01*
X134900000Y-81900000D02*
X134900000Y-90200000D01*
%TO.N,Net-(F2-Pad2)*%
X118400000Y-99250000D02*
X118250000Y-99400000D01*
X112650000Y-86150000D02*
X112650000Y-90400000D01*
X118250000Y-83200000D02*
X115600000Y-83200000D01*
X112650000Y-90400000D02*
X114500000Y-90400000D01*
X114500000Y-90400000D02*
X118400000Y-94300000D01*
X115600000Y-83200000D02*
X112650000Y-86150000D01*
X118400000Y-94300000D02*
X118400000Y-99250000D01*
%TD*%
%TA.AperFunction,Conductor*%
%TO.N,Net-(F2-Pad1)*%
G36*
X85812347Y-62120502D02*
G01*
X85858840Y-62174158D01*
X85868944Y-62244432D01*
X85836676Y-62312109D01*
X85731743Y-62425427D01*
X85495152Y-62737124D01*
X85290107Y-63070420D01*
X85118564Y-63422135D01*
X84982162Y-63788910D01*
X84882201Y-64167246D01*
X84819637Y-64553531D01*
X84795065Y-64944077D01*
X84808722Y-65335157D01*
X84860477Y-65723038D01*
X84949834Y-66104017D01*
X84950823Y-66106923D01*
X84950825Y-66106929D01*
X85074950Y-66471543D01*
X85074955Y-66471555D01*
X85075943Y-66474458D01*
X85237598Y-66830826D01*
X85433258Y-67169717D01*
X85435047Y-67172216D01*
X85435049Y-67172219D01*
X85633352Y-67449206D01*
X85661053Y-67487899D01*
X85663080Y-67490214D01*
X85663082Y-67490217D01*
X85743031Y-67581542D01*
X85918810Y-67782333D01*
X86204069Y-68050208D01*
X86514107Y-68288969D01*
X86516710Y-68290596D01*
X86516715Y-68290599D01*
X86604727Y-68345595D01*
X86845964Y-68496337D01*
X87196472Y-68670331D01*
X87562287Y-68809290D01*
X87939915Y-68911890D01*
X87942958Y-68912405D01*
X87942964Y-68912406D01*
X88322713Y-68976636D01*
X88322720Y-68976637D01*
X88325754Y-68977150D01*
X88328825Y-68977365D01*
X88328827Y-68977365D01*
X88713053Y-69004233D01*
X88713061Y-69004233D01*
X88716119Y-69004447D01*
X88969704Y-68997363D01*
X89104211Y-68993606D01*
X89104214Y-68993606D01*
X89107285Y-68993520D01*
X89110338Y-68993134D01*
X89110342Y-68993134D01*
X89296145Y-68969662D01*
X89495517Y-68944475D01*
X89498521Y-68943793D01*
X89498524Y-68943792D01*
X89874115Y-68858460D01*
X89874121Y-68858458D01*
X89877111Y-68857779D01*
X90022875Y-68809290D01*
X90245500Y-68735233D01*
X90245506Y-68735231D01*
X90248424Y-68734260D01*
X90323846Y-68700680D01*
X90603111Y-68576343D01*
X90603117Y-68576340D01*
X90605911Y-68575096D01*
X90608580Y-68573580D01*
X90943492Y-68383324D01*
X90943498Y-68383320D01*
X90946160Y-68381808D01*
X91241132Y-68173728D01*
X91263401Y-68158019D01*
X91263404Y-68158017D01*
X91265924Y-68156239D01*
X91562150Y-67900544D01*
X91564271Y-67898317D01*
X91564277Y-67898311D01*
X91829894Y-67619385D01*
X91832011Y-67617162D01*
X91859841Y-67581542D01*
X92071021Y-67311244D01*
X92071023Y-67311241D01*
X92072931Y-67308799D01*
X92074587Y-67306189D01*
X92074593Y-67306181D01*
X92280957Y-66981003D01*
X92280959Y-66981000D01*
X92282610Y-66978398D01*
X92459046Y-66629112D01*
X92600557Y-66264277D01*
X92705790Y-65887374D01*
X92773742Y-65502000D01*
X92786580Y-65335157D01*
X92803613Y-65113789D01*
X92803613Y-65113778D01*
X92803763Y-65111835D01*
X92805325Y-65000000D01*
X92786209Y-64609149D01*
X92729044Y-64222028D01*
X92634376Y-63842334D01*
X92503107Y-63473689D01*
X92336492Y-63119614D01*
X92307167Y-63070420D01*
X92137700Y-62786138D01*
X92136120Y-62783487D01*
X91903905Y-62468517D01*
X91761905Y-62310810D01*
X91731188Y-62246803D01*
X91739951Y-62176350D01*
X91785414Y-62121818D01*
X91855541Y-62100500D01*
X98474000Y-62100500D01*
X98542121Y-62120502D01*
X98588614Y-62174158D01*
X98600000Y-62226500D01*
X98600000Y-101273500D01*
X98579998Y-101341621D01*
X98526342Y-101388114D01*
X98474000Y-101399500D01*
X91857124Y-101399500D01*
X91789003Y-101379498D01*
X91742510Y-101325842D01*
X91732406Y-101255568D01*
X91765879Y-101186608D01*
X91829884Y-101119396D01*
X91829888Y-101119391D01*
X91832011Y-101117162D01*
X91931192Y-100990217D01*
X92071021Y-100811244D01*
X92071023Y-100811241D01*
X92072931Y-100808799D01*
X92074587Y-100806189D01*
X92074593Y-100806181D01*
X92280957Y-100481003D01*
X92280959Y-100481000D01*
X92282610Y-100478398D01*
X92459046Y-100129112D01*
X92600557Y-99764277D01*
X92705790Y-99387374D01*
X92773742Y-99002000D01*
X92786580Y-98835157D01*
X92803613Y-98613789D01*
X92803613Y-98613778D01*
X92803763Y-98611835D01*
X92805325Y-98500000D01*
X92786209Y-98109149D01*
X92729044Y-97722028D01*
X92634376Y-97342334D01*
X92503107Y-96973689D01*
X92336492Y-96619614D01*
X92307167Y-96570420D01*
X92137700Y-96286138D01*
X92136120Y-96283487D01*
X91903905Y-95968517D01*
X91642061Y-95677711D01*
X91353090Y-95413844D01*
X91039749Y-95179435D01*
X90986075Y-95146929D01*
X90707658Y-94978313D01*
X90707649Y-94978308D01*
X90705030Y-94976722D01*
X90352126Y-94807638D01*
X90349237Y-94806586D01*
X90349231Y-94806584D01*
X89987306Y-94674855D01*
X89987303Y-94674854D01*
X89984407Y-94673800D01*
X89667281Y-94592376D01*
X89608366Y-94577249D01*
X89608363Y-94577248D01*
X89605382Y-94576483D01*
X89218670Y-94516617D01*
X89215613Y-94516446D01*
X89215612Y-94516446D01*
X89183452Y-94514648D01*
X88827962Y-94494773D01*
X88824883Y-94494902D01*
X88824880Y-94494902D01*
X88568770Y-94505636D01*
X88436987Y-94511159D01*
X88433943Y-94511587D01*
X88433941Y-94511587D01*
X88412161Y-94514648D01*
X88049477Y-94565620D01*
X87669131Y-94657636D01*
X87299579Y-94786327D01*
X87296781Y-94787620D01*
X86947146Y-94949174D01*
X86947136Y-94949179D01*
X86944349Y-94950467D01*
X86835829Y-95014135D01*
X86609486Y-95146929D01*
X86609481Y-95146932D01*
X86606831Y-95148487D01*
X86602767Y-95151440D01*
X86292730Y-95376694D01*
X86292721Y-95376701D01*
X86290248Y-95378498D01*
X86287958Y-95380531D01*
X86287952Y-95380536D01*
X86025858Y-95613235D01*
X85997621Y-95638305D01*
X85995532Y-95640561D01*
X85888392Y-95756262D01*
X85731743Y-95925427D01*
X85495152Y-96237124D01*
X85290107Y-96570420D01*
X85118564Y-96922135D01*
X84982162Y-97288910D01*
X84882201Y-97667246D01*
X84819637Y-98053531D01*
X84795065Y-98444077D01*
X84808722Y-98835157D01*
X84860477Y-99223038D01*
X84949834Y-99604017D01*
X84950823Y-99606923D01*
X84950825Y-99606929D01*
X85074950Y-99971543D01*
X85074955Y-99971555D01*
X85075943Y-99974458D01*
X85237598Y-100330826D01*
X85433258Y-100669717D01*
X85435047Y-100672216D01*
X85435049Y-100672219D01*
X85532831Y-100808799D01*
X85661053Y-100987899D01*
X85663080Y-100990214D01*
X85663082Y-100990217D01*
X85838421Y-101190505D01*
X85868242Y-101254935D01*
X85858495Y-101325260D01*
X85812275Y-101379151D01*
X85743617Y-101399500D01*
X58126500Y-101399500D01*
X58058379Y-101379498D01*
X58011886Y-101325842D01*
X58000500Y-101273500D01*
X58000500Y-93665471D01*
X69057455Y-93665471D01*
X69082414Y-93982607D01*
X69145836Y-94294338D01*
X69246776Y-94596016D01*
X69248425Y-94599474D01*
X69248427Y-94599478D01*
X69343747Y-94799320D01*
X69383729Y-94883143D01*
X69554653Y-95151440D01*
X69757000Y-95396907D01*
X69987754Y-95615884D01*
X70243475Y-95805108D01*
X70381912Y-95883432D01*
X70516992Y-95959857D01*
X70516996Y-95959859D01*
X70520349Y-95961756D01*
X70523910Y-95963231D01*
X70523912Y-95963232D01*
X70542637Y-95970988D01*
X70814251Y-96083494D01*
X70915583Y-96111596D01*
X71117082Y-96167477D01*
X71117090Y-96167479D01*
X71120798Y-96168507D01*
X71435421Y-96215528D01*
X71438719Y-96215672D01*
X71547927Y-96220440D01*
X71547932Y-96220440D01*
X71549304Y-96220500D01*
X71743299Y-96220500D01*
X71980024Y-96206021D01*
X71983807Y-96205320D01*
X71983814Y-96205319D01*
X72182431Y-96168507D01*
X72292813Y-96148049D01*
X72502232Y-96082020D01*
X72592535Y-96053548D01*
X72592538Y-96053547D01*
X72596207Y-96052390D01*
X72599704Y-96050796D01*
X72599710Y-96050794D01*
X72882173Y-95922068D01*
X72882177Y-95922066D01*
X72885681Y-95920469D01*
X73070834Y-95807007D01*
X73153642Y-95756262D01*
X73153645Y-95756260D01*
X73156920Y-95754253D01*
X73159924Y-95751863D01*
X73159929Y-95751860D01*
X73402870Y-95558616D01*
X73405881Y-95556221D01*
X73628852Y-95329324D01*
X73631194Y-95326272D01*
X73820174Y-95079989D01*
X73820179Y-95079981D01*
X73822509Y-95076945D01*
X73934757Y-94886386D01*
X73982013Y-94806162D01*
X73982015Y-94806159D01*
X73983966Y-94802846D01*
X74110815Y-94511114D01*
X74115605Y-94494945D01*
X74200071Y-94209789D01*
X74201165Y-94206097D01*
X74253669Y-93892343D01*
X74267545Y-93574529D01*
X74242586Y-93257393D01*
X74179164Y-92945662D01*
X74078224Y-92643984D01*
X73941271Y-92356857D01*
X73770347Y-92088560D01*
X73568000Y-91843093D01*
X73461685Y-91742204D01*
X86173151Y-91742204D01*
X86177720Y-91748735D01*
X86390736Y-91879271D01*
X86399530Y-91883752D01*
X86631492Y-91979834D01*
X86640877Y-91982883D01*
X86885017Y-92041496D01*
X86894764Y-92043039D01*
X87145070Y-92062739D01*
X87154930Y-92062739D01*
X87405236Y-92043039D01*
X87414983Y-92041496D01*
X87659123Y-91982883D01*
X87668508Y-91979834D01*
X87900470Y-91883752D01*
X87909264Y-91879271D01*
X88120875Y-91749596D01*
X88125699Y-91742204D01*
X90773151Y-91742204D01*
X90777720Y-91748735D01*
X90990736Y-91879271D01*
X90999530Y-91883752D01*
X91231492Y-91979834D01*
X91240877Y-91982883D01*
X91485017Y-92041496D01*
X91494764Y-92043039D01*
X91745070Y-92062739D01*
X91754930Y-92062739D01*
X92005236Y-92043039D01*
X92014983Y-92041496D01*
X92259123Y-91982883D01*
X92268508Y-91979834D01*
X92500470Y-91883752D01*
X92509264Y-91879271D01*
X92720875Y-91749596D01*
X92726922Y-91740330D01*
X92720915Y-91730125D01*
X91762812Y-90772022D01*
X91748868Y-90764408D01*
X91747035Y-90764539D01*
X91740420Y-90768790D01*
X90780544Y-91728666D01*
X90773151Y-91742204D01*
X88125699Y-91742204D01*
X88126922Y-91740330D01*
X88120915Y-91730125D01*
X87162812Y-90772022D01*
X87148868Y-90764408D01*
X87147035Y-90764539D01*
X87140420Y-90768790D01*
X86180544Y-91728666D01*
X86173151Y-91742204D01*
X73461685Y-91742204D01*
X73337246Y-91624116D01*
X73081525Y-91434892D01*
X72881180Y-91321542D01*
X72808008Y-91280143D01*
X72808004Y-91280141D01*
X72804651Y-91278244D01*
X72510749Y-91156506D01*
X72409417Y-91128404D01*
X72207918Y-91072523D01*
X72207910Y-91072521D01*
X72204202Y-91071493D01*
X71889579Y-91024472D01*
X71886281Y-91024328D01*
X71777073Y-91019560D01*
X71777068Y-91019560D01*
X71775696Y-91019500D01*
X71581701Y-91019500D01*
X71344976Y-91033979D01*
X71341193Y-91034680D01*
X71341186Y-91034681D01*
X71188581Y-91062965D01*
X71032187Y-91091951D01*
X70852497Y-91148606D01*
X70732465Y-91186452D01*
X70732462Y-91186453D01*
X70728793Y-91187610D01*
X70725296Y-91189204D01*
X70725290Y-91189206D01*
X70442827Y-91317932D01*
X70442823Y-91317934D01*
X70439319Y-91319531D01*
X70436040Y-91321541D01*
X70436037Y-91321542D01*
X70247326Y-91437185D01*
X70168080Y-91485747D01*
X70165076Y-91488137D01*
X70165071Y-91488140D01*
X69946462Y-91662030D01*
X69919119Y-91683779D01*
X69916427Y-91686518D01*
X69916423Y-91686522D01*
X69861705Y-91742204D01*
X69696148Y-91910676D01*
X69693807Y-91913727D01*
X69693806Y-91913728D01*
X69504826Y-92160011D01*
X69504821Y-92160019D01*
X69502491Y-92163055D01*
X69500542Y-92166364D01*
X69386292Y-92360322D01*
X69341034Y-92437154D01*
X69214185Y-92728886D01*
X69123835Y-93033903D01*
X69071331Y-93347657D01*
X69057455Y-93665471D01*
X58000500Y-93665471D01*
X58000500Y-90404930D01*
X85487261Y-90404930D01*
X85506961Y-90655236D01*
X85508504Y-90664983D01*
X85567117Y-90909123D01*
X85570166Y-90918508D01*
X85666248Y-91150470D01*
X85670729Y-91159264D01*
X85800404Y-91370875D01*
X85809670Y-91376922D01*
X85819875Y-91370915D01*
X86777978Y-90412812D01*
X86784356Y-90401132D01*
X87514408Y-90401132D01*
X87514539Y-90402965D01*
X87518790Y-90409580D01*
X88478666Y-91369456D01*
X88492204Y-91376849D01*
X88498735Y-91372280D01*
X88629271Y-91159264D01*
X88633752Y-91150470D01*
X88729834Y-90918508D01*
X88732883Y-90909123D01*
X88791496Y-90664983D01*
X88793039Y-90655236D01*
X88812739Y-90404930D01*
X90087261Y-90404930D01*
X90106961Y-90655236D01*
X90108504Y-90664983D01*
X90167117Y-90909123D01*
X90170166Y-90918508D01*
X90266248Y-91150470D01*
X90270729Y-91159264D01*
X90400404Y-91370875D01*
X90409670Y-91376922D01*
X90419875Y-91370915D01*
X91377978Y-90412812D01*
X91384356Y-90401132D01*
X92114408Y-90401132D01*
X92114539Y-90402965D01*
X92118790Y-90409580D01*
X93078666Y-91369456D01*
X93092204Y-91376849D01*
X93098735Y-91372280D01*
X93229271Y-91159264D01*
X93233752Y-91150470D01*
X93329834Y-90918508D01*
X93332883Y-90909123D01*
X93391496Y-90664983D01*
X93393039Y-90655236D01*
X93412739Y-90404930D01*
X93412739Y-90395070D01*
X93393039Y-90144764D01*
X93391496Y-90135017D01*
X93332883Y-89890877D01*
X93329834Y-89881492D01*
X93233752Y-89649530D01*
X93229271Y-89640736D01*
X93099596Y-89429125D01*
X93090330Y-89423078D01*
X93080125Y-89429085D01*
X92122022Y-90387188D01*
X92114408Y-90401132D01*
X91384356Y-90401132D01*
X91385592Y-90398868D01*
X91385461Y-90397035D01*
X91381210Y-90390420D01*
X90421334Y-89430544D01*
X90407796Y-89423151D01*
X90401265Y-89427720D01*
X90270729Y-89640736D01*
X90266248Y-89649530D01*
X90170166Y-89881492D01*
X90167117Y-89890877D01*
X90108504Y-90135017D01*
X90106961Y-90144764D01*
X90087261Y-90395070D01*
X90087261Y-90404930D01*
X88812739Y-90404930D01*
X88812739Y-90395070D01*
X88793039Y-90144764D01*
X88791496Y-90135017D01*
X88732883Y-89890877D01*
X88729834Y-89881492D01*
X88633752Y-89649530D01*
X88629271Y-89640736D01*
X88499596Y-89429125D01*
X88490330Y-89423078D01*
X88480125Y-89429085D01*
X87522022Y-90387188D01*
X87514408Y-90401132D01*
X86784356Y-90401132D01*
X86785592Y-90398868D01*
X86785461Y-90397035D01*
X86781210Y-90390420D01*
X85821334Y-89430544D01*
X85807796Y-89423151D01*
X85801265Y-89427720D01*
X85670729Y-89640736D01*
X85666248Y-89649530D01*
X85570166Y-89881492D01*
X85567117Y-89890877D01*
X85508504Y-90135017D01*
X85506961Y-90144764D01*
X85487261Y-90395070D01*
X85487261Y-90404930D01*
X58000500Y-90404930D01*
X58000500Y-89059670D01*
X86173078Y-89059670D01*
X86179085Y-89069875D01*
X87137188Y-90027978D01*
X87151132Y-90035592D01*
X87152965Y-90035461D01*
X87159580Y-90031210D01*
X88119456Y-89071334D01*
X88125826Y-89059670D01*
X90773078Y-89059670D01*
X90779085Y-89069875D01*
X91737188Y-90027978D01*
X91751132Y-90035592D01*
X91752965Y-90035461D01*
X91759580Y-90031210D01*
X92719456Y-89071334D01*
X92726849Y-89057796D01*
X92722280Y-89051265D01*
X92509264Y-88920729D01*
X92500470Y-88916248D01*
X92268508Y-88820166D01*
X92259123Y-88817117D01*
X92014983Y-88758504D01*
X92005236Y-88756961D01*
X91754930Y-88737261D01*
X91745070Y-88737261D01*
X91494764Y-88756961D01*
X91485017Y-88758504D01*
X91240877Y-88817117D01*
X91231492Y-88820166D01*
X90999530Y-88916248D01*
X90990736Y-88920729D01*
X90779125Y-89050404D01*
X90773078Y-89059670D01*
X88125826Y-89059670D01*
X88126849Y-89057796D01*
X88122280Y-89051265D01*
X87909264Y-88920729D01*
X87900470Y-88916248D01*
X87668508Y-88820166D01*
X87659123Y-88817117D01*
X87414983Y-88758504D01*
X87405236Y-88756961D01*
X87154930Y-88737261D01*
X87145070Y-88737261D01*
X86894764Y-88756961D01*
X86885017Y-88758504D01*
X86640877Y-88817117D01*
X86631492Y-88820166D01*
X86399530Y-88916248D01*
X86390736Y-88920729D01*
X86179125Y-89050404D01*
X86173078Y-89059670D01*
X58000500Y-89059670D01*
X58000500Y-86776624D01*
X73531121Y-86776624D01*
X73535488Y-86782774D01*
X73735063Y-86899397D01*
X73744346Y-86903844D01*
X73962507Y-86987152D01*
X73972405Y-86990028D01*
X74201244Y-87036585D01*
X74211472Y-87037804D01*
X74444840Y-87046362D01*
X74455126Y-87045895D01*
X74686762Y-87016222D01*
X74696840Y-87014080D01*
X74920514Y-86946974D01*
X74930112Y-86943212D01*
X75139824Y-86840476D01*
X75148669Y-86835203D01*
X75221369Y-86783347D01*
X75226647Y-86776624D01*
X76071121Y-86776624D01*
X76075488Y-86782774D01*
X76275063Y-86899397D01*
X76284346Y-86903844D01*
X76502507Y-86987152D01*
X76512405Y-86990028D01*
X76741244Y-87036585D01*
X76751472Y-87037804D01*
X76984840Y-87046362D01*
X76995126Y-87045895D01*
X77226762Y-87016222D01*
X77236840Y-87014080D01*
X77460514Y-86946974D01*
X77470112Y-86943212D01*
X77679824Y-86840476D01*
X77688669Y-86835203D01*
X77761369Y-86783347D01*
X77766647Y-86776624D01*
X81151121Y-86776624D01*
X81155488Y-86782774D01*
X81355063Y-86899397D01*
X81364346Y-86903844D01*
X81582507Y-86987152D01*
X81592405Y-86990028D01*
X81821244Y-87036585D01*
X81831472Y-87037804D01*
X82064840Y-87046362D01*
X82075126Y-87045895D01*
X82306762Y-87016222D01*
X82316840Y-87014080D01*
X82540514Y-86946974D01*
X82550112Y-86943212D01*
X82759824Y-86840476D01*
X82768669Y-86835203D01*
X82841369Y-86783347D01*
X82849770Y-86772646D01*
X82842783Y-86759493D01*
X82015312Y-85932022D01*
X82001368Y-85924408D01*
X81999535Y-85924539D01*
X81992920Y-85928790D01*
X81158381Y-86763329D01*
X81151121Y-86776624D01*
X77766647Y-86776624D01*
X77769770Y-86772646D01*
X77762783Y-86759493D01*
X76935312Y-85932022D01*
X76921368Y-85924408D01*
X76919535Y-85924539D01*
X76912920Y-85928790D01*
X76078381Y-86763329D01*
X76071121Y-86776624D01*
X75226647Y-86776624D01*
X75229770Y-86772646D01*
X75222783Y-86759493D01*
X74395312Y-85932022D01*
X74381368Y-85924408D01*
X74379535Y-85924539D01*
X74372920Y-85928790D01*
X73538381Y-86763329D01*
X73531121Y-86776624D01*
X58000500Y-86776624D01*
X58000500Y-85528799D01*
X72895158Y-85528799D01*
X72908602Y-85761942D01*
X72910035Y-85772144D01*
X72961373Y-85999949D01*
X72964456Y-86009789D01*
X73052314Y-86226156D01*
X73056957Y-86235347D01*
X73158055Y-86400325D01*
X73168511Y-86409785D01*
X73177289Y-86406001D01*
X74010478Y-85572812D01*
X74016856Y-85561132D01*
X74746908Y-85561132D01*
X74747039Y-85562965D01*
X74751290Y-85569580D01*
X75582545Y-86400835D01*
X75596489Y-86408449D01*
X75618606Y-86406868D01*
X75637887Y-86399461D01*
X75673032Y-86406748D01*
X75673333Y-86404931D01*
X75706875Y-86410489D01*
X75717290Y-86406000D01*
X76550478Y-85572812D01*
X76556856Y-85561132D01*
X77286908Y-85561132D01*
X77287039Y-85562965D01*
X77291290Y-85569580D01*
X78122545Y-86400835D01*
X78134555Y-86407394D01*
X78146294Y-86398426D01*
X78195018Y-86330619D01*
X78200329Y-86321780D01*
X78303791Y-86112442D01*
X78307589Y-86102849D01*
X78375474Y-85879413D01*
X78377651Y-85869343D01*
X78408369Y-85636015D01*
X78408888Y-85629340D01*
X78410501Y-85563364D01*
X78410307Y-85556647D01*
X78408018Y-85528799D01*
X80515158Y-85528799D01*
X80528602Y-85761942D01*
X80530035Y-85772144D01*
X80581373Y-85999949D01*
X80584456Y-86009789D01*
X80672314Y-86226156D01*
X80676957Y-86235347D01*
X80778055Y-86400325D01*
X80788511Y-86409785D01*
X80797289Y-86406001D01*
X81630478Y-85572812D01*
X81636856Y-85561132D01*
X82366908Y-85561132D01*
X82367039Y-85562965D01*
X82371290Y-85569580D01*
X83202545Y-86400835D01*
X83214555Y-86407394D01*
X83226294Y-86398426D01*
X83275018Y-86330619D01*
X83280329Y-86321780D01*
X83383791Y-86112442D01*
X83387589Y-86102849D01*
X83455474Y-85879413D01*
X83457651Y-85869343D01*
X83488369Y-85636015D01*
X83488888Y-85629340D01*
X83490501Y-85563364D01*
X83490307Y-85556647D01*
X83471025Y-85322108D01*
X83469342Y-85311946D01*
X83412452Y-85085453D01*
X83409134Y-85075706D01*
X83316013Y-84861542D01*
X83311146Y-84852467D01*
X83225965Y-84720796D01*
X83215279Y-84711593D01*
X83205714Y-84715996D01*
X82374522Y-85547188D01*
X82366908Y-85561132D01*
X81636856Y-85561132D01*
X81638092Y-85558868D01*
X81637961Y-85557035D01*
X81633710Y-85550420D01*
X80802392Y-84719102D01*
X80790856Y-84712802D01*
X80778573Y-84722426D01*
X80711536Y-84820698D01*
X80706443Y-84829662D01*
X80608119Y-85041483D01*
X80604562Y-85051151D01*
X80542157Y-85276178D01*
X80540226Y-85286298D01*
X80515410Y-85518510D01*
X80515158Y-85528799D01*
X78408018Y-85528799D01*
X78391025Y-85322108D01*
X78389342Y-85311946D01*
X78332452Y-85085453D01*
X78329134Y-85075706D01*
X78236013Y-84861542D01*
X78231146Y-84852467D01*
X78145965Y-84720796D01*
X78135279Y-84711593D01*
X78125714Y-84715996D01*
X77294522Y-85547188D01*
X77286908Y-85561132D01*
X76556856Y-85561132D01*
X76558092Y-85558868D01*
X76557961Y-85557035D01*
X76553710Y-85550420D01*
X75722392Y-84719102D01*
X75708448Y-84711488D01*
X75689810Y-84712821D01*
X75666600Y-84722063D01*
X75630640Y-84715064D01*
X75630567Y-84715585D01*
X75596899Y-84710848D01*
X75585713Y-84715997D01*
X74754522Y-85547188D01*
X74746908Y-85561132D01*
X74016856Y-85561132D01*
X74018092Y-85558868D01*
X74017961Y-85557035D01*
X74013710Y-85550420D01*
X73182392Y-84719102D01*
X73170856Y-84712802D01*
X73158573Y-84722426D01*
X73091536Y-84820698D01*
X73086443Y-84829662D01*
X72988119Y-85041483D01*
X72984562Y-85051151D01*
X72922157Y-85276178D01*
X72920226Y-85286298D01*
X72895410Y-85518510D01*
X72895158Y-85528799D01*
X58000500Y-85528799D01*
X58000500Y-84347142D01*
X73534438Y-84347142D01*
X73541184Y-84359474D01*
X74369688Y-85187978D01*
X74383632Y-85195592D01*
X74385465Y-85195461D01*
X74392080Y-85191210D01*
X75224891Y-84358399D01*
X75231039Y-84347142D01*
X76074438Y-84347142D01*
X76081184Y-84359474D01*
X76909688Y-85187978D01*
X76923632Y-85195592D01*
X76925465Y-85195461D01*
X76932080Y-85191210D01*
X77764891Y-84358399D01*
X77771039Y-84347142D01*
X81154438Y-84347142D01*
X81161184Y-84359474D01*
X81989688Y-85187978D01*
X82003632Y-85195592D01*
X82005465Y-85195461D01*
X82012080Y-85191210D01*
X82844891Y-84358399D01*
X82851912Y-84345543D01*
X82844139Y-84334875D01*
X82830048Y-84323746D01*
X82821470Y-84318047D01*
X82617026Y-84205189D01*
X82607626Y-84200964D01*
X82387493Y-84123011D01*
X82377536Y-84120381D01*
X82147629Y-84079427D01*
X82137378Y-84078458D01*
X81903867Y-84075605D01*
X81893583Y-84076325D01*
X81662753Y-84111647D01*
X81652725Y-84114036D01*
X81430763Y-84186584D01*
X81421253Y-84190581D01*
X81214124Y-84298405D01*
X81205404Y-84303897D01*
X81162891Y-84335817D01*
X81154438Y-84347142D01*
X77771039Y-84347142D01*
X77771912Y-84345543D01*
X77764139Y-84334875D01*
X77750048Y-84323746D01*
X77741470Y-84318047D01*
X77537026Y-84205189D01*
X77527626Y-84200964D01*
X77307493Y-84123011D01*
X77297536Y-84120381D01*
X77067629Y-84079427D01*
X77057378Y-84078458D01*
X76823867Y-84075605D01*
X76813583Y-84076325D01*
X76582753Y-84111647D01*
X76572725Y-84114036D01*
X76350763Y-84186584D01*
X76341253Y-84190581D01*
X76134124Y-84298405D01*
X76125404Y-84303897D01*
X76082891Y-84335817D01*
X76074438Y-84347142D01*
X75231039Y-84347142D01*
X75231912Y-84345543D01*
X75224139Y-84334875D01*
X75210048Y-84323746D01*
X75201470Y-84318047D01*
X74997026Y-84205189D01*
X74987626Y-84200964D01*
X74767493Y-84123011D01*
X74757536Y-84120381D01*
X74527629Y-84079427D01*
X74517378Y-84078458D01*
X74283867Y-84075605D01*
X74273583Y-84076325D01*
X74042753Y-84111647D01*
X74032725Y-84114036D01*
X73810763Y-84186584D01*
X73801253Y-84190581D01*
X73594124Y-84298405D01*
X73585404Y-84303897D01*
X73542891Y-84335817D01*
X73534438Y-84347142D01*
X58000500Y-84347142D01*
X58000500Y-77877790D01*
X72402931Y-77877790D01*
X72413915Y-78157334D01*
X72414715Y-78161714D01*
X72446767Y-78337215D01*
X72464176Y-78432542D01*
X72552714Y-78697922D01*
X72677761Y-78948180D01*
X72836822Y-79178322D01*
X73026723Y-79383756D01*
X73030177Y-79386568D01*
X73240219Y-79557569D01*
X73240223Y-79557572D01*
X73243676Y-79560383D01*
X73247498Y-79562684D01*
X73409746Y-79660365D01*
X73483351Y-79704679D01*
X73583311Y-79747007D01*
X73736864Y-79812029D01*
X73736869Y-79812031D01*
X73740967Y-79813766D01*
X73745264Y-79814905D01*
X73745269Y-79814907D01*
X73876175Y-79849615D01*
X74011383Y-79885465D01*
X74015800Y-79885988D01*
X74015801Y-79885988D01*
X74100208Y-79895978D01*
X74289204Y-79918347D01*
X74568886Y-79911756D01*
X74723699Y-79885988D01*
X74840459Y-79866554D01*
X74840463Y-79866553D01*
X74844849Y-79865823D01*
X74849090Y-79864482D01*
X74849093Y-79864481D01*
X75107342Y-79782808D01*
X75107344Y-79782807D01*
X75111588Y-79781465D01*
X75115599Y-79779539D01*
X75115604Y-79779537D01*
X75359760Y-79662295D01*
X75359761Y-79662294D01*
X75363779Y-79660365D01*
X75513412Y-79560383D01*
X75584468Y-79512905D01*
X75652221Y-79491690D01*
X75720688Y-79510473D01*
X75734020Y-79519957D01*
X75780219Y-79557569D01*
X75780223Y-79557572D01*
X75783676Y-79560383D01*
X75787498Y-79562684D01*
X75949746Y-79660365D01*
X76023351Y-79704679D01*
X76123311Y-79747007D01*
X76276864Y-79812029D01*
X76276869Y-79812031D01*
X76280967Y-79813766D01*
X76285264Y-79814905D01*
X76285269Y-79814907D01*
X76416175Y-79849615D01*
X76551383Y-79885465D01*
X76555800Y-79885988D01*
X76555801Y-79885988D01*
X76640208Y-79895978D01*
X76829204Y-79918347D01*
X77108886Y-79911756D01*
X77263699Y-79885988D01*
X77380459Y-79866554D01*
X77380463Y-79866553D01*
X77384849Y-79865823D01*
X77389090Y-79864482D01*
X77389093Y-79864481D01*
X77647342Y-79782808D01*
X77647344Y-79782807D01*
X77651588Y-79781465D01*
X77655599Y-79779539D01*
X77655604Y-79779537D01*
X77899760Y-79662295D01*
X77899761Y-79662294D01*
X77903779Y-79660365D01*
X78020747Y-79582209D01*
X78132683Y-79507416D01*
X78132687Y-79507413D01*
X78136391Y-79504938D01*
X78344782Y-79318287D01*
X78524795Y-79104136D01*
X78672838Y-78866757D01*
X78785958Y-78610886D01*
X78861896Y-78341630D01*
X78899138Y-78064360D01*
X78903046Y-77940000D01*
X78898641Y-77877790D01*
X80022931Y-77877790D01*
X80033915Y-78157334D01*
X80034715Y-78161714D01*
X80066767Y-78337215D01*
X80084176Y-78432542D01*
X80172714Y-78697922D01*
X80297761Y-78948180D01*
X80456822Y-79178322D01*
X80646723Y-79383756D01*
X80650177Y-79386568D01*
X80860219Y-79557569D01*
X80860223Y-79557572D01*
X80863676Y-79560383D01*
X80867498Y-79562684D01*
X81029746Y-79660365D01*
X81103351Y-79704679D01*
X81203311Y-79747007D01*
X81356864Y-79812029D01*
X81356869Y-79812031D01*
X81360967Y-79813766D01*
X81365264Y-79814905D01*
X81365269Y-79814907D01*
X81496175Y-79849615D01*
X81631383Y-79885465D01*
X81635800Y-79885988D01*
X81635801Y-79885988D01*
X81720208Y-79895978D01*
X81909204Y-79918347D01*
X82188886Y-79911756D01*
X82343699Y-79885988D01*
X82460459Y-79866554D01*
X82460463Y-79866553D01*
X82464849Y-79865823D01*
X82469090Y-79864482D01*
X82469093Y-79864481D01*
X82727342Y-79782808D01*
X82727344Y-79782807D01*
X82731588Y-79781465D01*
X82735599Y-79779539D01*
X82735604Y-79779537D01*
X82979760Y-79662295D01*
X82979761Y-79662294D01*
X82983779Y-79660365D01*
X83100747Y-79582209D01*
X83212683Y-79507416D01*
X83212687Y-79507413D01*
X83216391Y-79504938D01*
X83424782Y-79318287D01*
X83604795Y-79104136D01*
X83752838Y-78866757D01*
X83865958Y-78610886D01*
X83941896Y-78341630D01*
X83979138Y-78064360D01*
X83983046Y-77940000D01*
X83963287Y-77660939D01*
X83951012Y-77603921D01*
X83905342Y-77391792D01*
X83905342Y-77391790D01*
X83904406Y-77387445D01*
X83807576Y-77124977D01*
X83674730Y-76878770D01*
X83508519Y-76653738D01*
X83462577Y-76607068D01*
X83315390Y-76457552D01*
X83312259Y-76454371D01*
X83308720Y-76451670D01*
X83308713Y-76451664D01*
X83093405Y-76287347D01*
X83089865Y-76284645D01*
X82845775Y-76147948D01*
X82841636Y-76146347D01*
X82841628Y-76146343D01*
X82648354Y-76071572D01*
X82584860Y-76047008D01*
X82580535Y-76046005D01*
X82580530Y-76046004D01*
X82430665Y-76011267D01*
X82312326Y-75983838D01*
X82033609Y-75959698D01*
X82029174Y-75959942D01*
X82029170Y-75959942D01*
X81915178Y-75966216D01*
X81754272Y-75975071D01*
X81749909Y-75975939D01*
X81749908Y-75975939D01*
X81484255Y-76028781D01*
X81484253Y-76028782D01*
X81479887Y-76029650D01*
X81215930Y-76122345D01*
X80967668Y-76251307D01*
X80924064Y-76282467D01*
X80743673Y-76411375D01*
X80743669Y-76411378D01*
X80740052Y-76413963D01*
X80537627Y-76607068D01*
X80534871Y-76610564D01*
X80534870Y-76610565D01*
X80498004Y-76657330D01*
X80364429Y-76826768D01*
X80334224Y-76878770D01*
X80226153Y-77064826D01*
X80226150Y-77064832D01*
X80223915Y-77068680D01*
X80222241Y-77072813D01*
X80120562Y-77323846D01*
X80120559Y-77323854D01*
X80118889Y-77327978D01*
X80051446Y-77599487D01*
X80022931Y-77877790D01*
X78898641Y-77877790D01*
X78883287Y-77660939D01*
X78871012Y-77603921D01*
X78825342Y-77391792D01*
X78825342Y-77391790D01*
X78824406Y-77387445D01*
X78727576Y-77124977D01*
X78594730Y-76878770D01*
X78428519Y-76653738D01*
X78382577Y-76607068D01*
X78235390Y-76457552D01*
X78232259Y-76454371D01*
X78228720Y-76451670D01*
X78228713Y-76451664D01*
X78013405Y-76287347D01*
X78009865Y-76284645D01*
X77765775Y-76147948D01*
X77761636Y-76146347D01*
X77761628Y-76146343D01*
X77568354Y-76071572D01*
X77504860Y-76047008D01*
X77500535Y-76046005D01*
X77500530Y-76046004D01*
X77350665Y-76011267D01*
X77232326Y-75983838D01*
X76953609Y-75959698D01*
X76949174Y-75959942D01*
X76949170Y-75959942D01*
X76835178Y-75966216D01*
X76674272Y-75975071D01*
X76669909Y-75975939D01*
X76669908Y-75975939D01*
X76404255Y-76028781D01*
X76404253Y-76028782D01*
X76399887Y-76029650D01*
X76135930Y-76122345D01*
X75887668Y-76251307D01*
X75884053Y-76253890D01*
X75884047Y-76253894D01*
X75725060Y-76367508D01*
X75658007Y-76390840D01*
X75588984Y-76374217D01*
X75575360Y-76365156D01*
X75473405Y-76287347D01*
X75469865Y-76284645D01*
X75225775Y-76147948D01*
X75221636Y-76146347D01*
X75221628Y-76146343D01*
X75028354Y-76071572D01*
X74964860Y-76047008D01*
X74960535Y-76046005D01*
X74960530Y-76046004D01*
X74810665Y-76011267D01*
X74692326Y-75983838D01*
X74413609Y-75959698D01*
X74409174Y-75959942D01*
X74409170Y-75959942D01*
X74295178Y-75966216D01*
X74134272Y-75975071D01*
X74129909Y-75975939D01*
X74129908Y-75975939D01*
X73864255Y-76028781D01*
X73864253Y-76028782D01*
X73859887Y-76029650D01*
X73595930Y-76122345D01*
X73347668Y-76251307D01*
X73304064Y-76282467D01*
X73123673Y-76411375D01*
X73123669Y-76411378D01*
X73120052Y-76413963D01*
X72917627Y-76607068D01*
X72914871Y-76610564D01*
X72914870Y-76610565D01*
X72878004Y-76657330D01*
X72744429Y-76826768D01*
X72714224Y-76878770D01*
X72606153Y-77064826D01*
X72606150Y-77064832D01*
X72603915Y-77068680D01*
X72602241Y-77072813D01*
X72500562Y-77323846D01*
X72500559Y-77323854D01*
X72498889Y-77327978D01*
X72431446Y-77599487D01*
X72402931Y-77877790D01*
X58000500Y-77877790D01*
X58000500Y-72977428D01*
X85094593Y-72977428D01*
X85111472Y-73270159D01*
X85112297Y-73274364D01*
X85112298Y-73274372D01*
X85152343Y-73478481D01*
X85167923Y-73557891D01*
X85262901Y-73835300D01*
X85394649Y-74097251D01*
X85560729Y-74338900D01*
X85758068Y-74555772D01*
X85761357Y-74558522D01*
X85979722Y-74741104D01*
X85979727Y-74741108D01*
X85983014Y-74743856D01*
X86040876Y-74780153D01*
X86227765Y-74897389D01*
X86227769Y-74897391D01*
X86231405Y-74899672D01*
X86235315Y-74901437D01*
X86235316Y-74901438D01*
X86494732Y-75018569D01*
X86494736Y-75018571D01*
X86498644Y-75020335D01*
X86502764Y-75021555D01*
X86502763Y-75021555D01*
X86775674Y-75102395D01*
X86775678Y-75102396D01*
X86779787Y-75103613D01*
X86784021Y-75104261D01*
X86784026Y-75104262D01*
X87065388Y-75147316D01*
X87065390Y-75147316D01*
X87069630Y-75147965D01*
X87218874Y-75150310D01*
X87358520Y-75152504D01*
X87358526Y-75152504D01*
X87362811Y-75152571D01*
X87653905Y-75117345D01*
X87937525Y-75042939D01*
X88208422Y-74930729D01*
X88461585Y-74782793D01*
X88508332Y-74746139D01*
X88688956Y-74604511D01*
X88692328Y-74601867D01*
X88896381Y-74391300D01*
X89069970Y-74154988D01*
X89209881Y-73897304D01*
X89313526Y-73623015D01*
X89378987Y-73337198D01*
X89405052Y-73045142D01*
X89405525Y-73000000D01*
X89403986Y-72977428D01*
X89694593Y-72977428D01*
X89711472Y-73270159D01*
X89712297Y-73274364D01*
X89712298Y-73274372D01*
X89752343Y-73478481D01*
X89767923Y-73557891D01*
X89862901Y-73835300D01*
X89994649Y-74097251D01*
X90160729Y-74338900D01*
X90358068Y-74555772D01*
X90361357Y-74558522D01*
X90579722Y-74741104D01*
X90579727Y-74741108D01*
X90583014Y-74743856D01*
X90640876Y-74780153D01*
X90827765Y-74897389D01*
X90827769Y-74897391D01*
X90831405Y-74899672D01*
X90835315Y-74901437D01*
X90835316Y-74901438D01*
X91094732Y-75018569D01*
X91094736Y-75018571D01*
X91098644Y-75020335D01*
X91102764Y-75021555D01*
X91102763Y-75021555D01*
X91375674Y-75102395D01*
X91375678Y-75102396D01*
X91379787Y-75103613D01*
X91384021Y-75104261D01*
X91384026Y-75104262D01*
X91665388Y-75147316D01*
X91665390Y-75147316D01*
X91669630Y-75147965D01*
X91818874Y-75150310D01*
X91958520Y-75152504D01*
X91958526Y-75152504D01*
X91962811Y-75152571D01*
X92253905Y-75117345D01*
X92537525Y-75042939D01*
X92808422Y-74930729D01*
X93061585Y-74782793D01*
X93108332Y-74746139D01*
X93288956Y-74604511D01*
X93292328Y-74601867D01*
X93496381Y-74391300D01*
X93669970Y-74154988D01*
X93809881Y-73897304D01*
X93913526Y-73623015D01*
X93978987Y-73337198D01*
X94005052Y-73045142D01*
X94005525Y-73000000D01*
X93985582Y-72707462D01*
X93926121Y-72420337D01*
X93828243Y-72143938D01*
X93693759Y-71883380D01*
X93525158Y-71643484D01*
X93522233Y-71640336D01*
X93328479Y-71431833D01*
X93328476Y-71431831D01*
X93325558Y-71428690D01*
X93098655Y-71242972D01*
X92848646Y-71089766D01*
X92580158Y-70971908D01*
X92553707Y-70964373D01*
X92302287Y-70892754D01*
X92302288Y-70892754D01*
X92298159Y-70891578D01*
X92072609Y-70859478D01*
X92012119Y-70850869D01*
X92012117Y-70850869D01*
X92007867Y-70850264D01*
X92003578Y-70850242D01*
X92003571Y-70850241D01*
X91718939Y-70848750D01*
X91718932Y-70848750D01*
X91714653Y-70848728D01*
X91710408Y-70849287D01*
X91710406Y-70849287D01*
X91659296Y-70856016D01*
X91423945Y-70887001D01*
X91141120Y-70964373D01*
X90871412Y-71079413D01*
X90867731Y-71081616D01*
X90623495Y-71227788D01*
X90623491Y-71227791D01*
X90619813Y-71229992D01*
X90390977Y-71413324D01*
X90373413Y-71431833D01*
X90226856Y-71586272D01*
X90189139Y-71626017D01*
X90018035Y-71864134D01*
X89880830Y-72123269D01*
X89860634Y-72178458D01*
X89800779Y-72342020D01*
X89780063Y-72398628D01*
X89717599Y-72685114D01*
X89694593Y-72977428D01*
X89403986Y-72977428D01*
X89385582Y-72707462D01*
X89326121Y-72420337D01*
X89228243Y-72143938D01*
X89093759Y-71883380D01*
X88925158Y-71643484D01*
X88922233Y-71640336D01*
X88728479Y-71431833D01*
X88728476Y-71431831D01*
X88725558Y-71428690D01*
X88498655Y-71242972D01*
X88248646Y-71089766D01*
X87980158Y-70971908D01*
X87953707Y-70964373D01*
X87702287Y-70892754D01*
X87702288Y-70892754D01*
X87698159Y-70891578D01*
X87472609Y-70859478D01*
X87412119Y-70850869D01*
X87412117Y-70850869D01*
X87407867Y-70850264D01*
X87403578Y-70850242D01*
X87403571Y-70850241D01*
X87118939Y-70848750D01*
X87118932Y-70848750D01*
X87114653Y-70848728D01*
X87110408Y-70849287D01*
X87110406Y-70849287D01*
X87059296Y-70856016D01*
X86823945Y-70887001D01*
X86541120Y-70964373D01*
X86271412Y-71079413D01*
X86267731Y-71081616D01*
X86023495Y-71227788D01*
X86023491Y-71227791D01*
X86019813Y-71229992D01*
X85790977Y-71413324D01*
X85773413Y-71431833D01*
X85626856Y-71586272D01*
X85589139Y-71626017D01*
X85418035Y-71864134D01*
X85280830Y-72123269D01*
X85260634Y-72178458D01*
X85200779Y-72342020D01*
X85180063Y-72398628D01*
X85117599Y-72685114D01*
X85094593Y-72977428D01*
X58000500Y-72977428D01*
X58000500Y-69925471D01*
X69057455Y-69925471D01*
X69082414Y-70242607D01*
X69145836Y-70554338D01*
X69147056Y-70557983D01*
X69244525Y-70849287D01*
X69246776Y-70856016D01*
X69248425Y-70859474D01*
X69248427Y-70859478D01*
X69358269Y-71089766D01*
X69383729Y-71143143D01*
X69554653Y-71411440D01*
X69757000Y-71656907D01*
X69987754Y-71875884D01*
X70243475Y-72065108D01*
X70339563Y-72119472D01*
X70516992Y-72219857D01*
X70516996Y-72219859D01*
X70520349Y-72221756D01*
X70814251Y-72343494D01*
X70915583Y-72371596D01*
X71117082Y-72427477D01*
X71117090Y-72427479D01*
X71120798Y-72428507D01*
X71435421Y-72475528D01*
X71438719Y-72475672D01*
X71547927Y-72480440D01*
X71547932Y-72480440D01*
X71549304Y-72480500D01*
X71743299Y-72480500D01*
X71980024Y-72466021D01*
X71983807Y-72465320D01*
X71983814Y-72465319D01*
X72182431Y-72428507D01*
X72292813Y-72408049D01*
X72502232Y-72342020D01*
X72592535Y-72313548D01*
X72592538Y-72313547D01*
X72596207Y-72312390D01*
X72599704Y-72310796D01*
X72599710Y-72310794D01*
X72882173Y-72182068D01*
X72882177Y-72182066D01*
X72885681Y-72180469D01*
X73070834Y-72067007D01*
X73153642Y-72016262D01*
X73153645Y-72016260D01*
X73156920Y-72014253D01*
X73159924Y-72011863D01*
X73159929Y-72011860D01*
X73402870Y-71818616D01*
X73405881Y-71816221D01*
X73628852Y-71589324D01*
X73754195Y-71425974D01*
X73820174Y-71339989D01*
X73820179Y-71339981D01*
X73822509Y-71336945D01*
X73934757Y-71146386D01*
X73982013Y-71066162D01*
X73982015Y-71066159D01*
X73983966Y-71062846D01*
X74110815Y-70771114D01*
X74201165Y-70466097D01*
X74253669Y-70152343D01*
X74267545Y-69834529D01*
X74242586Y-69517393D01*
X74179164Y-69205662D01*
X74078224Y-68903984D01*
X74056186Y-68857779D01*
X73942924Y-68620322D01*
X73942922Y-68620318D01*
X73941271Y-68616857D01*
X73770347Y-68348560D01*
X73568000Y-68103093D01*
X73337246Y-67884116D01*
X73081525Y-67694892D01*
X72881180Y-67581542D01*
X72808008Y-67540143D01*
X72808004Y-67540141D01*
X72804651Y-67538244D01*
X72510749Y-67416506D01*
X72409417Y-67388404D01*
X72207918Y-67332523D01*
X72207910Y-67332521D01*
X72204202Y-67331493D01*
X71889579Y-67284472D01*
X71886281Y-67284328D01*
X71777073Y-67279560D01*
X71777068Y-67279560D01*
X71775696Y-67279500D01*
X71581701Y-67279500D01*
X71344976Y-67293979D01*
X71341193Y-67294680D01*
X71341186Y-67294681D01*
X71188582Y-67322965D01*
X71032187Y-67351951D01*
X70852497Y-67408606D01*
X70732465Y-67446452D01*
X70732462Y-67446453D01*
X70728793Y-67447610D01*
X70725296Y-67449204D01*
X70725290Y-67449206D01*
X70442827Y-67577932D01*
X70442823Y-67577934D01*
X70439319Y-67579531D01*
X70436040Y-67581541D01*
X70436037Y-67581542D01*
X70247326Y-67697185D01*
X70168080Y-67745747D01*
X70165076Y-67748137D01*
X70165071Y-67748140D01*
X69976280Y-67898311D01*
X69919119Y-67943779D01*
X69696148Y-68170676D01*
X69693807Y-68173727D01*
X69693806Y-68173728D01*
X69504826Y-68420011D01*
X69504821Y-68420019D01*
X69502491Y-68423055D01*
X69444269Y-68521896D01*
X69386292Y-68620322D01*
X69341034Y-68697154D01*
X69214185Y-68988886D01*
X69213091Y-68992580D01*
X69213089Y-68992585D01*
X69173706Y-69125542D01*
X69123835Y-69293903D01*
X69071331Y-69607657D01*
X69057455Y-69925471D01*
X58000500Y-69925471D01*
X58000500Y-62226500D01*
X58020502Y-62158379D01*
X58074158Y-62111886D01*
X58126500Y-62100500D01*
X85744226Y-62100500D01*
X85812347Y-62120502D01*
G37*
%TD.AperFunction*%
%TD*%
%TA.AperFunction,Conductor*%
%TO.N,Earth*%
G36*
X127292475Y-62120502D02*
G01*
X127338968Y-62174158D01*
X127349072Y-62244432D01*
X127330740Y-62294012D01*
X127204463Y-62492993D01*
X127202779Y-62496572D01*
X127202775Y-62496579D01*
X127072186Y-62774095D01*
X127070497Y-62777685D01*
X126973269Y-63076921D01*
X126914312Y-63385985D01*
X126894556Y-63700000D01*
X126914312Y-64014015D01*
X126973269Y-64323079D01*
X127070497Y-64622315D01*
X127072184Y-64625901D01*
X127072186Y-64625905D01*
X127202775Y-64903421D01*
X127202779Y-64903428D01*
X127204463Y-64907007D01*
X127373053Y-65172663D01*
X127473332Y-65293879D01*
X127522111Y-65352842D01*
X127573610Y-65415094D01*
X127802970Y-65630478D01*
X127806172Y-65632805D01*
X127806174Y-65632806D01*
X128054307Y-65813085D01*
X128054312Y-65813088D01*
X128057516Y-65815416D01*
X128333234Y-65966994D01*
X128474169Y-66022794D01*
X128622092Y-66081361D01*
X128622095Y-66081362D01*
X128625775Y-66082819D01*
X128629609Y-66083803D01*
X128629617Y-66083806D01*
X128812579Y-66130782D01*
X128930527Y-66161066D01*
X128934455Y-66161562D01*
X128934459Y-66161563D01*
X129058375Y-66177217D01*
X129242682Y-66200500D01*
X129557318Y-66200500D01*
X129741625Y-66177217D01*
X129865541Y-66161563D01*
X129865545Y-66161562D01*
X129869473Y-66161066D01*
X129987421Y-66130782D01*
X130170383Y-66083806D01*
X130170391Y-66083803D01*
X130174225Y-66082819D01*
X130177905Y-66081362D01*
X130177908Y-66081361D01*
X130325831Y-66022794D01*
X130466766Y-65966994D01*
X130742484Y-65815416D01*
X130825940Y-65754782D01*
X130892806Y-65730924D01*
X130961958Y-65747004D01*
X130974056Y-65754779D01*
X131057516Y-65815416D01*
X131333234Y-65966994D01*
X131474169Y-66022794D01*
X131622092Y-66081361D01*
X131622095Y-66081362D01*
X131625775Y-66082819D01*
X131629609Y-66083803D01*
X131629617Y-66083806D01*
X131812579Y-66130782D01*
X131930527Y-66161066D01*
X131934455Y-66161562D01*
X131934459Y-66161563D01*
X132058375Y-66177217D01*
X132242682Y-66200500D01*
X132557318Y-66200500D01*
X132741625Y-66177217D01*
X132865541Y-66161563D01*
X132865545Y-66161562D01*
X132869473Y-66161066D01*
X132987421Y-66130782D01*
X133170383Y-66083806D01*
X133170391Y-66083803D01*
X133174225Y-66082819D01*
X133177905Y-66081362D01*
X133177908Y-66081361D01*
X133265638Y-66046626D01*
X133336339Y-66040147D01*
X133370398Y-66052117D01*
X133520869Y-66130782D01*
X133520872Y-66130783D01*
X133526530Y-66133741D01*
X133721913Y-66189766D01*
X133753545Y-66192589D01*
X133839391Y-66200251D01*
X133839397Y-66200251D01*
X133842184Y-66200500D01*
X136957816Y-66200500D01*
X136960603Y-66200251D01*
X136960609Y-66200251D01*
X137046455Y-66192589D01*
X137078087Y-66189766D01*
X137273470Y-66133741D01*
X137453596Y-66039573D01*
X137461390Y-66033217D01*
X137606169Y-65915138D01*
X137611109Y-65911109D01*
X137715939Y-65782574D01*
X137735541Y-65758540D01*
X137735542Y-65758539D01*
X137739573Y-65753596D01*
X137833741Y-65573470D01*
X137889766Y-65378087D01*
X137900500Y-65257816D01*
X137900500Y-65003301D01*
X146287359Y-65003301D01*
X146306257Y-65363896D01*
X146306945Y-65370440D01*
X146363433Y-65727099D01*
X146364802Y-65733537D01*
X146458260Y-66082328D01*
X146460300Y-66088605D01*
X146589704Y-66425714D01*
X146592380Y-66431725D01*
X146756317Y-66753468D01*
X146759613Y-66759177D01*
X146956279Y-67062016D01*
X146960146Y-67067338D01*
X147133678Y-67281634D01*
X147145933Y-67290100D01*
X147157024Y-67283766D01*
X149427978Y-65012812D01*
X149435592Y-64998868D01*
X149435461Y-64997035D01*
X149431210Y-64990420D01*
X147157890Y-62717100D01*
X147144814Y-62709960D01*
X147134446Y-62717418D01*
X146960146Y-62932662D01*
X146956279Y-62937984D01*
X146759613Y-63240823D01*
X146756317Y-63246532D01*
X146592380Y-63568275D01*
X146589704Y-63574286D01*
X146460300Y-63911395D01*
X146458260Y-63917672D01*
X146364802Y-64266463D01*
X146363433Y-64272901D01*
X146306945Y-64629560D01*
X146306257Y-64636104D01*
X146287359Y-64996699D01*
X146287359Y-65003301D01*
X137900500Y-65003301D01*
X137900500Y-62226500D01*
X137920502Y-62158379D01*
X137974158Y-62111886D01*
X138026500Y-62100500D01*
X147450503Y-62100500D01*
X147518624Y-62120502D01*
X147565117Y-62174158D01*
X147575221Y-62244432D01*
X147545727Y-62309012D01*
X147529798Y-62324420D01*
X147518366Y-62333677D01*
X147509900Y-62345933D01*
X147516234Y-62357024D01*
X149787188Y-64627978D01*
X149801132Y-64635592D01*
X149802965Y-64635461D01*
X149809580Y-64631210D01*
X152082900Y-62357890D01*
X152090040Y-62344814D01*
X152082582Y-62334445D01*
X152070202Y-62324420D01*
X152029850Y-62266005D01*
X152027486Y-62195048D01*
X152063859Y-62134077D01*
X152127421Y-62102449D01*
X152149497Y-62100500D01*
X152473500Y-62100500D01*
X152541621Y-62120502D01*
X152588114Y-62174158D01*
X152599500Y-62226500D01*
X152599500Y-62583944D01*
X152579498Y-62652065D01*
X152525842Y-62698558D01*
X152469301Y-62709874D01*
X152454951Y-62709396D01*
X152442976Y-62716234D01*
X150172022Y-64987188D01*
X150164408Y-65001132D01*
X150164539Y-65002965D01*
X150168790Y-65009580D01*
X152442110Y-67282900D01*
X152456055Y-67290515D01*
X152464512Y-67289910D01*
X152533886Y-67305002D01*
X152584088Y-67355204D01*
X152599500Y-67415589D01*
X152599500Y-96920033D01*
X152579498Y-96988154D01*
X152525842Y-97034647D01*
X152455568Y-97044751D01*
X152390988Y-97015257D01*
X152361233Y-96977236D01*
X152243683Y-96746532D01*
X152240387Y-96740823D01*
X152043721Y-96437984D01*
X152039854Y-96432662D01*
X151866322Y-96218366D01*
X151854067Y-96209900D01*
X151842976Y-96216234D01*
X149572022Y-98487188D01*
X149564408Y-98501132D01*
X149564539Y-98502965D01*
X149568790Y-98509580D01*
X151842110Y-100782900D01*
X151855186Y-100790040D01*
X151865554Y-100782582D01*
X152039854Y-100567338D01*
X152043721Y-100562016D01*
X152240387Y-100259177D01*
X152243683Y-100253468D01*
X152361233Y-100022764D01*
X152409981Y-99971149D01*
X152478896Y-99954083D01*
X152546098Y-99976984D01*
X152590250Y-100032581D01*
X152599500Y-100079967D01*
X152599500Y-101273500D01*
X152579498Y-101341621D01*
X152525842Y-101388114D01*
X152473500Y-101399500D01*
X151549497Y-101399500D01*
X151481376Y-101379498D01*
X151434883Y-101325842D01*
X151424779Y-101255568D01*
X151454273Y-101190988D01*
X151470202Y-101175580D01*
X151481634Y-101166323D01*
X151490100Y-101154067D01*
X151483766Y-101142976D01*
X149212812Y-98872022D01*
X149198868Y-98864408D01*
X149197035Y-98864539D01*
X149190420Y-98868790D01*
X146917100Y-101142110D01*
X146909960Y-101155186D01*
X146917418Y-101165555D01*
X146929798Y-101175580D01*
X146970150Y-101233995D01*
X146972514Y-101304952D01*
X146936141Y-101365923D01*
X146872579Y-101397551D01*
X146850503Y-101399500D01*
X137507055Y-101399500D01*
X137438934Y-101379498D01*
X137392441Y-101325842D01*
X137382337Y-101255568D01*
X137409970Y-101193185D01*
X137424424Y-101175713D01*
X137424425Y-101175711D01*
X137426947Y-101172663D01*
X137595537Y-100907007D01*
X137597221Y-100903428D01*
X137597225Y-100903421D01*
X137727814Y-100625905D01*
X137727816Y-100625901D01*
X137729503Y-100622315D01*
X137826731Y-100323079D01*
X137885688Y-100014015D01*
X137905444Y-99700000D01*
X137885688Y-99385985D01*
X137826731Y-99076921D01*
X137729503Y-98777685D01*
X137727814Y-98774095D01*
X137597225Y-98496579D01*
X137597221Y-98496572D01*
X137595537Y-98492993D01*
X137426947Y-98227337D01*
X137226390Y-97984906D01*
X136997030Y-97769522D01*
X136992820Y-97766463D01*
X136745693Y-97586915D01*
X136745688Y-97586912D01*
X136742484Y-97584584D01*
X136466766Y-97433006D01*
X136251770Y-97347883D01*
X136177908Y-97318639D01*
X136177905Y-97318638D01*
X136174225Y-97317181D01*
X136170391Y-97316197D01*
X136170383Y-97316194D01*
X135969042Y-97264499D01*
X135869473Y-97238934D01*
X135865545Y-97238438D01*
X135865541Y-97238437D01*
X135741625Y-97222783D01*
X135557318Y-97199500D01*
X135242682Y-97199500D01*
X135058375Y-97222783D01*
X134934459Y-97238437D01*
X134934455Y-97238438D01*
X134930527Y-97238934D01*
X134830958Y-97264499D01*
X134629617Y-97316194D01*
X134629609Y-97316197D01*
X134625775Y-97317181D01*
X134622095Y-97318638D01*
X134622092Y-97318639D01*
X134548230Y-97347883D01*
X134333234Y-97433006D01*
X134057516Y-97584584D01*
X133974060Y-97645218D01*
X133907194Y-97669076D01*
X133838042Y-97652996D01*
X133825944Y-97645221D01*
X133742484Y-97584584D01*
X133466766Y-97433006D01*
X133251770Y-97347883D01*
X133177908Y-97318639D01*
X133177905Y-97318638D01*
X133174225Y-97317181D01*
X133170391Y-97316197D01*
X133170383Y-97316194D01*
X132969042Y-97264499D01*
X132869473Y-97238934D01*
X132865545Y-97238438D01*
X132865541Y-97238437D01*
X132741625Y-97222783D01*
X132557318Y-97199500D01*
X132242682Y-97199500D01*
X132058375Y-97222783D01*
X131934459Y-97238437D01*
X131934455Y-97238438D01*
X131930527Y-97238934D01*
X131830958Y-97264499D01*
X131629617Y-97316194D01*
X131629609Y-97316197D01*
X131625775Y-97317181D01*
X131622095Y-97318638D01*
X131622092Y-97318639D01*
X131534362Y-97353374D01*
X131463661Y-97359853D01*
X131429602Y-97347883D01*
X131279131Y-97269218D01*
X131279127Y-97269216D01*
X131273470Y-97266259D01*
X131078087Y-97210234D01*
X131046455Y-97207411D01*
X130960609Y-97199749D01*
X130960603Y-97199749D01*
X130957816Y-97199500D01*
X127842184Y-97199500D01*
X127839397Y-97199749D01*
X127839391Y-97199749D01*
X127753545Y-97207411D01*
X127721913Y-97210234D01*
X127526530Y-97266259D01*
X127346404Y-97360427D01*
X127341461Y-97364458D01*
X127341460Y-97364459D01*
X127276214Y-97417672D01*
X127188891Y-97488891D01*
X127184862Y-97493831D01*
X127071817Y-97632439D01*
X127060427Y-97646404D01*
X126966259Y-97826530D01*
X126910234Y-98021913D01*
X126899500Y-98142184D01*
X126899500Y-101257816D01*
X126899750Y-101260616D01*
X126899900Y-101262302D01*
X126899838Y-101262611D01*
X126899874Y-101263409D01*
X126899678Y-101263418D01*
X126886032Y-101331931D01*
X126836720Y-101383008D01*
X126774399Y-101399500D01*
X121414625Y-101399500D01*
X121346504Y-101379498D01*
X121300011Y-101325842D01*
X121289907Y-101255568D01*
X121313535Y-101198288D01*
X121317772Y-101192594D01*
X121317775Y-101192589D01*
X121319779Y-101189896D01*
X121329268Y-101173819D01*
X121335647Y-101164072D01*
X121344612Y-101151665D01*
X121344622Y-101151649D01*
X121346579Y-101148941D01*
X121426576Y-101008975D01*
X121427447Y-101007476D01*
X121507685Y-100871530D01*
X121509388Y-100868645D01*
X121510778Y-100865589D01*
X121517116Y-100851650D01*
X121522420Y-100841286D01*
X121530015Y-100827996D01*
X121530019Y-100827988D01*
X121531685Y-100825073D01*
X121596349Y-100677413D01*
X121597061Y-100675818D01*
X121662399Y-100532115D01*
X121662400Y-100532112D01*
X121663786Y-100529064D01*
X121669665Y-100511342D01*
X121673836Y-100500475D01*
X121679982Y-100486439D01*
X121681326Y-100483370D01*
X121682334Y-100480182D01*
X121682338Y-100480172D01*
X121729918Y-100329724D01*
X121730460Y-100328051D01*
X121780168Y-100178187D01*
X121780170Y-100178180D01*
X121781225Y-100174999D01*
X121781935Y-100171727D01*
X121781940Y-100171710D01*
X121785187Y-100156754D01*
X121788183Y-100145492D01*
X121792799Y-100130897D01*
X121792801Y-100130889D01*
X121793810Y-100127699D01*
X121825800Y-99969760D01*
X121826161Y-99968039D01*
X121859663Y-99813739D01*
X121859664Y-99813732D01*
X121860375Y-99810458D01*
X121862375Y-99791894D01*
X121864156Y-99780386D01*
X121867862Y-99762090D01*
X121880015Y-99632321D01*
X121882890Y-99601623D01*
X121883066Y-99599874D01*
X121900066Y-99442094D01*
X121900338Y-99439572D01*
X121900500Y-99433586D01*
X121900500Y-99419461D01*
X121901049Y-99407713D01*
X121902330Y-99394032D01*
X121902644Y-99390681D01*
X121902532Y-99382085D01*
X121900511Y-99227745D01*
X121900500Y-99226096D01*
X121900500Y-95955186D01*
X142409960Y-95955186D01*
X142417418Y-95965554D01*
X142632662Y-96139854D01*
X142637984Y-96143721D01*
X142940823Y-96340387D01*
X142946532Y-96343683D01*
X143268275Y-96507620D01*
X143274286Y-96510296D01*
X143611395Y-96639700D01*
X143617672Y-96641740D01*
X143966463Y-96735198D01*
X143972901Y-96736567D01*
X144329560Y-96793055D01*
X144336104Y-96793743D01*
X144696699Y-96812641D01*
X144703301Y-96812641D01*
X145063896Y-96793743D01*
X145070440Y-96793055D01*
X145427099Y-96736567D01*
X145433537Y-96735198D01*
X145782328Y-96641740D01*
X145788605Y-96639700D01*
X146008255Y-96555384D01*
X146079020Y-96549645D01*
X146141653Y-96583075D01*
X146176270Y-96645061D01*
X146171880Y-96715921D01*
X146160987Y-96737815D01*
X146161259Y-96737972D01*
X146156317Y-96746532D01*
X145992380Y-97068275D01*
X145989704Y-97074286D01*
X145860300Y-97411395D01*
X145858260Y-97417672D01*
X145764802Y-97766463D01*
X145763433Y-97772901D01*
X145706945Y-98129560D01*
X145706257Y-98136104D01*
X145687359Y-98496699D01*
X145687359Y-98503301D01*
X145706257Y-98863896D01*
X145706945Y-98870440D01*
X145763433Y-99227099D01*
X145764802Y-99233537D01*
X145858260Y-99582328D01*
X145860300Y-99588605D01*
X145989704Y-99925714D01*
X145992380Y-99931725D01*
X146156317Y-100253468D01*
X146159613Y-100259177D01*
X146356279Y-100562016D01*
X146360146Y-100567338D01*
X146533678Y-100781634D01*
X146545933Y-100790100D01*
X146557024Y-100783766D01*
X148827978Y-98512812D01*
X148835592Y-98498868D01*
X148835461Y-98497035D01*
X148831210Y-98490420D01*
X147519914Y-97179124D01*
X147485888Y-97116812D01*
X147490953Y-97045997D01*
X147519914Y-97000934D01*
X147700934Y-96819914D01*
X147763246Y-96785888D01*
X147834061Y-96790953D01*
X147879124Y-96819914D01*
X149187188Y-98127978D01*
X149201132Y-98135592D01*
X149202965Y-98135461D01*
X149209580Y-98131210D01*
X151482900Y-95857890D01*
X151490040Y-95844814D01*
X151482582Y-95834446D01*
X151267338Y-95660146D01*
X151262016Y-95656279D01*
X150959177Y-95459613D01*
X150953468Y-95456317D01*
X150631725Y-95292380D01*
X150625714Y-95289704D01*
X150288605Y-95160300D01*
X150282328Y-95158260D01*
X149933537Y-95064802D01*
X149927099Y-95063433D01*
X149570440Y-95006945D01*
X149563896Y-95006257D01*
X149203301Y-94987359D01*
X149196699Y-94987359D01*
X148836104Y-95006257D01*
X148829560Y-95006945D01*
X148472901Y-95063433D01*
X148466463Y-95064802D01*
X148117672Y-95158260D01*
X148111395Y-95160300D01*
X147891745Y-95244616D01*
X147820980Y-95250355D01*
X147758347Y-95216925D01*
X147723730Y-95154939D01*
X147728120Y-95084079D01*
X147739013Y-95062185D01*
X147738741Y-95062028D01*
X147743683Y-95053468D01*
X147907620Y-94731725D01*
X147910296Y-94725714D01*
X148039700Y-94388605D01*
X148041740Y-94382328D01*
X148135198Y-94033537D01*
X148136567Y-94027099D01*
X148193055Y-93670440D01*
X148193743Y-93663896D01*
X148212641Y-93303301D01*
X148212641Y-93296699D01*
X148193743Y-92936104D01*
X148193055Y-92929560D01*
X148136567Y-92572901D01*
X148135198Y-92566463D01*
X148041740Y-92217672D01*
X148039700Y-92211395D01*
X147910296Y-91874286D01*
X147907620Y-91868275D01*
X147743683Y-91546532D01*
X147740387Y-91540823D01*
X147543721Y-91237984D01*
X147539854Y-91232662D01*
X147366322Y-91018366D01*
X147354067Y-91009900D01*
X147342976Y-91016234D01*
X145072022Y-93287188D01*
X145064408Y-93301132D01*
X145064539Y-93302965D01*
X145068790Y-93309580D01*
X146380086Y-94620876D01*
X146414112Y-94683188D01*
X146409047Y-94754003D01*
X146380086Y-94799066D01*
X146199066Y-94980086D01*
X146136754Y-95014112D01*
X146065939Y-95009047D01*
X146020876Y-94980086D01*
X144712812Y-93672022D01*
X144698868Y-93664408D01*
X144697035Y-93664539D01*
X144690420Y-93668790D01*
X142417100Y-95942110D01*
X142409960Y-95955186D01*
X121900500Y-95955186D01*
X121900500Y-94421928D01*
X121900784Y-94413468D01*
X121904901Y-94352290D01*
X121904901Y-94352287D01*
X121905126Y-94348944D01*
X121900597Y-94233671D01*
X121900500Y-94228724D01*
X121900500Y-94206761D01*
X121896891Y-94139045D01*
X121896810Y-94137298D01*
X121890613Y-93979552D01*
X121890613Y-93979548D01*
X121890481Y-93976197D01*
X121889995Y-93972887D01*
X121889993Y-93972863D01*
X121887770Y-93957720D01*
X121886613Y-93946128D01*
X121885799Y-93930847D01*
X121885798Y-93930841D01*
X121885620Y-93927495D01*
X121859973Y-93768266D01*
X121859713Y-93766571D01*
X121836797Y-93610442D01*
X121836797Y-93610440D01*
X121836309Y-93607118D01*
X121831648Y-93589029D01*
X121829267Y-93577627D01*
X121827772Y-93568344D01*
X121826300Y-93559208D01*
X121807055Y-93488616D01*
X121783893Y-93403661D01*
X121783442Y-93401960D01*
X121774496Y-93367241D01*
X121758019Y-93303301D01*
X121744061Y-93249133D01*
X121744059Y-93249128D01*
X121743224Y-93245886D01*
X121741451Y-93241157D01*
X121736675Y-93228416D01*
X121733094Y-93217329D01*
X121729067Y-93202556D01*
X121729062Y-93202541D01*
X121728181Y-93199309D01*
X121720674Y-93180103D01*
X121669470Y-93049113D01*
X121668841Y-93047469D01*
X121613457Y-92899730D01*
X121612280Y-92896590D01*
X121610775Y-92893591D01*
X121603909Y-92879909D01*
X121599172Y-92869270D01*
X121593596Y-92855006D01*
X121593592Y-92854997D01*
X121592372Y-92851876D01*
X121518066Y-92708830D01*
X121517267Y-92707265D01*
X121498037Y-92668947D01*
X121444960Y-92563186D01*
X121443075Y-92560255D01*
X121434858Y-92547480D01*
X121429013Y-92537398D01*
X121420413Y-92520841D01*
X121331330Y-92386506D01*
X121330374Y-92385042D01*
X121244968Y-92252263D01*
X121243158Y-92249449D01*
X121241053Y-92246835D01*
X121231446Y-92234907D01*
X121224566Y-92225506D01*
X121216110Y-92212754D01*
X121216096Y-92212735D01*
X121214251Y-92209953D01*
X121212116Y-92207377D01*
X121212108Y-92207366D01*
X121111382Y-92085826D01*
X121110301Y-92084505D01*
X121009160Y-91958935D01*
X121005042Y-91954588D01*
X120995067Y-91944613D01*
X120987148Y-91935918D01*
X120978372Y-91925328D01*
X120978358Y-91925313D01*
X120976220Y-91922733D01*
X120859378Y-91808910D01*
X120858274Y-91807820D01*
X119750454Y-90700000D01*
X126894556Y-90700000D01*
X126914312Y-91014015D01*
X126973269Y-91323079D01*
X126974496Y-91326855D01*
X127045874Y-91546532D01*
X127070497Y-91622315D01*
X127072184Y-91625901D01*
X127072186Y-91625905D01*
X127202775Y-91903421D01*
X127202779Y-91903428D01*
X127204463Y-91907007D01*
X127373053Y-92172663D01*
X127473331Y-92293878D01*
X127537490Y-92371432D01*
X127573610Y-92415094D01*
X127802970Y-92630478D01*
X127806172Y-92632805D01*
X127806174Y-92632806D01*
X128054307Y-92813085D01*
X128054312Y-92813088D01*
X128057516Y-92815416D01*
X128123836Y-92851876D01*
X128285124Y-92940545D01*
X128333234Y-92966994D01*
X128492637Y-93030106D01*
X128622092Y-93081361D01*
X128622095Y-93081362D01*
X128625775Y-93082819D01*
X128629609Y-93083803D01*
X128629617Y-93083806D01*
X128818074Y-93132193D01*
X128930527Y-93161066D01*
X128934455Y-93161562D01*
X128934459Y-93161563D01*
X129044737Y-93175494D01*
X129242682Y-93200500D01*
X129557318Y-93200500D01*
X129755263Y-93175494D01*
X129865541Y-93161563D01*
X129865545Y-93161562D01*
X129869473Y-93161066D01*
X129981926Y-93132193D01*
X130170383Y-93083806D01*
X130170391Y-93083803D01*
X130174225Y-93082819D01*
X130177905Y-93081362D01*
X130177908Y-93081361D01*
X130307363Y-93030106D01*
X130466766Y-92966994D01*
X130514877Y-92940545D01*
X130676164Y-92851876D01*
X130742484Y-92815416D01*
X130825940Y-92754782D01*
X130892806Y-92730924D01*
X130961958Y-92747004D01*
X130974056Y-92754779D01*
X131057516Y-92815416D01*
X131123836Y-92851876D01*
X131285124Y-92940545D01*
X131333234Y-92966994D01*
X131492637Y-93030106D01*
X131622092Y-93081361D01*
X131622095Y-93081362D01*
X131625775Y-93082819D01*
X131629609Y-93083803D01*
X131629617Y-93083806D01*
X131818074Y-93132193D01*
X131930527Y-93161066D01*
X131934455Y-93161562D01*
X131934459Y-93161563D01*
X132044737Y-93175494D01*
X132242682Y-93200500D01*
X132557318Y-93200500D01*
X132844759Y-93164188D01*
X132914849Y-93175494D01*
X132949645Y-93200099D01*
X132990703Y-93241157D01*
X132991954Y-93242281D01*
X132991963Y-93242290D01*
X133196198Y-93425863D01*
X133198695Y-93428107D01*
X133501059Y-93646579D01*
X133503957Y-93648235D01*
X133503958Y-93648236D01*
X133789550Y-93811466D01*
X133824927Y-93831686D01*
X133827996Y-93833030D01*
X133828000Y-93833032D01*
X133924456Y-93875272D01*
X134166631Y-93981326D01*
X134169817Y-93982334D01*
X134169826Y-93982337D01*
X134519096Y-94092797D01*
X134519107Y-94092800D01*
X134522301Y-94093810D01*
X134887911Y-94167863D01*
X135259319Y-94202644D01*
X135262684Y-94202600D01*
X135262685Y-94202600D01*
X135628972Y-94197805D01*
X135628975Y-94197805D01*
X135632321Y-94197761D01*
X136002692Y-94153270D01*
X136366238Y-94069672D01*
X136489905Y-94026970D01*
X136715669Y-93949013D01*
X136715675Y-93949011D01*
X136718842Y-93947917D01*
X136969949Y-93830023D01*
X137053475Y-93790808D01*
X137053477Y-93790807D01*
X137056512Y-93789382D01*
X137059370Y-93787647D01*
X137059375Y-93787645D01*
X137372567Y-93597594D01*
X137375423Y-93595861D01*
X137671963Y-93369548D01*
X137674393Y-93367246D01*
X137674399Y-93367241D01*
X137741896Y-93303301D01*
X141187359Y-93303301D01*
X141206257Y-93663896D01*
X141206945Y-93670440D01*
X141263433Y-94027099D01*
X141264802Y-94033537D01*
X141358260Y-94382328D01*
X141360300Y-94388605D01*
X141489704Y-94725714D01*
X141492380Y-94731725D01*
X141656317Y-95053468D01*
X141659613Y-95059177D01*
X141856279Y-95362016D01*
X141860146Y-95367338D01*
X142033678Y-95581634D01*
X142045933Y-95590100D01*
X142057024Y-95583766D01*
X144327978Y-93312812D01*
X144335592Y-93298868D01*
X144335461Y-93297035D01*
X144331210Y-93290420D01*
X142057890Y-91017100D01*
X142044814Y-91009960D01*
X142034446Y-91017418D01*
X141860146Y-91232662D01*
X141856279Y-91237984D01*
X141659613Y-91540823D01*
X141656317Y-91546532D01*
X141492380Y-91868275D01*
X141489704Y-91874286D01*
X141360300Y-92211395D01*
X141358260Y-92217672D01*
X141264802Y-92566463D01*
X141263433Y-92572901D01*
X141206945Y-92929560D01*
X141206257Y-92936104D01*
X141187359Y-93296699D01*
X141187359Y-93303301D01*
X137741896Y-93303301D01*
X137848245Y-93202556D01*
X137942777Y-93113006D01*
X138184795Y-92829136D01*
X138395278Y-92521157D01*
X138397912Y-92516256D01*
X138570252Y-92195514D01*
X138571842Y-92192555D01*
X138712489Y-91847052D01*
X138815623Y-91488559D01*
X138880080Y-91121136D01*
X138905126Y-90748944D01*
X138901079Y-90645933D01*
X142409900Y-90645933D01*
X142416234Y-90657024D01*
X144687188Y-92927978D01*
X144701132Y-92935592D01*
X144702965Y-92935461D01*
X144709580Y-92931210D01*
X146982900Y-90657890D01*
X146990040Y-90644814D01*
X146982582Y-90634446D01*
X146767338Y-90460146D01*
X146762016Y-90456279D01*
X146459177Y-90259613D01*
X146453468Y-90256317D01*
X146131725Y-90092380D01*
X146125714Y-90089704D01*
X145788605Y-89960300D01*
X145782328Y-89958260D01*
X145433537Y-89864802D01*
X145427099Y-89863433D01*
X145070440Y-89806945D01*
X145063896Y-89806257D01*
X144703301Y-89787359D01*
X144696699Y-89787359D01*
X144336104Y-89806257D01*
X144329560Y-89806945D01*
X143972901Y-89863433D01*
X143966463Y-89864802D01*
X143617672Y-89958260D01*
X143611395Y-89960300D01*
X143274286Y-90089704D01*
X143268275Y-90092380D01*
X142946532Y-90256317D01*
X142940823Y-90259613D01*
X142637984Y-90456279D01*
X142632662Y-90460146D01*
X142418366Y-90633678D01*
X142409900Y-90645933D01*
X138901079Y-90645933D01*
X138890866Y-90385985D01*
X138890613Y-90379551D01*
X138890613Y-90379546D01*
X138890481Y-90376198D01*
X138836309Y-90007118D01*
X138835473Y-90003873D01*
X138835471Y-90003864D01*
X138744062Y-89649139D01*
X138743224Y-89645886D01*
X138612280Y-89296590D01*
X138577525Y-89227337D01*
X138446464Y-88966182D01*
X138446460Y-88966175D01*
X138444960Y-88963186D01*
X138420529Y-88925203D01*
X138400500Y-88857041D01*
X138400500Y-85497790D01*
X138937931Y-85497790D01*
X138948915Y-85777334D01*
X138974045Y-85914938D01*
X138983447Y-85966414D01*
X138999176Y-86052542D01*
X139087714Y-86317922D01*
X139089707Y-86321910D01*
X139192775Y-86528181D01*
X139212761Y-86568180D01*
X139371822Y-86798322D01*
X139561723Y-87003756D01*
X139565177Y-87006568D01*
X139775219Y-87177569D01*
X139775223Y-87177572D01*
X139778676Y-87180383D01*
X139782498Y-87182684D01*
X139944746Y-87280365D01*
X140018351Y-87324679D01*
X140118311Y-87367007D01*
X140271864Y-87432029D01*
X140271869Y-87432031D01*
X140275967Y-87433766D01*
X140280264Y-87434905D01*
X140280269Y-87434907D01*
X140404207Y-87467768D01*
X140546383Y-87505465D01*
X140550800Y-87505988D01*
X140550801Y-87505988D01*
X140635208Y-87515978D01*
X140824204Y-87538347D01*
X141103886Y-87531756D01*
X141258699Y-87505988D01*
X141375459Y-87486554D01*
X141375463Y-87486553D01*
X141379849Y-87485823D01*
X141384090Y-87484482D01*
X141384093Y-87484481D01*
X141642342Y-87402808D01*
X141642344Y-87402807D01*
X141646588Y-87401465D01*
X141650599Y-87399539D01*
X141650604Y-87399537D01*
X141894760Y-87282295D01*
X141894761Y-87282294D01*
X141898779Y-87280365D01*
X142015747Y-87202209D01*
X142127683Y-87127416D01*
X142127687Y-87127413D01*
X142131391Y-87124938D01*
X142339782Y-86938287D01*
X142519795Y-86724136D01*
X142667838Y-86486757D01*
X142780958Y-86230886D01*
X142856896Y-85961630D01*
X142881800Y-85776220D01*
X142893711Y-85687542D01*
X142893712Y-85687534D01*
X142894138Y-85684360D01*
X142898046Y-85560000D01*
X142893641Y-85497790D01*
X144017931Y-85497790D01*
X144028915Y-85777334D01*
X144054045Y-85914938D01*
X144063447Y-85966414D01*
X144079176Y-86052542D01*
X144167714Y-86317922D01*
X144169707Y-86321910D01*
X144272775Y-86528181D01*
X144292761Y-86568180D01*
X144451822Y-86798322D01*
X144641723Y-87003756D01*
X144645177Y-87006568D01*
X144855219Y-87177569D01*
X144855223Y-87177572D01*
X144858676Y-87180383D01*
X144862498Y-87182684D01*
X145024746Y-87280365D01*
X145098351Y-87324679D01*
X145198311Y-87367007D01*
X145351864Y-87432029D01*
X145351869Y-87432031D01*
X145355967Y-87433766D01*
X145360264Y-87434905D01*
X145360269Y-87434907D01*
X145484207Y-87467768D01*
X145626383Y-87505465D01*
X145630800Y-87505988D01*
X145630801Y-87505988D01*
X145715208Y-87515978D01*
X145904204Y-87538347D01*
X146183886Y-87531756D01*
X146338699Y-87505988D01*
X146455459Y-87486554D01*
X146455463Y-87486553D01*
X146459849Y-87485823D01*
X146464090Y-87484482D01*
X146464093Y-87484481D01*
X146722342Y-87402808D01*
X146722344Y-87402807D01*
X146726588Y-87401465D01*
X146730599Y-87399539D01*
X146730604Y-87399537D01*
X146974760Y-87282295D01*
X146974761Y-87282294D01*
X146978779Y-87280365D01*
X147128412Y-87180383D01*
X147199468Y-87132905D01*
X147267221Y-87111690D01*
X147335688Y-87130473D01*
X147349020Y-87139957D01*
X147395219Y-87177569D01*
X147395223Y-87177572D01*
X147398676Y-87180383D01*
X147402498Y-87182684D01*
X147564746Y-87280365D01*
X147638351Y-87324679D01*
X147738311Y-87367007D01*
X147891864Y-87432029D01*
X147891869Y-87432031D01*
X147895967Y-87433766D01*
X147900264Y-87434905D01*
X147900269Y-87434907D01*
X148024207Y-87467768D01*
X148166383Y-87505465D01*
X148170800Y-87505988D01*
X148170801Y-87505988D01*
X148255208Y-87515978D01*
X148444204Y-87538347D01*
X148723886Y-87531756D01*
X148878699Y-87505988D01*
X148995459Y-87486554D01*
X148995463Y-87486553D01*
X148999849Y-87485823D01*
X149004090Y-87484482D01*
X149004093Y-87484481D01*
X149262342Y-87402808D01*
X149262344Y-87402807D01*
X149266588Y-87401465D01*
X149270599Y-87399539D01*
X149270604Y-87399537D01*
X149514760Y-87282295D01*
X149514761Y-87282294D01*
X149518779Y-87280365D01*
X149635747Y-87202209D01*
X149747683Y-87127416D01*
X149747687Y-87127413D01*
X149751391Y-87124938D01*
X149959782Y-86938287D01*
X150139795Y-86724136D01*
X150287838Y-86486757D01*
X150400958Y-86230886D01*
X150476896Y-85961630D01*
X150501800Y-85776220D01*
X150513711Y-85687542D01*
X150513712Y-85687534D01*
X150514138Y-85684360D01*
X150518046Y-85560000D01*
X150498287Y-85280939D01*
X150496428Y-85272301D01*
X150440342Y-85011792D01*
X150440342Y-85011790D01*
X150439406Y-85007445D01*
X150342576Y-84744977D01*
X150209730Y-84498770D01*
X150043519Y-84273738D01*
X150024053Y-84253963D01*
X149850390Y-84077552D01*
X149847259Y-84074371D01*
X149843720Y-84071670D01*
X149843713Y-84071664D01*
X149658713Y-83930477D01*
X149624865Y-83904645D01*
X149424489Y-83792429D01*
X149384661Y-83770124D01*
X149384658Y-83770123D01*
X149380775Y-83767948D01*
X149376636Y-83766347D01*
X149376628Y-83766343D01*
X149183354Y-83691572D01*
X149119860Y-83667008D01*
X149115535Y-83666005D01*
X149115530Y-83666004D01*
X148965665Y-83631267D01*
X148847326Y-83603838D01*
X148568609Y-83579698D01*
X148564174Y-83579942D01*
X148564170Y-83579942D01*
X148450178Y-83586216D01*
X148289272Y-83595071D01*
X148284909Y-83595939D01*
X148284908Y-83595939D01*
X148019255Y-83648781D01*
X148019253Y-83648782D01*
X148014887Y-83649650D01*
X147750930Y-83742345D01*
X147502668Y-83871307D01*
X147499053Y-83873890D01*
X147499047Y-83873894D01*
X147340060Y-83987508D01*
X147273007Y-84010840D01*
X147203984Y-83994217D01*
X147190360Y-83985156D01*
X147118713Y-83930477D01*
X147084865Y-83904645D01*
X146884489Y-83792429D01*
X146844661Y-83770124D01*
X146844658Y-83770123D01*
X146840775Y-83767948D01*
X146836636Y-83766347D01*
X146836628Y-83766343D01*
X146643354Y-83691572D01*
X146579860Y-83667008D01*
X146575535Y-83666005D01*
X146575530Y-83666004D01*
X146425665Y-83631267D01*
X146307326Y-83603838D01*
X146028609Y-83579698D01*
X146024174Y-83579942D01*
X146024170Y-83579942D01*
X145910178Y-83586216D01*
X145749272Y-83595071D01*
X145744909Y-83595939D01*
X145744908Y-83595939D01*
X145479255Y-83648781D01*
X145479253Y-83648782D01*
X145474887Y-83649650D01*
X145210930Y-83742345D01*
X144962668Y-83871307D01*
X144886408Y-83925803D01*
X144738673Y-84031375D01*
X144738669Y-84031378D01*
X144735052Y-84033963D01*
X144532627Y-84227068D01*
X144529871Y-84230564D01*
X144529870Y-84230565D01*
X144402192Y-84392524D01*
X144359429Y-84446768D01*
X144329224Y-84498770D01*
X144221153Y-84684826D01*
X144221150Y-84684832D01*
X144218915Y-84688680D01*
X144217241Y-84692813D01*
X144115562Y-84943846D01*
X144115559Y-84943854D01*
X144113889Y-84947978D01*
X144046446Y-85219487D01*
X144017931Y-85497790D01*
X142893641Y-85497790D01*
X142878287Y-85280939D01*
X142876428Y-85272301D01*
X142820342Y-85011792D01*
X142820342Y-85011790D01*
X142819406Y-85007445D01*
X142722576Y-84744977D01*
X142589730Y-84498770D01*
X142423519Y-84273738D01*
X142404053Y-84253963D01*
X142230390Y-84077552D01*
X142227259Y-84074371D01*
X142223720Y-84071670D01*
X142223713Y-84071664D01*
X142038713Y-83930477D01*
X142004865Y-83904645D01*
X141804489Y-83792429D01*
X141764661Y-83770124D01*
X141764658Y-83770123D01*
X141760775Y-83767948D01*
X141756636Y-83766347D01*
X141756628Y-83766343D01*
X141563354Y-83691572D01*
X141499860Y-83667008D01*
X141495535Y-83666005D01*
X141495530Y-83666004D01*
X141345665Y-83631267D01*
X141227326Y-83603838D01*
X140948609Y-83579698D01*
X140944174Y-83579942D01*
X140944170Y-83579942D01*
X140830178Y-83586216D01*
X140669272Y-83595071D01*
X140664909Y-83595939D01*
X140664908Y-83595939D01*
X140399255Y-83648781D01*
X140399253Y-83648782D01*
X140394887Y-83649650D01*
X140130930Y-83742345D01*
X139882668Y-83871307D01*
X139806408Y-83925803D01*
X139658673Y-84031375D01*
X139658669Y-84031378D01*
X139655052Y-84033963D01*
X139452627Y-84227068D01*
X139449871Y-84230564D01*
X139449870Y-84230565D01*
X139322192Y-84392524D01*
X139279429Y-84446768D01*
X139249224Y-84498770D01*
X139141153Y-84684826D01*
X139141150Y-84684832D01*
X139138915Y-84688680D01*
X139137241Y-84692813D01*
X139035562Y-84943846D01*
X139035559Y-84943854D01*
X139033889Y-84947978D01*
X138966446Y-85219487D01*
X138937931Y-85497790D01*
X138400500Y-85497790D01*
X138400500Y-83402144D01*
X138420502Y-83334023D01*
X138437405Y-83313049D01*
X140273049Y-81477405D01*
X140335361Y-81443379D01*
X140362144Y-81440500D01*
X141010739Y-81440500D01*
X141012405Y-81440411D01*
X141012414Y-81440411D01*
X141286673Y-81425798D01*
X141286682Y-81425797D01*
X141290005Y-81425620D01*
X141544478Y-81384632D01*
X141654990Y-81366832D01*
X141654993Y-81366831D01*
X141658292Y-81366300D01*
X141661522Y-81365420D01*
X141661524Y-81365419D01*
X142014945Y-81269066D01*
X142014946Y-81269066D01*
X142018191Y-81268181D01*
X142365624Y-81132372D01*
X142458361Y-81084199D01*
X142693689Y-80961956D01*
X142693692Y-80961954D01*
X142696659Y-80960413D01*
X143007547Y-80754251D01*
X143109416Y-80669828D01*
X143292183Y-80518362D01*
X143292189Y-80518357D01*
X143294767Y-80516220D01*
X143297114Y-80513811D01*
X143552727Y-80251417D01*
X143552735Y-80251408D01*
X143555066Y-80249015D01*
X143761241Y-79986543D01*
X143783426Y-79958301D01*
X143783428Y-79958299D01*
X143785498Y-79955663D01*
X143907147Y-79761361D01*
X143981670Y-79642330D01*
X143981672Y-79642327D01*
X143983451Y-79639485D01*
X144146686Y-79304062D01*
X144147819Y-79300923D01*
X144147823Y-79300914D01*
X144198129Y-79161563D01*
X144240074Y-79104281D01*
X144306328Y-79078770D01*
X144375858Y-79093128D01*
X144420295Y-79132708D01*
X144449284Y-79174651D01*
X144449290Y-79174658D01*
X144451822Y-79178322D01*
X144641723Y-79383756D01*
X144645177Y-79386568D01*
X144855219Y-79557569D01*
X144855223Y-79557572D01*
X144858676Y-79560383D01*
X144862498Y-79562684D01*
X145092923Y-79701411D01*
X145098351Y-79704679D01*
X145180878Y-79739625D01*
X145351864Y-79812029D01*
X145351869Y-79812031D01*
X145355967Y-79813766D01*
X145360264Y-79814905D01*
X145360269Y-79814907D01*
X145491175Y-79849615D01*
X145626383Y-79885465D01*
X145630800Y-79885988D01*
X145630801Y-79885988D01*
X145715208Y-79895978D01*
X145904204Y-79918347D01*
X146183886Y-79911756D01*
X146338699Y-79885988D01*
X146455459Y-79866554D01*
X146455463Y-79866553D01*
X146459849Y-79865823D01*
X146464090Y-79864482D01*
X146464093Y-79864481D01*
X146722342Y-79782808D01*
X146722344Y-79782807D01*
X146726588Y-79781465D01*
X146730599Y-79779539D01*
X146730604Y-79779537D01*
X146974760Y-79662295D01*
X146974761Y-79662294D01*
X146978779Y-79660365D01*
X147128412Y-79560383D01*
X147199468Y-79512905D01*
X147267221Y-79491690D01*
X147335688Y-79510473D01*
X147349020Y-79519957D01*
X147395219Y-79557569D01*
X147395223Y-79557572D01*
X147398676Y-79560383D01*
X147402498Y-79562684D01*
X147632923Y-79701411D01*
X147638351Y-79704679D01*
X147720878Y-79739625D01*
X147891864Y-79812029D01*
X147891869Y-79812031D01*
X147895967Y-79813766D01*
X147900264Y-79814905D01*
X147900269Y-79814907D01*
X148031175Y-79849615D01*
X148166383Y-79885465D01*
X148170800Y-79885988D01*
X148170801Y-79885988D01*
X148255208Y-79895978D01*
X148444204Y-79918347D01*
X148723886Y-79911756D01*
X148878699Y-79885988D01*
X148995459Y-79866554D01*
X148995463Y-79866553D01*
X148999849Y-79865823D01*
X149004090Y-79864482D01*
X149004093Y-79864481D01*
X149262342Y-79782808D01*
X149262344Y-79782807D01*
X149266588Y-79781465D01*
X149270599Y-79779539D01*
X149270604Y-79779537D01*
X149514760Y-79662295D01*
X149514761Y-79662294D01*
X149518779Y-79660365D01*
X149635747Y-79582209D01*
X149747683Y-79507416D01*
X149747687Y-79507413D01*
X149751391Y-79504938D01*
X149959782Y-79318287D01*
X150080521Y-79174651D01*
X150136928Y-79107547D01*
X150136930Y-79107545D01*
X150139795Y-79104136D01*
X150287838Y-78866757D01*
X150400958Y-78610886D01*
X150476896Y-78341630D01*
X150514138Y-78064360D01*
X150518046Y-77940000D01*
X150498287Y-77660939D01*
X150439406Y-77387445D01*
X150342576Y-77124977D01*
X150209730Y-76878770D01*
X150043519Y-76653738D01*
X149997577Y-76607068D01*
X149850390Y-76457552D01*
X149847259Y-76454371D01*
X149843720Y-76451670D01*
X149843713Y-76451664D01*
X149628405Y-76287347D01*
X149624865Y-76284645D01*
X149380775Y-76147948D01*
X149376636Y-76146347D01*
X149376628Y-76146343D01*
X149183354Y-76071572D01*
X149119860Y-76047008D01*
X149115535Y-76046005D01*
X149115530Y-76046004D01*
X148965665Y-76011267D01*
X148847326Y-75983838D01*
X148568609Y-75959698D01*
X148564174Y-75959942D01*
X148564170Y-75959942D01*
X148450178Y-75966216D01*
X148289272Y-75975071D01*
X148284909Y-75975939D01*
X148284908Y-75975939D01*
X148019255Y-76028781D01*
X148019253Y-76028782D01*
X148014887Y-76029650D01*
X147750930Y-76122345D01*
X147502668Y-76251307D01*
X147499053Y-76253890D01*
X147499047Y-76253894D01*
X147340060Y-76367508D01*
X147273007Y-76390840D01*
X147203984Y-76374217D01*
X147190360Y-76365156D01*
X147088405Y-76287347D01*
X147084865Y-76284645D01*
X146840775Y-76147948D01*
X146836636Y-76146347D01*
X146836628Y-76146343D01*
X146643354Y-76071572D01*
X146579860Y-76047008D01*
X146575535Y-76046005D01*
X146575530Y-76046004D01*
X146425665Y-76011267D01*
X146307326Y-75983838D01*
X146028609Y-75959698D01*
X146024174Y-75959942D01*
X146024170Y-75959942D01*
X145910178Y-75966216D01*
X145749272Y-75975071D01*
X145744909Y-75975939D01*
X145744908Y-75975939D01*
X145479255Y-76028781D01*
X145479253Y-76028782D01*
X145474887Y-76029650D01*
X145210930Y-76122345D01*
X144962668Y-76251307D01*
X144919064Y-76282467D01*
X144738673Y-76411375D01*
X144738669Y-76411378D01*
X144735052Y-76413963D01*
X144532627Y-76607068D01*
X144529871Y-76610564D01*
X144529870Y-76610565D01*
X144418323Y-76752061D01*
X144360441Y-76793174D01*
X144289521Y-76796468D01*
X144228079Y-76760896D01*
X144203262Y-76722985D01*
X144070871Y-76408805D01*
X144069252Y-76405878D01*
X144069248Y-76405870D01*
X143891929Y-76085320D01*
X143891925Y-76085314D01*
X143890305Y-76082385D01*
X143821174Y-75983838D01*
X143678011Y-75779758D01*
X143678009Y-75779755D01*
X143676076Y-75777000D01*
X143430607Y-75496110D01*
X143156680Y-75242894D01*
X143137466Y-75228598D01*
X142860095Y-75022229D01*
X142860094Y-75022228D01*
X142857396Y-75020221D01*
X142854510Y-75018517D01*
X142854503Y-75018513D01*
X142539036Y-74832318D01*
X142539031Y-74832316D01*
X142536145Y-74830612D01*
X142435725Y-74784954D01*
X142199611Y-74677599D01*
X142199605Y-74677597D01*
X142196564Y-74676214D01*
X142193391Y-74675161D01*
X142193387Y-74675160D01*
X142050502Y-74627767D01*
X141842499Y-74558775D01*
X141839239Y-74558067D01*
X141839231Y-74558065D01*
X141610266Y-74508352D01*
X141477958Y-74479625D01*
X141107072Y-74439662D01*
X141104547Y-74439594D01*
X141104537Y-74439593D01*
X141102784Y-74439546D01*
X141101086Y-74439500D01*
X138981928Y-74439500D01*
X138973468Y-74439216D01*
X138912290Y-74435099D01*
X138912287Y-74435099D01*
X138908944Y-74434874D01*
X138798424Y-74439216D01*
X138793664Y-74439403D01*
X138788718Y-74439500D01*
X138766761Y-74439500D01*
X138765098Y-74439589D01*
X138765083Y-74439589D01*
X138699034Y-74443108D01*
X138697278Y-74443189D01*
X138539551Y-74449386D01*
X138539546Y-74449386D01*
X138536198Y-74449518D01*
X138517725Y-74452230D01*
X138506136Y-74453387D01*
X138504065Y-74453497D01*
X138490827Y-74454202D01*
X138490818Y-74454203D01*
X138487495Y-74454380D01*
X138328271Y-74480026D01*
X138326645Y-74480276D01*
X138203078Y-74498413D01*
X138170442Y-74503203D01*
X138170440Y-74503203D01*
X138167118Y-74503691D01*
X138149883Y-74508132D01*
X138149029Y-74508352D01*
X138137627Y-74510733D01*
X138119208Y-74513700D01*
X138115971Y-74514582D01*
X138115964Y-74514584D01*
X138011772Y-74542990D01*
X137963636Y-74556114D01*
X137961986Y-74556551D01*
X137901009Y-74572264D01*
X137809133Y-74595939D01*
X137809128Y-74595941D01*
X137805886Y-74596776D01*
X137802743Y-74597954D01*
X137802744Y-74597954D01*
X137788416Y-74603325D01*
X137777329Y-74606906D01*
X137762556Y-74610933D01*
X137762541Y-74610938D01*
X137759309Y-74611819D01*
X137756182Y-74613041D01*
X137756180Y-74613042D01*
X137609113Y-74670530D01*
X137607469Y-74671159D01*
X137456590Y-74727720D01*
X137453593Y-74729224D01*
X137453591Y-74729225D01*
X137439909Y-74736091D01*
X137429270Y-74740828D01*
X137415006Y-74746404D01*
X137414997Y-74746408D01*
X137411876Y-74747628D01*
X137408897Y-74749175D01*
X137408898Y-74749175D01*
X137268832Y-74821933D01*
X137267268Y-74822732D01*
X137123186Y-74895040D01*
X137120375Y-74896848D01*
X137120370Y-74896851D01*
X137107480Y-74905142D01*
X137097403Y-74910984D01*
X137080841Y-74919587D01*
X137007160Y-74968448D01*
X136946515Y-75008664D01*
X136945051Y-75009620D01*
X136809449Y-75096842D01*
X136806841Y-75098943D01*
X136806835Y-75098947D01*
X136794907Y-75108554D01*
X136785506Y-75115434D01*
X136772754Y-75123890D01*
X136772735Y-75123904D01*
X136769953Y-75125749D01*
X136767377Y-75127884D01*
X136767366Y-75127892D01*
X136645850Y-75228598D01*
X136644487Y-75229712D01*
X136520918Y-75329241D01*
X136520907Y-75329251D01*
X136518935Y-75330839D01*
X136514588Y-75334958D01*
X136504613Y-75344933D01*
X136495918Y-75352852D01*
X136485328Y-75361628D01*
X136485313Y-75361642D01*
X136482733Y-75363780D01*
X136368910Y-75480622D01*
X136367820Y-75481726D01*
X132510999Y-79338547D01*
X132504816Y-79344329D01*
X132456110Y-79386893D01*
X132453835Y-79389354D01*
X132453832Y-79389357D01*
X132377777Y-79471633D01*
X132374347Y-79475199D01*
X132358843Y-79490703D01*
X132357734Y-79491937D01*
X132357731Y-79491940D01*
X132313517Y-79541130D01*
X132312333Y-79542429D01*
X132222616Y-79639485D01*
X132202894Y-79660820D01*
X132200889Y-79663515D01*
X132191746Y-79675803D01*
X132184367Y-79684818D01*
X132171894Y-79698695D01*
X132119843Y-79770733D01*
X132077475Y-79829370D01*
X132076434Y-79830789D01*
X131982230Y-79957403D01*
X131982225Y-79957411D01*
X131980221Y-79960104D01*
X131971482Y-79974910D01*
X131970732Y-79976181D01*
X131964353Y-79985928D01*
X131955388Y-79998335D01*
X131955378Y-79998351D01*
X131953421Y-80001059D01*
X131873436Y-80141004D01*
X131872555Y-80142521D01*
X131790612Y-80281355D01*
X131789226Y-80284404D01*
X131789222Y-80284411D01*
X131782884Y-80298350D01*
X131777580Y-80308714D01*
X131769985Y-80322004D01*
X131769981Y-80322012D01*
X131768315Y-80324927D01*
X131722650Y-80429203D01*
X131703656Y-80472576D01*
X131702939Y-80474182D01*
X131637601Y-80617885D01*
X131636214Y-80620936D01*
X131635158Y-80624119D01*
X131635157Y-80624122D01*
X131630335Y-80638658D01*
X131626164Y-80649525D01*
X131618674Y-80666630D01*
X131617666Y-80669818D01*
X131617662Y-80669828D01*
X131570082Y-80820276D01*
X131569540Y-80821949D01*
X131519832Y-80971813D01*
X131518775Y-80975001D01*
X131518065Y-80978273D01*
X131518060Y-80978290D01*
X131514813Y-80993246D01*
X131511817Y-81004508D01*
X131507201Y-81019103D01*
X131506190Y-81022301D01*
X131505524Y-81025589D01*
X131474200Y-81180240D01*
X131473839Y-81181961D01*
X131439625Y-81339542D01*
X131439266Y-81342876D01*
X131439265Y-81342881D01*
X131437625Y-81358106D01*
X131435844Y-81369614D01*
X131432138Y-81387910D01*
X131423757Y-81477405D01*
X131417110Y-81548377D01*
X131416934Y-81550126D01*
X131399662Y-81710428D01*
X131399500Y-81716414D01*
X131399500Y-81730539D01*
X131398951Y-81742287D01*
X131397356Y-81759319D01*
X131397400Y-81762684D01*
X131397400Y-81762685D01*
X131399489Y-81922255D01*
X131399500Y-81923904D01*
X131399500Y-88322136D01*
X131379498Y-88390257D01*
X131332419Y-88431523D01*
X131333234Y-88433006D01*
X131057516Y-88584584D01*
X130974060Y-88645218D01*
X130907194Y-88669076D01*
X130838042Y-88652996D01*
X130825944Y-88645221D01*
X130742484Y-88584584D01*
X130548122Y-88477732D01*
X130470228Y-88434909D01*
X130470225Y-88434907D01*
X130466766Y-88433006D01*
X130186740Y-88322136D01*
X130177908Y-88318639D01*
X130177905Y-88318638D01*
X130174225Y-88317181D01*
X130170391Y-88316197D01*
X130170383Y-88316194D01*
X129981926Y-88267807D01*
X129869473Y-88238934D01*
X129865545Y-88238438D01*
X129865541Y-88238437D01*
X129741625Y-88222783D01*
X129557318Y-88199500D01*
X129242682Y-88199500D01*
X129058375Y-88222783D01*
X128934459Y-88238437D01*
X128934455Y-88238438D01*
X128930527Y-88238934D01*
X128818074Y-88267807D01*
X128629617Y-88316194D01*
X128629609Y-88316197D01*
X128625775Y-88317181D01*
X128622095Y-88318638D01*
X128622092Y-88318639D01*
X128613260Y-88322136D01*
X128333234Y-88433006D01*
X128329775Y-88434907D01*
X128329772Y-88434909D01*
X128251878Y-88477732D01*
X128057516Y-88584584D01*
X128054312Y-88586912D01*
X128054307Y-88586915D01*
X127806174Y-88767194D01*
X127802970Y-88769522D01*
X127573610Y-88984906D01*
X127373053Y-89227337D01*
X127204463Y-89492993D01*
X127202779Y-89496572D01*
X127202775Y-89496579D01*
X127190216Y-89523269D01*
X127070497Y-89777685D01*
X126973269Y-90076921D01*
X126914312Y-90385985D01*
X126894556Y-90700000D01*
X119750454Y-90700000D01*
X117061453Y-88010999D01*
X117055671Y-88004816D01*
X117015316Y-87958638D01*
X117013107Y-87956110D01*
X116928367Y-87877777D01*
X116924801Y-87874347D01*
X116909297Y-87858843D01*
X116908060Y-87857731D01*
X116858870Y-87813517D01*
X116857571Y-87812333D01*
X116741642Y-87705170D01*
X116739180Y-87702894D01*
X116734336Y-87699290D01*
X116724197Y-87691746D01*
X116715182Y-87684367D01*
X116712553Y-87682004D01*
X116701305Y-87671894D01*
X116570630Y-87577475D01*
X116569212Y-87576435D01*
X116518020Y-87538347D01*
X116459622Y-87494897D01*
X116416909Y-87438188D01*
X116411636Y-87367388D01*
X116445740Y-87304714D01*
X117013049Y-86737405D01*
X117075361Y-86703379D01*
X117102144Y-86700500D01*
X118343239Y-86700500D01*
X118344905Y-86700411D01*
X118344914Y-86700411D01*
X118619173Y-86685798D01*
X118619182Y-86685797D01*
X118622505Y-86685620D01*
X118861413Y-86647139D01*
X118987490Y-86626832D01*
X118987493Y-86626831D01*
X118990792Y-86626300D01*
X118994022Y-86625420D01*
X118994024Y-86625419D01*
X119347445Y-86529066D01*
X119347446Y-86529066D01*
X119350691Y-86528181D01*
X119698124Y-86392372D01*
X119841446Y-86317922D01*
X120026189Y-86221956D01*
X120026192Y-86221954D01*
X120029159Y-86220413D01*
X120340047Y-86014251D01*
X120598421Y-85800126D01*
X120624683Y-85778362D01*
X120624689Y-85778357D01*
X120627267Y-85776220D01*
X120630516Y-85772885D01*
X120885227Y-85511417D01*
X120885235Y-85511408D01*
X120887566Y-85509015D01*
X121117998Y-85215663D01*
X121282882Y-84952304D01*
X121314170Y-84902330D01*
X121314172Y-84902327D01*
X121315951Y-84899485D01*
X121479186Y-84564062D01*
X121480319Y-84560923D01*
X121480323Y-84560914D01*
X121599581Y-84230565D01*
X121605853Y-84213192D01*
X121639044Y-84077552D01*
X121693722Y-83854102D01*
X121693723Y-83854098D01*
X121694518Y-83850848D01*
X121744176Y-83481135D01*
X121754267Y-83108238D01*
X121744706Y-82988090D01*
X121724939Y-82739710D01*
X121724674Y-82736379D01*
X121693225Y-82569138D01*
X121656352Y-82373055D01*
X121656350Y-82373047D01*
X121655734Y-82369771D01*
X121548227Y-82012565D01*
X121403371Y-81668805D01*
X121401752Y-81665878D01*
X121401748Y-81665870D01*
X121224429Y-81345320D01*
X121224425Y-81345314D01*
X121222805Y-81342385D01*
X121089857Y-81152867D01*
X121010511Y-81039758D01*
X121010509Y-81039755D01*
X121008576Y-81037000D01*
X120763107Y-80756110D01*
X120489180Y-80502894D01*
X120469993Y-80488618D01*
X120192595Y-80282229D01*
X120192594Y-80282228D01*
X120189896Y-80280221D01*
X120187010Y-80278517D01*
X120187003Y-80278513D01*
X119871536Y-80092318D01*
X119871531Y-80092316D01*
X119868645Y-80090612D01*
X119789603Y-80054674D01*
X119532111Y-79937599D01*
X119532105Y-79937597D01*
X119529064Y-79936214D01*
X119525891Y-79935161D01*
X119525887Y-79935160D01*
X119377638Y-79885988D01*
X119174999Y-79818775D01*
X119171739Y-79818067D01*
X119171731Y-79818065D01*
X118942766Y-79768352D01*
X118810458Y-79739625D01*
X118439572Y-79699662D01*
X118437047Y-79699594D01*
X118437037Y-79699593D01*
X118435284Y-79699546D01*
X118433586Y-79699500D01*
X115721928Y-79699500D01*
X115713468Y-79699216D01*
X115652290Y-79695099D01*
X115652287Y-79695099D01*
X115648944Y-79694874D01*
X115533671Y-79699403D01*
X115528724Y-79699500D01*
X115506761Y-79699500D01*
X115439045Y-79703109D01*
X115437309Y-79703190D01*
X115399395Y-79704679D01*
X115279552Y-79709387D01*
X115279548Y-79709387D01*
X115276197Y-79709519D01*
X115272887Y-79710005D01*
X115272863Y-79710007D01*
X115257720Y-79712230D01*
X115246131Y-79713387D01*
X115241399Y-79713639D01*
X115230847Y-79714201D01*
X115230841Y-79714202D01*
X115227495Y-79714380D01*
X115224194Y-79714912D01*
X115224191Y-79714912D01*
X115171319Y-79723428D01*
X115068266Y-79740027D01*
X115066596Y-79740283D01*
X114972816Y-79754048D01*
X114910442Y-79763203D01*
X114910440Y-79763203D01*
X114907118Y-79763691D01*
X114889883Y-79768132D01*
X114889029Y-79768352D01*
X114877627Y-79770733D01*
X114859208Y-79773700D01*
X114855971Y-79774582D01*
X114855964Y-79774584D01*
X114760096Y-79800721D01*
X114703636Y-79816114D01*
X114701986Y-79816551D01*
X114652240Y-79829370D01*
X114549133Y-79855939D01*
X114549128Y-79855941D01*
X114545886Y-79856776D01*
X114542743Y-79857954D01*
X114542744Y-79857954D01*
X114528416Y-79863325D01*
X114517329Y-79866906D01*
X114502556Y-79870933D01*
X114502541Y-79870938D01*
X114499309Y-79871819D01*
X114496182Y-79873041D01*
X114496180Y-79873042D01*
X114349113Y-79930530D01*
X114347469Y-79931159D01*
X114196590Y-79987720D01*
X114193593Y-79989224D01*
X114193591Y-79989225D01*
X114179909Y-79996091D01*
X114169270Y-80000828D01*
X114155006Y-80006404D01*
X114154997Y-80006408D01*
X114151876Y-80007628D01*
X114148897Y-80009175D01*
X114148898Y-80009175D01*
X114008832Y-80081933D01*
X114007268Y-80082732D01*
X113863186Y-80155040D01*
X113860375Y-80156848D01*
X113860370Y-80156851D01*
X113847480Y-80165142D01*
X113837403Y-80170984D01*
X113820841Y-80179587D01*
X113794263Y-80197212D01*
X113686515Y-80268664D01*
X113685051Y-80269620D01*
X113549449Y-80356842D01*
X113546841Y-80358943D01*
X113546835Y-80358947D01*
X113534907Y-80368554D01*
X113525506Y-80375434D01*
X113512754Y-80383890D01*
X113512735Y-80383904D01*
X113509953Y-80385749D01*
X113507377Y-80387884D01*
X113507366Y-80387892D01*
X113385826Y-80488618D01*
X113384505Y-80489699D01*
X113258935Y-80590840D01*
X113254588Y-80594958D01*
X113244613Y-80604933D01*
X113235918Y-80612852D01*
X113225328Y-80621628D01*
X113225313Y-80621642D01*
X113222733Y-80623780D01*
X113108910Y-80740622D01*
X113107820Y-80741726D01*
X112751761Y-81097785D01*
X112689449Y-81131811D01*
X112618634Y-81126746D01*
X112561798Y-81084199D01*
X112537012Y-81018027D01*
X112536008Y-81004508D01*
X112532731Y-80960413D01*
X112531104Y-80938517D01*
X112531104Y-80938514D01*
X112530758Y-80933864D01*
X112505056Y-80820276D01*
X112472891Y-80678132D01*
X112471860Y-80673575D01*
X112467966Y-80663561D01*
X112376829Y-80429203D01*
X112376828Y-80429201D01*
X112375136Y-80424850D01*
X112351726Y-80383890D01*
X112302835Y-80298350D01*
X112242711Y-80193154D01*
X112233477Y-80181440D01*
X112160780Y-80089224D01*
X112077494Y-79983576D01*
X111883113Y-79800721D01*
X111685331Y-79663515D01*
X111667679Y-79651269D01*
X111667674Y-79651266D01*
X111663841Y-79648607D01*
X111651113Y-79642330D01*
X111428680Y-79532638D01*
X111428677Y-79532637D01*
X111424492Y-79530573D01*
X111369298Y-79512905D01*
X111174772Y-79450637D01*
X111174774Y-79450637D01*
X111170327Y-79449214D01*
X111083679Y-79435103D01*
X110911540Y-79407068D01*
X110911536Y-79407068D01*
X110906927Y-79406317D01*
X110773503Y-79404570D01*
X110644757Y-79402884D01*
X110644754Y-79402884D01*
X110640080Y-79402823D01*
X110375648Y-79438811D01*
X110119439Y-79513489D01*
X109877083Y-79625217D01*
X109844560Y-79646540D01*
X109657817Y-79768974D01*
X109657812Y-79768978D01*
X109653904Y-79771540D01*
X109599802Y-79819828D01*
X109470583Y-79935160D01*
X109454804Y-79949243D01*
X109284157Y-80154424D01*
X109145712Y-80382574D01*
X109143903Y-80386888D01*
X109143902Y-80386890D01*
X109044566Y-80623780D01*
X109042510Y-80628682D01*
X109041359Y-80633214D01*
X109041358Y-80633217D01*
X109029951Y-80678132D01*
X108976819Y-80887340D01*
X108950082Y-81152867D01*
X108950306Y-81157533D01*
X108950306Y-81157538D01*
X108951479Y-81181961D01*
X108962886Y-81419430D01*
X109014950Y-81681172D01*
X109105129Y-81932344D01*
X109231444Y-82167427D01*
X109234239Y-82171170D01*
X109234241Y-82171173D01*
X109388327Y-82377519D01*
X109388332Y-82377525D01*
X109391119Y-82381257D01*
X109394428Y-82384537D01*
X109394433Y-82384543D01*
X109577329Y-82565850D01*
X109580646Y-82569138D01*
X109584408Y-82571896D01*
X109584411Y-82571899D01*
X109789966Y-82722617D01*
X109795862Y-82726940D01*
X109799997Y-82729116D01*
X109800001Y-82729118D01*
X110027895Y-82849020D01*
X110027903Y-82849024D01*
X110032038Y-82851199D01*
X110283987Y-82939183D01*
X110288580Y-82940055D01*
X110541585Y-82988090D01*
X110541588Y-82988090D01*
X110546174Y-82988961D01*
X110560861Y-82989538D01*
X110628144Y-83012199D01*
X110672495Y-83067638D01*
X110679832Y-83138254D01*
X110645010Y-83204536D01*
X110260999Y-83588547D01*
X110254816Y-83594329D01*
X110206110Y-83636893D01*
X110203835Y-83639354D01*
X110203832Y-83639357D01*
X110127777Y-83721633D01*
X110124347Y-83725199D01*
X110108843Y-83740703D01*
X110107734Y-83741937D01*
X110107731Y-83741940D01*
X110063517Y-83791130D01*
X110062333Y-83792429D01*
X109987028Y-83873894D01*
X109952894Y-83910820D01*
X109950889Y-83913515D01*
X109941746Y-83925803D01*
X109934367Y-83934818D01*
X109921894Y-83948695D01*
X109846359Y-84053235D01*
X109827475Y-84079370D01*
X109826434Y-84080789D01*
X109732230Y-84207403D01*
X109732225Y-84207411D01*
X109730221Y-84210104D01*
X109726542Y-84216338D01*
X109720732Y-84226181D01*
X109714353Y-84235928D01*
X109705388Y-84248335D01*
X109705378Y-84248351D01*
X109703421Y-84251059D01*
X109623436Y-84391004D01*
X109622555Y-84392521D01*
X109540612Y-84531355D01*
X109539226Y-84534404D01*
X109539222Y-84534411D01*
X109532884Y-84548350D01*
X109527580Y-84558714D01*
X109519985Y-84572004D01*
X109519981Y-84572012D01*
X109518315Y-84574927D01*
X109470188Y-84684826D01*
X109453656Y-84722576D01*
X109452939Y-84724182D01*
X109443484Y-84744977D01*
X109386214Y-84870936D01*
X109385158Y-84874119D01*
X109385157Y-84874122D01*
X109380335Y-84888658D01*
X109376164Y-84899525D01*
X109368674Y-84916630D01*
X109367666Y-84919818D01*
X109367662Y-84919828D01*
X109320082Y-85070276D01*
X109319540Y-85071949D01*
X109272815Y-85212821D01*
X109268775Y-85225001D01*
X109268065Y-85228273D01*
X109268060Y-85228290D01*
X109264813Y-85243246D01*
X109261817Y-85254508D01*
X109257201Y-85269103D01*
X109256190Y-85272301D01*
X109255524Y-85275589D01*
X109224200Y-85430240D01*
X109223839Y-85431961D01*
X109195340Y-85563222D01*
X109189625Y-85589542D01*
X109189266Y-85592876D01*
X109189265Y-85592881D01*
X109187625Y-85608106D01*
X109185844Y-85619614D01*
X109182138Y-85637910D01*
X109178089Y-85681149D01*
X109167110Y-85798377D01*
X109166934Y-85800126D01*
X109149662Y-85960428D01*
X109149500Y-85966414D01*
X109149500Y-85980539D01*
X109148951Y-85992287D01*
X109147356Y-86009319D01*
X109147400Y-86012684D01*
X109147400Y-86012685D01*
X109149489Y-86172255D01*
X109149500Y-86173904D01*
X109149500Y-88341123D01*
X109129498Y-88409244D01*
X109075842Y-88455737D01*
X109005568Y-88465841D01*
X108972861Y-88456499D01*
X108780158Y-88371908D01*
X108753707Y-88364373D01*
X108593157Y-88318639D01*
X108498159Y-88291578D01*
X108281375Y-88260726D01*
X108212119Y-88250869D01*
X108212117Y-88250869D01*
X108207867Y-88250264D01*
X108203578Y-88250242D01*
X108203571Y-88250241D01*
X107918939Y-88248750D01*
X107918932Y-88248750D01*
X107914653Y-88248728D01*
X107910408Y-88249287D01*
X107910406Y-88249287D01*
X107845086Y-88257887D01*
X107623945Y-88287001D01*
X107341120Y-88364373D01*
X107071412Y-88479413D01*
X107067731Y-88481616D01*
X106823495Y-88627788D01*
X106823491Y-88627791D01*
X106819813Y-88629992D01*
X106590977Y-88813324D01*
X106588030Y-88816430D01*
X106425256Y-88987958D01*
X106389139Y-89026017D01*
X106218035Y-89264134D01*
X106080830Y-89523269D01*
X105980063Y-89798628D01*
X105917599Y-90085114D01*
X105894593Y-90377428D01*
X105911472Y-90670159D01*
X105912297Y-90674364D01*
X105912298Y-90674372D01*
X105952343Y-90878481D01*
X105967923Y-90957891D01*
X105969310Y-90961942D01*
X106024942Y-91124429D01*
X106062901Y-91235300D01*
X106194649Y-91497251D01*
X106360729Y-91738900D01*
X106558068Y-91955772D01*
X106561357Y-91958522D01*
X106779722Y-92141104D01*
X106779727Y-92141108D01*
X106783014Y-92143856D01*
X106845085Y-92182793D01*
X107027765Y-92297389D01*
X107027769Y-92297391D01*
X107031405Y-92299672D01*
X107035315Y-92301437D01*
X107035316Y-92301438D01*
X107294732Y-92418569D01*
X107294736Y-92418571D01*
X107298644Y-92420335D01*
X107302764Y-92421555D01*
X107302763Y-92421555D01*
X107575674Y-92502395D01*
X107575678Y-92502396D01*
X107579787Y-92503613D01*
X107584021Y-92504261D01*
X107584026Y-92504262D01*
X107865388Y-92547316D01*
X107865390Y-92547316D01*
X107869630Y-92547965D01*
X108018874Y-92550310D01*
X108158520Y-92552504D01*
X108158526Y-92552504D01*
X108162811Y-92552571D01*
X108453905Y-92517345D01*
X108737525Y-92442939D01*
X109008422Y-92330729D01*
X109138567Y-92254679D01*
X109257887Y-92184954D01*
X109257888Y-92184953D01*
X109261585Y-92182793D01*
X109278778Y-92169312D01*
X109404883Y-92070433D01*
X109470832Y-92044141D01*
X109540526Y-92057676D01*
X109594444Y-92111505D01*
X109629587Y-92179159D01*
X109631444Y-92181959D01*
X109631445Y-92181961D01*
X109640433Y-92195514D01*
X109651866Y-92212754D01*
X109652168Y-92213210D01*
X109657416Y-92221859D01*
X109675570Y-92254679D01*
X109675578Y-92254692D01*
X109677195Y-92257615D01*
X109679115Y-92260352D01*
X109679120Y-92260360D01*
X109757038Y-92371432D01*
X109758897Y-92374156D01*
X109835749Y-92490047D01*
X109837894Y-92492635D01*
X109837896Y-92492638D01*
X109861814Y-92521499D01*
X109867948Y-92529536D01*
X109883746Y-92552055D01*
X109891424Y-92563000D01*
X109893626Y-92565520D01*
X109893627Y-92565521D01*
X109982942Y-92667725D01*
X109985079Y-92670237D01*
X110073780Y-92777267D01*
X110076189Y-92779614D01*
X110076192Y-92779617D01*
X110103053Y-92805785D01*
X110110007Y-92813125D01*
X110121567Y-92826353D01*
X110136893Y-92843890D01*
X110239055Y-92938328D01*
X110241335Y-92940492D01*
X110340985Y-93037566D01*
X110354676Y-93048320D01*
X110373112Y-93062802D01*
X110380808Y-93069364D01*
X110408348Y-93094822D01*
X110408360Y-93094832D01*
X110410820Y-93097106D01*
X110413511Y-93099108D01*
X110522373Y-93180103D01*
X110524950Y-93182072D01*
X110634337Y-93267998D01*
X110664988Y-93287188D01*
X110668978Y-93289686D01*
X110677329Y-93295393D01*
X110710104Y-93319779D01*
X110712982Y-93321477D01*
X110712990Y-93321483D01*
X110829832Y-93390445D01*
X110832650Y-93392158D01*
X110950515Y-93465951D01*
X110987259Y-93483833D01*
X110996161Y-93488616D01*
X111031355Y-93509388D01*
X111157967Y-93566955D01*
X111160884Y-93568328D01*
X111285938Y-93629186D01*
X111289087Y-93630323D01*
X111289097Y-93630327D01*
X111324372Y-93643062D01*
X111333737Y-93646874D01*
X111367867Y-93662392D01*
X111367889Y-93662401D01*
X111370936Y-93663786D01*
X111495048Y-93704952D01*
X111502871Y-93707547D01*
X111505987Y-93708626D01*
X111633661Y-93754717D01*
X111636808Y-93755853D01*
X111676505Y-93765567D01*
X111686221Y-93768363D01*
X111721817Y-93780169D01*
X111725001Y-93781225D01*
X111728268Y-93781934D01*
X111728274Y-93781936D01*
X111860866Y-93810724D01*
X111864081Y-93811466D01*
X111995889Y-93843720D01*
X111995897Y-93843722D01*
X111999152Y-93844518D01*
X112002473Y-93844964D01*
X112002478Y-93844965D01*
X112023191Y-93847747D01*
X112039660Y-93849959D01*
X112049607Y-93851704D01*
X112089542Y-93860375D01*
X112118612Y-93863507D01*
X112227789Y-93875272D01*
X112231062Y-93875668D01*
X112365551Y-93893731D01*
X112365553Y-93893731D01*
X112368865Y-93894176D01*
X112409711Y-93895281D01*
X112419797Y-93895960D01*
X112429822Y-93897040D01*
X112457910Y-93900067D01*
X112457918Y-93900068D01*
X112460428Y-93900338D01*
X112462950Y-93900406D01*
X112462961Y-93900407D01*
X112464785Y-93900456D01*
X112466414Y-93900500D01*
X112600850Y-93900500D01*
X112604258Y-93900546D01*
X112741762Y-93904267D01*
X112745103Y-93904001D01*
X112745107Y-93904001D01*
X112784108Y-93900897D01*
X112794104Y-93900500D01*
X112997856Y-93900500D01*
X113065977Y-93920502D01*
X113086951Y-93937405D01*
X114862595Y-95713049D01*
X114896621Y-95775361D01*
X114899500Y-95802144D01*
X114899500Y-98365907D01*
X114893635Y-98403901D01*
X114856190Y-98522301D01*
X114782138Y-98887910D01*
X114747356Y-99259319D01*
X114747400Y-99262684D01*
X114747400Y-99262685D01*
X114751585Y-99582328D01*
X114752239Y-99632321D01*
X114796730Y-100002692D01*
X114797483Y-100005965D01*
X114797483Y-100005967D01*
X114801346Y-100022764D01*
X114880328Y-100366237D01*
X114881419Y-100369396D01*
X115000991Y-100715681D01*
X115000994Y-100715689D01*
X115002083Y-100718842D01*
X115003504Y-100721869D01*
X115003505Y-100721871D01*
X115064437Y-100851650D01*
X115160619Y-101056511D01*
X115162360Y-101059380D01*
X115162361Y-101059382D01*
X115252626Y-101208135D01*
X115270865Y-101276749D01*
X115249113Y-101344331D01*
X115194277Y-101389425D01*
X115144907Y-101399500D01*
X100259836Y-101399500D01*
X100191715Y-101379498D01*
X100145222Y-101325842D01*
X100133836Y-101273805D01*
X100133599Y-101175713D01*
X100129256Y-99382085D01*
X100127078Y-98482472D01*
X110032082Y-98482472D01*
X110041378Y-98494487D01*
X110091506Y-98529587D01*
X110100996Y-98535065D01*
X110297661Y-98626771D01*
X110307957Y-98630519D01*
X110517561Y-98686683D01*
X110528350Y-98688585D01*
X110744525Y-98707498D01*
X110755475Y-98707498D01*
X110971650Y-98688585D01*
X110982439Y-98686683D01*
X111192043Y-98630519D01*
X111202339Y-98626771D01*
X111399004Y-98535065D01*
X111408494Y-98529587D01*
X111459460Y-98493900D01*
X111467834Y-98483424D01*
X111460768Y-98469979D01*
X110762811Y-97772021D01*
X110748868Y-97764408D01*
X110747034Y-97764539D01*
X110740420Y-97768790D01*
X110038509Y-98470702D01*
X110032082Y-98482472D01*
X100127078Y-98482472D01*
X100124470Y-97405475D01*
X109442502Y-97405475D01*
X109461415Y-97621650D01*
X109463317Y-97632439D01*
X109519481Y-97842043D01*
X109523229Y-97852339D01*
X109614933Y-98049001D01*
X109620416Y-98058496D01*
X109656100Y-98109458D01*
X109666577Y-98117833D01*
X109680023Y-98110766D01*
X110377979Y-97412811D01*
X110384356Y-97401132D01*
X111114408Y-97401132D01*
X111114539Y-97402966D01*
X111118790Y-97409580D01*
X111820701Y-98111490D01*
X111832471Y-98117917D01*
X111844485Y-98108623D01*
X111879584Y-98058496D01*
X111885067Y-98049001D01*
X111976771Y-97852339D01*
X111980519Y-97842043D01*
X112036683Y-97632439D01*
X112038585Y-97621650D01*
X112057498Y-97405475D01*
X112057498Y-97394525D01*
X112038585Y-97178350D01*
X112036683Y-97167561D01*
X111980519Y-96957957D01*
X111976771Y-96947661D01*
X111885067Y-96750999D01*
X111879584Y-96741504D01*
X111843900Y-96690542D01*
X111833423Y-96682167D01*
X111819977Y-96689234D01*
X111122021Y-97387189D01*
X111114408Y-97401132D01*
X110384356Y-97401132D01*
X110385592Y-97398868D01*
X110385461Y-97397034D01*
X110381210Y-97390420D01*
X109679299Y-96688510D01*
X109667529Y-96682083D01*
X109655515Y-96691377D01*
X109620416Y-96741504D01*
X109614933Y-96750999D01*
X109523229Y-96947661D01*
X109519481Y-96957957D01*
X109463317Y-97167561D01*
X109461415Y-97178350D01*
X109442502Y-97394525D01*
X109442502Y-97405475D01*
X100124470Y-97405475D01*
X100121833Y-96316577D01*
X110032167Y-96316577D01*
X110039234Y-96330023D01*
X110737189Y-97027979D01*
X110751132Y-97035592D01*
X110752966Y-97035461D01*
X110759580Y-97031210D01*
X111461491Y-96329298D01*
X111467918Y-96317528D01*
X111458622Y-96305513D01*
X111408494Y-96270413D01*
X111399004Y-96264935D01*
X111202339Y-96173229D01*
X111192043Y-96169481D01*
X110982439Y-96113317D01*
X110971650Y-96111415D01*
X110755475Y-96092502D01*
X110744525Y-96092502D01*
X110528350Y-96111415D01*
X110517561Y-96113317D01*
X110307957Y-96169481D01*
X110297661Y-96173229D01*
X110100999Y-96264933D01*
X110091504Y-96270416D01*
X110040542Y-96306100D01*
X110032167Y-96316577D01*
X100121833Y-96316577D01*
X100065322Y-72977428D01*
X105994593Y-72977428D01*
X106011472Y-73270159D01*
X106012297Y-73274364D01*
X106012298Y-73274372D01*
X106052343Y-73478481D01*
X106067923Y-73557891D01*
X106162901Y-73835300D01*
X106294649Y-74097251D01*
X106460729Y-74338900D01*
X106658068Y-74555772D01*
X106661357Y-74558522D01*
X106879722Y-74741104D01*
X106879727Y-74741108D01*
X106883014Y-74743856D01*
X106940876Y-74780153D01*
X107127765Y-74897389D01*
X107127769Y-74897391D01*
X107131405Y-74899672D01*
X107135315Y-74901437D01*
X107135316Y-74901438D01*
X107394732Y-75018569D01*
X107394736Y-75018571D01*
X107398644Y-75020335D01*
X107402764Y-75021555D01*
X107402763Y-75021555D01*
X107675674Y-75102395D01*
X107675678Y-75102396D01*
X107679787Y-75103613D01*
X107684021Y-75104261D01*
X107684026Y-75104262D01*
X107965388Y-75147316D01*
X107965390Y-75147316D01*
X107969630Y-75147965D01*
X108118874Y-75150310D01*
X108258520Y-75152504D01*
X108258526Y-75152504D01*
X108262811Y-75152571D01*
X108553905Y-75117345D01*
X108837525Y-75042939D01*
X109108422Y-74930729D01*
X109124319Y-74921440D01*
X109357887Y-74784954D01*
X109357888Y-74784953D01*
X109361585Y-74782793D01*
X109406433Y-74747628D01*
X109588956Y-74604511D01*
X109592328Y-74601867D01*
X109636673Y-74556107D01*
X109746176Y-74443108D01*
X109796381Y-74391300D01*
X109969970Y-74154988D01*
X110003399Y-74093420D01*
X110107831Y-73901080D01*
X110107832Y-73901078D01*
X110109881Y-73897304D01*
X110213526Y-73623015D01*
X110278987Y-73337198D01*
X110305052Y-73045142D01*
X110305525Y-73000000D01*
X110303986Y-72977428D01*
X110594593Y-72977428D01*
X110611472Y-73270159D01*
X110612297Y-73274364D01*
X110612298Y-73274372D01*
X110652343Y-73478481D01*
X110667923Y-73557891D01*
X110762901Y-73835300D01*
X110894649Y-74097251D01*
X111060729Y-74338900D01*
X111258068Y-74555772D01*
X111261357Y-74558522D01*
X111479722Y-74741104D01*
X111479727Y-74741108D01*
X111483014Y-74743856D01*
X111540876Y-74780153D01*
X111727765Y-74897389D01*
X111727769Y-74897391D01*
X111731405Y-74899672D01*
X111735315Y-74901437D01*
X111735316Y-74901438D01*
X111994732Y-75018569D01*
X111994736Y-75018571D01*
X111998644Y-75020335D01*
X112002764Y-75021555D01*
X112002763Y-75021555D01*
X112275674Y-75102395D01*
X112275678Y-75102396D01*
X112279787Y-75103613D01*
X112284021Y-75104261D01*
X112284026Y-75104262D01*
X112565388Y-75147316D01*
X112565390Y-75147316D01*
X112569630Y-75147965D01*
X112718874Y-75150310D01*
X112858520Y-75152504D01*
X112858526Y-75152504D01*
X112862811Y-75152571D01*
X113153905Y-75117345D01*
X113437525Y-75042939D01*
X113708422Y-74930729D01*
X113724319Y-74921440D01*
X113957887Y-74784954D01*
X113957888Y-74784953D01*
X113961585Y-74782793D01*
X114006433Y-74747628D01*
X114188956Y-74604511D01*
X114192328Y-74601867D01*
X114236673Y-74556107D01*
X114346176Y-74443108D01*
X114396381Y-74391300D01*
X114569970Y-74154988D01*
X114603399Y-74093420D01*
X114707831Y-73901080D01*
X114707832Y-73901078D01*
X114709881Y-73897304D01*
X114813526Y-73623015D01*
X114878987Y-73337198D01*
X114905052Y-73045142D01*
X114905525Y-73000000D01*
X114885582Y-72707462D01*
X114884037Y-72700000D01*
X126894556Y-72700000D01*
X126914312Y-73014015D01*
X126973269Y-73323079D01*
X127070497Y-73622315D01*
X127072184Y-73625901D01*
X127072186Y-73625905D01*
X127202775Y-73903421D01*
X127202779Y-73903428D01*
X127204463Y-73907007D01*
X127373053Y-74172663D01*
X127573610Y-74415094D01*
X127802970Y-74630478D01*
X127806172Y-74632805D01*
X127806174Y-74632806D01*
X128054307Y-74813085D01*
X128054312Y-74813088D01*
X128057516Y-74815416D01*
X128199624Y-74893541D01*
X128270252Y-74932369D01*
X128333234Y-74966994D01*
X128463356Y-75018513D01*
X128622092Y-75081361D01*
X128622095Y-75081362D01*
X128625775Y-75082819D01*
X128629609Y-75083803D01*
X128629617Y-75083806D01*
X128785736Y-75123890D01*
X128930527Y-75161066D01*
X128934455Y-75161562D01*
X128934459Y-75161563D01*
X129058375Y-75177217D01*
X129242682Y-75200500D01*
X129557318Y-75200500D01*
X129741625Y-75177217D01*
X129865541Y-75161563D01*
X129865545Y-75161562D01*
X129869473Y-75161066D01*
X130014264Y-75123890D01*
X130170383Y-75083806D01*
X130170391Y-75083803D01*
X130174225Y-75082819D01*
X130177905Y-75081362D01*
X130177908Y-75081361D01*
X130336644Y-75018513D01*
X130466766Y-74966994D01*
X130529749Y-74932369D01*
X130600376Y-74893541D01*
X130742484Y-74815416D01*
X130825940Y-74754782D01*
X130892806Y-74730924D01*
X130961958Y-74747004D01*
X130974056Y-74754779D01*
X131057516Y-74815416D01*
X131199624Y-74893541D01*
X131270252Y-74932369D01*
X131333234Y-74966994D01*
X131463356Y-75018513D01*
X131622092Y-75081361D01*
X131622095Y-75081362D01*
X131625775Y-75082819D01*
X131629609Y-75083803D01*
X131629617Y-75083806D01*
X131785736Y-75123890D01*
X131930527Y-75161066D01*
X131934455Y-75161562D01*
X131934459Y-75161563D01*
X132058375Y-75177217D01*
X132242682Y-75200500D01*
X132557318Y-75200500D01*
X132741625Y-75177217D01*
X132865541Y-75161563D01*
X132865545Y-75161562D01*
X132869473Y-75161066D01*
X133014264Y-75123890D01*
X133170383Y-75083806D01*
X133170391Y-75083803D01*
X133174225Y-75082819D01*
X133177905Y-75081362D01*
X133177908Y-75081361D01*
X133336644Y-75018513D01*
X133466766Y-74966994D01*
X133529749Y-74932369D01*
X133600376Y-74893541D01*
X133742484Y-74815416D01*
X133825940Y-74754782D01*
X133892806Y-74730924D01*
X133961958Y-74747004D01*
X133974056Y-74754779D01*
X134057516Y-74815416D01*
X134199624Y-74893541D01*
X134270252Y-74932369D01*
X134333234Y-74966994D01*
X134463356Y-75018513D01*
X134622092Y-75081361D01*
X134622095Y-75081362D01*
X134625775Y-75082819D01*
X134629609Y-75083803D01*
X134629617Y-75083806D01*
X134785736Y-75123890D01*
X134930527Y-75161066D01*
X134934455Y-75161562D01*
X134934459Y-75161563D01*
X135058375Y-75177217D01*
X135242682Y-75200500D01*
X135557318Y-75200500D01*
X135741625Y-75177217D01*
X135865541Y-75161563D01*
X135865545Y-75161562D01*
X135869473Y-75161066D01*
X136014264Y-75123890D01*
X136170383Y-75083806D01*
X136170391Y-75083803D01*
X136174225Y-75082819D01*
X136177905Y-75081362D01*
X136177908Y-75081361D01*
X136336644Y-75018513D01*
X136466766Y-74966994D01*
X136529749Y-74932369D01*
X136600376Y-74893541D01*
X136742484Y-74815416D01*
X136745688Y-74813088D01*
X136745693Y-74813085D01*
X136993826Y-74632806D01*
X136993828Y-74632805D01*
X136997030Y-74630478D01*
X137226390Y-74415094D01*
X137426947Y-74172663D01*
X137595537Y-73907007D01*
X137597221Y-73903428D01*
X137597225Y-73903421D01*
X137727814Y-73625905D01*
X137727816Y-73625901D01*
X137729503Y-73622315D01*
X137826731Y-73323079D01*
X137885688Y-73014015D01*
X137905444Y-72700000D01*
X137885688Y-72385985D01*
X137826731Y-72076921D01*
X137729503Y-71777685D01*
X137727814Y-71774095D01*
X137597225Y-71496579D01*
X137597221Y-71496572D01*
X137595537Y-71492993D01*
X137426947Y-71227337D01*
X137226390Y-70984906D01*
X136997030Y-70769522D01*
X136993826Y-70767194D01*
X136745693Y-70586915D01*
X136745688Y-70586912D01*
X136742484Y-70584584D01*
X136466766Y-70433006D01*
X136307363Y-70369894D01*
X136177908Y-70318639D01*
X136177905Y-70318638D01*
X136174225Y-70317181D01*
X136170391Y-70316197D01*
X136170383Y-70316194D01*
X135981926Y-70267807D01*
X135869473Y-70238934D01*
X135865545Y-70238438D01*
X135865541Y-70238437D01*
X135741625Y-70222783D01*
X135557318Y-70199500D01*
X135242682Y-70199500D01*
X135058375Y-70222783D01*
X134934459Y-70238437D01*
X134934455Y-70238438D01*
X134930527Y-70238934D01*
X134818074Y-70267807D01*
X134629617Y-70316194D01*
X134629609Y-70316197D01*
X134625775Y-70317181D01*
X134622095Y-70318638D01*
X134622092Y-70318639D01*
X134492637Y-70369894D01*
X134333234Y-70433006D01*
X134057516Y-70584584D01*
X133974060Y-70645218D01*
X133907194Y-70669076D01*
X133838042Y-70652996D01*
X133825944Y-70645221D01*
X133742484Y-70584584D01*
X133466766Y-70433006D01*
X133307363Y-70369894D01*
X133177908Y-70318639D01*
X133177905Y-70318638D01*
X133174225Y-70317181D01*
X133170391Y-70316197D01*
X133170383Y-70316194D01*
X132981926Y-70267807D01*
X132869473Y-70238934D01*
X132865545Y-70238438D01*
X132865541Y-70238437D01*
X132741625Y-70222783D01*
X132557318Y-70199500D01*
X132242682Y-70199500D01*
X132058375Y-70222783D01*
X131934459Y-70238437D01*
X131934455Y-70238438D01*
X131930527Y-70238934D01*
X131818074Y-70267807D01*
X131629617Y-70316194D01*
X131629609Y-70316197D01*
X131625775Y-70317181D01*
X131622095Y-70318638D01*
X131622092Y-70318639D01*
X131492637Y-70369894D01*
X131333234Y-70433006D01*
X131057516Y-70584584D01*
X130974060Y-70645218D01*
X130907194Y-70669076D01*
X130838042Y-70652996D01*
X130825944Y-70645221D01*
X130742484Y-70584584D01*
X130466766Y-70433006D01*
X130307363Y-70369894D01*
X130177908Y-70318639D01*
X130177905Y-70318638D01*
X130174225Y-70317181D01*
X130170391Y-70316197D01*
X130170383Y-70316194D01*
X129981926Y-70267807D01*
X129869473Y-70238934D01*
X129865545Y-70238438D01*
X129865541Y-70238437D01*
X129741625Y-70222783D01*
X129557318Y-70199500D01*
X129242682Y-70199500D01*
X129058375Y-70222783D01*
X128934459Y-70238437D01*
X128934455Y-70238438D01*
X128930527Y-70238934D01*
X128818074Y-70267807D01*
X128629617Y-70316194D01*
X128629609Y-70316197D01*
X128625775Y-70317181D01*
X128622095Y-70318638D01*
X128622092Y-70318639D01*
X128492637Y-70369894D01*
X128333234Y-70433006D01*
X128057516Y-70584584D01*
X128054312Y-70586912D01*
X128054307Y-70586915D01*
X127806174Y-70767194D01*
X127802970Y-70769522D01*
X127573610Y-70984906D01*
X127373053Y-71227337D01*
X127204463Y-71492993D01*
X127202779Y-71496572D01*
X127202775Y-71496579D01*
X127072186Y-71774095D01*
X127070497Y-71777685D01*
X126973269Y-72076921D01*
X126914312Y-72385985D01*
X126894556Y-72700000D01*
X114884037Y-72700000D01*
X114826121Y-72420337D01*
X114728243Y-72143938D01*
X114593759Y-71883380D01*
X114425158Y-71643484D01*
X114422233Y-71640336D01*
X114228479Y-71431833D01*
X114228476Y-71431831D01*
X114225558Y-71428690D01*
X113998655Y-71242972D01*
X113748646Y-71089766D01*
X113480158Y-70971908D01*
X113453707Y-70964373D01*
X113202287Y-70892754D01*
X113202288Y-70892754D01*
X113198159Y-70891578D01*
X112981375Y-70860726D01*
X112912119Y-70850869D01*
X112912117Y-70850869D01*
X112907867Y-70850264D01*
X112903578Y-70850242D01*
X112903571Y-70850241D01*
X112618939Y-70848750D01*
X112618932Y-70848750D01*
X112614653Y-70848728D01*
X112610408Y-70849287D01*
X112610406Y-70849287D01*
X112545086Y-70857887D01*
X112323945Y-70887001D01*
X112041120Y-70964373D01*
X111771412Y-71079413D01*
X111767731Y-71081616D01*
X111523495Y-71227788D01*
X111523491Y-71227791D01*
X111519813Y-71229992D01*
X111290977Y-71413324D01*
X111089139Y-71626017D01*
X110918035Y-71864134D01*
X110780830Y-72123269D01*
X110680063Y-72398628D01*
X110617599Y-72685114D01*
X110594593Y-72977428D01*
X110303986Y-72977428D01*
X110285582Y-72707462D01*
X110226121Y-72420337D01*
X110128243Y-72143938D01*
X109993759Y-71883380D01*
X109825158Y-71643484D01*
X109822233Y-71640336D01*
X109628479Y-71431833D01*
X109628476Y-71431831D01*
X109625558Y-71428690D01*
X109398655Y-71242972D01*
X109148646Y-71089766D01*
X108880158Y-70971908D01*
X108853707Y-70964373D01*
X108602287Y-70892754D01*
X108602288Y-70892754D01*
X108598159Y-70891578D01*
X108381375Y-70860726D01*
X108312119Y-70850869D01*
X108312117Y-70850869D01*
X108307867Y-70850264D01*
X108303578Y-70850242D01*
X108303571Y-70850241D01*
X108018939Y-70848750D01*
X108018932Y-70848750D01*
X108014653Y-70848728D01*
X108010408Y-70849287D01*
X108010406Y-70849287D01*
X107945086Y-70857887D01*
X107723945Y-70887001D01*
X107441120Y-70964373D01*
X107171412Y-71079413D01*
X107167731Y-71081616D01*
X106923495Y-71227788D01*
X106923491Y-71227791D01*
X106919813Y-71229992D01*
X106690977Y-71413324D01*
X106489139Y-71626017D01*
X106318035Y-71864134D01*
X106180830Y-72123269D01*
X106080063Y-72398628D01*
X106017599Y-72685114D01*
X105994593Y-72977428D01*
X100065322Y-72977428D01*
X100049766Y-66552867D01*
X116450082Y-66552867D01*
X116450306Y-66557533D01*
X116450306Y-66557538D01*
X116452346Y-66600000D01*
X116462886Y-66819430D01*
X116514950Y-67081172D01*
X116605129Y-67332344D01*
X116731444Y-67567427D01*
X116734239Y-67571170D01*
X116734241Y-67571173D01*
X116888327Y-67777519D01*
X116888332Y-67777525D01*
X116891119Y-67781257D01*
X116894428Y-67784537D01*
X116894433Y-67784543D01*
X117077329Y-67965850D01*
X117080646Y-67969138D01*
X117084408Y-67971896D01*
X117084411Y-67971899D01*
X117203369Y-68059122D01*
X117295862Y-68126940D01*
X117299997Y-68129116D01*
X117300001Y-68129118D01*
X117527895Y-68249020D01*
X117527903Y-68249024D01*
X117532038Y-68251199D01*
X117783987Y-68339183D01*
X117788580Y-68340055D01*
X118041585Y-68388090D01*
X118041588Y-68388090D01*
X118046174Y-68388961D01*
X118172890Y-68393940D01*
X118308170Y-68399255D01*
X118308175Y-68399255D01*
X118312838Y-68399438D01*
X118416457Y-68388090D01*
X118573468Y-68370895D01*
X118573474Y-68370894D01*
X118578121Y-68370385D01*
X118693322Y-68340055D01*
X118831674Y-68303630D01*
X118831676Y-68303629D01*
X118836197Y-68302439D01*
X118840494Y-68300593D01*
X119077101Y-68198939D01*
X119077103Y-68198938D01*
X119081395Y-68197094D01*
X119199230Y-68124175D01*
X119304355Y-68059122D01*
X119304359Y-68059119D01*
X119308328Y-68056663D01*
X119327554Y-68040387D01*
X119508446Y-67887251D01*
X119508447Y-67887250D01*
X119512012Y-67884232D01*
X119605597Y-67777519D01*
X119684889Y-67687104D01*
X119684892Y-67687099D01*
X119687971Y-67683589D01*
X119699572Y-67665554D01*
X119706241Y-67655186D01*
X147509960Y-67655186D01*
X147517418Y-67665554D01*
X147732662Y-67839854D01*
X147737984Y-67843721D01*
X148040823Y-68040387D01*
X148046532Y-68043683D01*
X148368275Y-68207620D01*
X148374286Y-68210296D01*
X148711395Y-68339700D01*
X148717672Y-68341740D01*
X149066463Y-68435198D01*
X149072901Y-68436567D01*
X149429560Y-68493055D01*
X149436104Y-68493743D01*
X149796699Y-68512641D01*
X149803301Y-68512641D01*
X150163896Y-68493743D01*
X150170440Y-68493055D01*
X150527099Y-68436567D01*
X150533537Y-68435198D01*
X150882328Y-68341740D01*
X150888605Y-68339700D01*
X151225714Y-68210296D01*
X151231725Y-68207620D01*
X151553468Y-68043683D01*
X151559177Y-68040387D01*
X151862016Y-67843721D01*
X151867338Y-67839854D01*
X152081634Y-67666322D01*
X152090100Y-67654067D01*
X152083766Y-67642976D01*
X149812812Y-65372022D01*
X149798868Y-65364408D01*
X149797035Y-65364539D01*
X149790420Y-65368790D01*
X147517100Y-67642110D01*
X147509960Y-67655186D01*
X119706241Y-67655186D01*
X119829816Y-67463067D01*
X119829818Y-67463064D01*
X119832341Y-67459141D01*
X119941949Y-67215819D01*
X120014389Y-66958969D01*
X120048067Y-66694233D01*
X120050535Y-66600000D01*
X120047380Y-66557538D01*
X120031104Y-66338516D01*
X120031103Y-66338512D01*
X120030758Y-66333864D01*
X120000581Y-66200500D01*
X119973952Y-66082819D01*
X119971860Y-66073575D01*
X119970167Y-66069221D01*
X119876829Y-65829203D01*
X119876828Y-65829201D01*
X119875136Y-65824850D01*
X119742711Y-65593154D01*
X119727194Y-65573470D01*
X119604481Y-65417809D01*
X119577494Y-65383576D01*
X119383113Y-65200721D01*
X119169221Y-65052339D01*
X119167679Y-65051269D01*
X119167674Y-65051266D01*
X119163841Y-65048607D01*
X119150531Y-65042043D01*
X118928680Y-64932638D01*
X118928677Y-64932637D01*
X118924492Y-64930573D01*
X118670327Y-64849214D01*
X118567324Y-64832439D01*
X118411540Y-64807068D01*
X118411536Y-64807068D01*
X118406927Y-64806317D01*
X118273504Y-64804570D01*
X118144757Y-64802884D01*
X118144754Y-64802884D01*
X118140080Y-64802823D01*
X117875648Y-64838811D01*
X117619439Y-64913489D01*
X117377083Y-65025217D01*
X117373174Y-65027780D01*
X117157817Y-65168974D01*
X117157812Y-65168978D01*
X117153904Y-65171540D01*
X116954804Y-65349243D01*
X116784157Y-65554424D01*
X116645712Y-65782574D01*
X116643903Y-65786888D01*
X116643902Y-65786890D01*
X116591813Y-65911109D01*
X116542510Y-66028682D01*
X116541359Y-66033214D01*
X116541358Y-66033217D01*
X116515828Y-66133741D01*
X116476819Y-66287340D01*
X116450082Y-66552867D01*
X100049766Y-66552867D01*
X100047659Y-65682472D01*
X110032082Y-65682472D01*
X110041378Y-65694487D01*
X110091506Y-65729587D01*
X110100996Y-65735065D01*
X110297661Y-65826771D01*
X110307957Y-65830519D01*
X110517561Y-65886683D01*
X110528350Y-65888585D01*
X110744525Y-65907498D01*
X110755475Y-65907498D01*
X110971650Y-65888585D01*
X110982439Y-65886683D01*
X111192043Y-65830519D01*
X111202339Y-65826771D01*
X111399004Y-65735065D01*
X111408494Y-65729587D01*
X111459460Y-65693900D01*
X111467834Y-65683424D01*
X111460768Y-65669979D01*
X110762811Y-64972021D01*
X110748868Y-64964408D01*
X110747034Y-64964539D01*
X110740420Y-64968790D01*
X110038509Y-65670702D01*
X110032082Y-65682472D01*
X100047659Y-65682472D01*
X100045051Y-64605475D01*
X109442502Y-64605475D01*
X109461415Y-64821650D01*
X109463317Y-64832439D01*
X109519481Y-65042043D01*
X109523229Y-65052339D01*
X109614933Y-65249001D01*
X109620416Y-65258496D01*
X109656100Y-65309458D01*
X109666577Y-65317833D01*
X109680023Y-65310766D01*
X110377979Y-64612811D01*
X110384356Y-64601132D01*
X111114408Y-64601132D01*
X111114539Y-64602966D01*
X111118790Y-64609580D01*
X111820701Y-65311490D01*
X111832471Y-65317917D01*
X111844485Y-65308623D01*
X111879584Y-65258496D01*
X111885067Y-65249001D01*
X111976771Y-65052339D01*
X111980519Y-65042043D01*
X112036683Y-64832439D01*
X112038585Y-64821650D01*
X112057498Y-64605475D01*
X112057498Y-64594525D01*
X112038585Y-64378350D01*
X112036683Y-64367561D01*
X111980519Y-64157957D01*
X111976771Y-64147661D01*
X111885067Y-63950999D01*
X111879584Y-63941504D01*
X111843900Y-63890542D01*
X111833423Y-63882167D01*
X111819977Y-63889234D01*
X111122021Y-64587189D01*
X111114408Y-64601132D01*
X110384356Y-64601132D01*
X110385592Y-64598868D01*
X110385461Y-64597034D01*
X110381210Y-64590420D01*
X109679299Y-63888510D01*
X109667529Y-63882083D01*
X109655515Y-63891377D01*
X109620416Y-63941504D01*
X109614933Y-63950999D01*
X109523229Y-64147661D01*
X109519481Y-64157957D01*
X109463317Y-64367561D01*
X109461415Y-64378350D01*
X109442502Y-64594525D01*
X109442502Y-64605475D01*
X100045051Y-64605475D01*
X100042415Y-63516577D01*
X110032167Y-63516577D01*
X110039234Y-63530023D01*
X110737189Y-64227979D01*
X110751132Y-64235592D01*
X110752966Y-64235461D01*
X110759580Y-64231210D01*
X111461491Y-63529298D01*
X111467918Y-63517528D01*
X111458622Y-63505513D01*
X111408494Y-63470413D01*
X111399004Y-63464935D01*
X111202339Y-63373229D01*
X111192043Y-63369481D01*
X110982439Y-63313317D01*
X110971650Y-63311415D01*
X110755475Y-63292502D01*
X110744525Y-63292502D01*
X110528350Y-63311415D01*
X110517561Y-63313317D01*
X110307957Y-63369481D01*
X110297661Y-63373229D01*
X110100999Y-63464933D01*
X110091504Y-63470416D01*
X110040542Y-63506100D01*
X110032167Y-63516577D01*
X100042415Y-63516577D01*
X100039292Y-62226805D01*
X100059129Y-62158636D01*
X100112672Y-62112013D01*
X100165292Y-62100500D01*
X127224354Y-62100500D01*
X127292475Y-62120502D01*
G37*
%TD.AperFunction*%
%TD*%
D18*
X110750000Y-64600000D03*
X118250000Y-66600000D03*
X118250000Y-99400000D03*
X110750000Y-97400000D03*
X132400000Y-99700000D03*
X135400000Y-99700000D03*
X129400000Y-99700000D03*
X129400000Y-90700000D03*
X135400000Y-90700000D03*
X132400000Y-90700000D03*
X87150000Y-90400000D03*
X91750000Y-90400000D03*
X108050000Y-90400000D03*
X112650000Y-90400000D03*
X71662500Y-93620000D03*
X71662500Y-69880000D03*
X82002500Y-77940000D03*
X76922500Y-77940000D03*
X74382500Y-77940000D03*
X82002500Y-85560000D03*
X76922500Y-85560000D03*
X74382500Y-85560000D03*
X110750000Y-81200000D03*
X118250000Y-83200000D03*
X144700000Y-93300000D03*
X149800000Y-65000000D03*
X149200000Y-98500000D03*
X87250000Y-73000000D03*
X91850000Y-73000000D03*
X112750000Y-73000000D03*
X108150000Y-73000000D03*
X135400000Y-63700000D03*
X132400000Y-63700000D03*
X129400000Y-63700000D03*
X132400000Y-72700000D03*
X135400000Y-72700000D03*
X129400000Y-72700000D03*
X88800000Y-98500000D03*
X140917500Y-85560000D03*
X145997500Y-85560000D03*
X148537500Y-85560000D03*
X140917500Y-77940000D03*
X145997500Y-77940000D03*
X148537500Y-77940000D03*
X88800000Y-65000000D03*
M02*
