M48
METRIC,TZ
T1C1.000
T2C1.060
T3C1.300
T4C3.000
%
G90
G05
T1
X129400Y-63700
X129400Y-72700
X129400Y-90700
X129400Y-99700
X132400Y-63700
X132400Y-72700
X132400Y-90700
X132400Y-99700
X135400Y-63700
X135400Y-72700
X135400Y-90700
X135400Y-99700
T2
X110750Y-64600
X110750Y-81200
X110750Y-97400
X118250Y-66600
X118250Y-83200
X118250Y-99400
T3
X74382Y-77940
X74382Y-85560
X76923Y-77940
X76923Y-85560
X82003Y-77940
X82003Y-85560
X87150Y-90400
X87250Y-73000
X91750Y-90400
X91850Y-73000
X108050Y-90400
X108150Y-73000
X112650Y-90400
X112750Y-73000
X140918Y-77940
X140918Y-85560
X145998Y-77940
X145998Y-85560
X148538Y-77940
X148538Y-85560
T4
X88800Y-65000
X88800Y-98500
X144700Y-93300
X149200Y-98500
X149800Y-65000
T0
M30
