%TF.GenerationSoftware,KiCad,Pcbnew,(6.0.7)*%
%TF.CreationDate,2024-06-22T12:01:18+05:30*%
%TF.ProjectId,BBNL_PDU_Protector,42424e4c-5f50-4445-955f-50726f746563,rev?*%
%TF.SameCoordinates,Original*%
%TF.FileFunction,Soldermask,Bot*%
%TF.FilePolarity,Negative*%
%FSLAX46Y46*%
G04 Gerber Fmt 4.6, Leading zero omitted, Abs format (unit mm)*
G04 Created by KiCad (PCBNEW (6.0.7)) date 2024-06-22 12:01:18*
%MOMM*%
%LPD*%
G01*
G04 APERTURE LIST*
%ADD10C,1.794000*%
%ADD11C,3.000000*%
%ADD12R,3.000000X3.000000*%
%ADD13C,2.300000*%
%ADD14C,3.200000*%
%ADD15C,2.154000*%
%ADD16C,6.000000*%
%ADD17C,3.400000*%
G04 APERTURE END LIST*
D10*
%TO.C,RV1*%
X110750000Y-64600000D03*
X118250000Y-66600000D03*
%TD*%
%TO.C,RV3*%
X118250000Y-99400000D03*
X110750000Y-97400000D03*
%TD*%
D11*
%TO.C,L2*%
X132400000Y-99700000D03*
X135400000Y-99700000D03*
D12*
X129400000Y-99700000D03*
D11*
X129400000Y-90700000D03*
X135400000Y-90700000D03*
X132400000Y-90700000D03*
%TD*%
D13*
%TO.C,F2*%
X87150000Y-90400000D03*
X91750000Y-90400000D03*
X108050000Y-90400000D03*
X112650000Y-90400000D03*
%TD*%
D14*
%TO.C,J1*%
X71662500Y-93620000D03*
X71662500Y-69880000D03*
D15*
X82002500Y-77940000D03*
X76922500Y-77940000D03*
X74382500Y-77940000D03*
X82002500Y-85560000D03*
X76922500Y-85560000D03*
X74382500Y-85560000D03*
%TD*%
D10*
%TO.C,RV2*%
X110750000Y-81200000D03*
X118250000Y-83200000D03*
%TD*%
D16*
%TO.C,H5*%
X144700000Y-93300000D03*
D17*
X144700000Y-93300000D03*
%TD*%
%TO.C,H3*%
X149800000Y-65000000D03*
D16*
X149800000Y-65000000D03*
%TD*%
D17*
%TO.C,H4*%
X149200000Y-98500000D03*
D16*
X149200000Y-98500000D03*
%TD*%
D13*
%TO.C,F1*%
X87250000Y-73000000D03*
X91850000Y-73000000D03*
X112750000Y-73000000D03*
X108150000Y-73000000D03*
%TD*%
D12*
%TO.C,L1*%
X135400000Y-63700000D03*
D11*
X132400000Y-63700000D03*
X129400000Y-63700000D03*
X132400000Y-72700000D03*
X135400000Y-72700000D03*
X129400000Y-72700000D03*
%TD*%
D17*
%TO.C,H2*%
X88800000Y-98500000D03*
D16*
X88800000Y-98500000D03*
%TD*%
D15*
%TO.C,J2*%
X140917500Y-85560000D03*
X145997500Y-85560000D03*
X148537500Y-85560000D03*
X140917500Y-77940000D03*
X145997500Y-77940000D03*
X148537500Y-77940000D03*
%TD*%
D17*
%TO.C,H1*%
X88800000Y-65000000D03*
D16*
X88800000Y-65000000D03*
%TD*%
M02*
