%TF.GenerationSoftware,KiCad,Pcbnew,(6.0.7)*%
%TF.CreationDate,2024-05-27T12:45:13+05:30*%
%TF.ProjectId,G0449P0983,47303434-3950-4303-9938-332e6b696361,rev?*%
%TF.SameCoordinates,Original*%
%TF.FileFunction,Legend,Bot*%
%TF.FilePolarity,Positive*%
%FSLAX46Y46*%
G04 Gerber Fmt 4.6, Leading zero omitted, Abs format (unit mm)*
G04 Created by KiCad (PCBNEW (6.0.7)) date 2024-05-27 12:45:13*
%MOMM*%
%LPD*%
G01*
G04 APERTURE LIST*
%ADD10C,0.350000*%
%ADD11O,1.500000X3.500000*%
G04 APERTURE END LIST*
D10*
X139300000Y-105600000D03*
X139371828Y-71200000D03*
X45294128Y-66651681D03*
X45294128Y-73651681D03*
D11*
X45294128Y-70151681D03*
D10*
X46216162Y-56890035D03*
X139371828Y-113461257D03*
X139368909Y-56896463D03*
X83086702Y-69600000D03*
X95586702Y-69600000D03*
X101436702Y-73700000D03*
X118536702Y-81700000D03*
X53736702Y-107900000D03*
X53736702Y-86900000D03*
X45294128Y-82124526D03*
X45294128Y-89124526D03*
D11*
X45294128Y-85624526D03*
D10*
X61286702Y-84600000D03*
X71786702Y-84600000D03*
X128836702Y-112250000D03*
X128836702Y-109750000D03*
X128836702Y-101750000D03*
X71936702Y-101000000D03*
X64436702Y-101000000D03*
X79486702Y-101000000D03*
X93986702Y-101000000D03*
X109036702Y-101000000D03*
X101536702Y-101000000D03*
X128836702Y-90250000D03*
X128836702Y-87750000D03*
X128836702Y-79750000D03*
X46216162Y-113468243D03*
X59036702Y-97600000D03*
X59036702Y-89600000D03*
X139371828Y-89300000D03*
X120636702Y-70250000D03*
X120636702Y-59750000D03*
X128836702Y-67125000D03*
X128836702Y-64625000D03*
X128836702Y-56625000D03*
X74036702Y-58400000D03*
X66536702Y-58400000D03*
X81586702Y-58400000D03*
X96086702Y-58400000D03*
X111136702Y-58400000D03*
X103636702Y-58400000D03*
X118036702Y-107290000D03*
X118036702Y-92710000D03*
X45294128Y-97633252D03*
X45294128Y-104633252D03*
D11*
X45294128Y-101133252D03*
D10*
X83936702Y-91300000D03*
X91936702Y-74200000D03*
X105186702Y-110900000D03*
X94686702Y-110900000D03*
X58846702Y-73400000D03*
X73426702Y-73400000D03*
M02*
