%TF.GenerationSoftware,KiCad,Pcbnew,(6.0.7)*%
%TF.CreationDate,2024-05-27T12:45:13+05:30*%
%TF.ProjectId,G0449P0983,47303434-3950-4303-9938-332e6b696361,rev?*%
%TF.SameCoordinates,Original*%
%TF.FileFunction,Legend,Top*%
%TF.FilePolarity,Positive*%
%FSLAX46Y46*%
G04 Gerber Fmt 4.6, Leading zero omitted, Abs format (unit mm)*
G04 Created by KiCad (PCBNEW (6.0.7)) date 2024-05-27 12:45:13*
%MOMM*%
%LPD*%
G01*
G04 APERTURE LIST*
%ADD10C,0.150000*%
%ADD11C,0.125000*%
%ADD12C,0.120000*%
%ADD13C,0.500000*%
%ADD14C,0.350000*%
%ADD15O,1.500000X3.500000*%
G04 APERTURE END LIST*
D10*
X115000000Y-115200000D02*
X117900000Y-115200000D01*
X117900000Y-115200000D02*
X117900000Y-117800000D01*
X117900000Y-117800000D02*
X115000000Y-117800000D01*
X115000000Y-117800000D02*
X115000000Y-115200000D01*
X115000000Y-116800000D02*
X117900000Y-116800000D01*
X60440357Y-109135000D02*
X60297500Y-109063571D01*
X60083214Y-109063571D01*
X59868928Y-109135000D01*
X59726071Y-109277857D01*
X59654642Y-109420714D01*
X59583214Y-109706428D01*
X59583214Y-109920714D01*
X59654642Y-110206428D01*
X59726071Y-110349285D01*
X59868928Y-110492142D01*
X60083214Y-110563571D01*
X60226071Y-110563571D01*
X60440357Y-110492142D01*
X60511785Y-110420714D01*
X60511785Y-109920714D01*
X60226071Y-109920714D01*
X61440357Y-109063571D02*
X61726071Y-109063571D01*
X61868928Y-109135000D01*
X62011785Y-109277857D01*
X62083214Y-109563571D01*
X62083214Y-110063571D01*
X62011785Y-110349285D01*
X61868928Y-110492142D01*
X61726071Y-110563571D01*
X61440357Y-110563571D01*
X61297500Y-110492142D01*
X61154642Y-110349285D01*
X61083214Y-110063571D01*
X61083214Y-109563571D01*
X61154642Y-109277857D01*
X61297500Y-109135000D01*
X61440357Y-109063571D01*
X63368928Y-109563571D02*
X63368928Y-110563571D01*
X63011785Y-108992142D02*
X62654642Y-110063571D01*
X63583214Y-110063571D01*
X64797500Y-109563571D02*
X64797500Y-110563571D01*
X64440357Y-108992142D02*
X64083214Y-110063571D01*
X65011785Y-110063571D01*
X65654642Y-110563571D02*
X65940357Y-110563571D01*
X66083214Y-110492142D01*
X66154642Y-110420714D01*
X66297500Y-110206428D01*
X66368928Y-109920714D01*
X66368928Y-109349285D01*
X66297500Y-109206428D01*
X66226071Y-109135000D01*
X66083214Y-109063571D01*
X65797500Y-109063571D01*
X65654642Y-109135000D01*
X65583214Y-109206428D01*
X65511785Y-109349285D01*
X65511785Y-109706428D01*
X65583214Y-109849285D01*
X65654642Y-109920714D01*
X65797500Y-109992142D01*
X66083214Y-109992142D01*
X66226071Y-109920714D01*
X66297500Y-109849285D01*
X66368928Y-109706428D01*
X67011785Y-110563571D02*
X67011785Y-109063571D01*
X67583214Y-109063571D01*
X67726071Y-109135000D01*
X67797500Y-109206428D01*
X67868928Y-109349285D01*
X67868928Y-109563571D01*
X67797500Y-109706428D01*
X67726071Y-109777857D01*
X67583214Y-109849285D01*
X67011785Y-109849285D01*
X68797500Y-109063571D02*
X69083214Y-109063571D01*
X69226071Y-109135000D01*
X69368928Y-109277857D01*
X69440357Y-109563571D01*
X69440357Y-110063571D01*
X69368928Y-110349285D01*
X69226071Y-110492142D01*
X69083214Y-110563571D01*
X68797500Y-110563571D01*
X68654642Y-110492142D01*
X68511785Y-110349285D01*
X68440357Y-110063571D01*
X68440357Y-109563571D01*
X68511785Y-109277857D01*
X68654642Y-109135000D01*
X68797500Y-109063571D01*
X70154642Y-110563571D02*
X70440357Y-110563571D01*
X70583214Y-110492142D01*
X70654642Y-110420714D01*
X70797500Y-110206428D01*
X70868928Y-109920714D01*
X70868928Y-109349285D01*
X70797500Y-109206428D01*
X70726071Y-109135000D01*
X70583214Y-109063571D01*
X70297500Y-109063571D01*
X70154642Y-109135000D01*
X70083214Y-109206428D01*
X70011785Y-109349285D01*
X70011785Y-109706428D01*
X70083214Y-109849285D01*
X70154642Y-109920714D01*
X70297500Y-109992142D01*
X70583214Y-109992142D01*
X70726071Y-109920714D01*
X70797500Y-109849285D01*
X70868928Y-109706428D01*
X71726071Y-109706428D02*
X71583214Y-109635000D01*
X71511785Y-109563571D01*
X71440357Y-109420714D01*
X71440357Y-109349285D01*
X71511785Y-109206428D01*
X71583214Y-109135000D01*
X71726071Y-109063571D01*
X72011785Y-109063571D01*
X72154642Y-109135000D01*
X72226071Y-109206428D01*
X72297500Y-109349285D01*
X72297500Y-109420714D01*
X72226071Y-109563571D01*
X72154642Y-109635000D01*
X72011785Y-109706428D01*
X71726071Y-109706428D01*
X71583214Y-109777857D01*
X71511785Y-109849285D01*
X71440357Y-109992142D01*
X71440357Y-110277857D01*
X71511785Y-110420714D01*
X71583214Y-110492142D01*
X71726071Y-110563571D01*
X72011785Y-110563571D01*
X72154642Y-110492142D01*
X72226071Y-110420714D01*
X72297500Y-110277857D01*
X72297500Y-109992142D01*
X72226071Y-109849285D01*
X72154642Y-109777857D01*
X72011785Y-109706428D01*
X72797500Y-109063571D02*
X73726071Y-109063571D01*
X73226071Y-109635000D01*
X73440357Y-109635000D01*
X73583214Y-109706428D01*
X73654642Y-109777857D01*
X73726071Y-109920714D01*
X73726071Y-110277857D01*
X73654642Y-110420714D01*
X73583214Y-110492142D01*
X73440357Y-110563571D01*
X73011785Y-110563571D01*
X72868928Y-110492142D01*
X72797500Y-110420714D01*
X60511785Y-112978571D02*
X60011785Y-112264285D01*
X59654642Y-112978571D02*
X59654642Y-111478571D01*
X60226071Y-111478571D01*
X60368928Y-111550000D01*
X60440357Y-111621428D01*
X60511785Y-111764285D01*
X60511785Y-111978571D01*
X60440357Y-112121428D01*
X60368928Y-112192857D01*
X60226071Y-112264285D01*
X59654642Y-112264285D01*
X61154642Y-112192857D02*
X61654642Y-112192857D01*
X61868928Y-112978571D02*
X61154642Y-112978571D01*
X61154642Y-111478571D01*
X61868928Y-111478571D01*
X62297500Y-111478571D02*
X62797500Y-112978571D01*
X63297500Y-111478571D01*
X63797500Y-112407142D02*
X64940357Y-112407142D01*
X66440357Y-112978571D02*
X65583214Y-112978571D01*
X66011785Y-112978571D02*
X66011785Y-111478571D01*
X65868928Y-111692857D01*
X65726071Y-111835714D01*
X65583214Y-111907142D01*
X67083214Y-112835714D02*
X67154642Y-112907142D01*
X67083214Y-112978571D01*
X67011785Y-112907142D01*
X67083214Y-112835714D01*
X67083214Y-112978571D01*
X68583214Y-112978571D02*
X67726071Y-112978571D01*
X68154642Y-112978571D02*
X68154642Y-111478571D01*
X68011785Y-111692857D01*
X67868928Y-111835714D01*
X67726071Y-111907142D01*
X59940357Y-113893571D02*
X60083214Y-113893571D01*
X60226071Y-113965000D01*
X60297500Y-114036428D01*
X60368928Y-114179285D01*
X60440357Y-114465000D01*
X60440357Y-114822142D01*
X60368928Y-115107857D01*
X60297500Y-115250714D01*
X60226071Y-115322142D01*
X60083214Y-115393571D01*
X59940357Y-115393571D01*
X59797500Y-115322142D01*
X59726071Y-115250714D01*
X59654642Y-115107857D01*
X59583214Y-114822142D01*
X59583214Y-114465000D01*
X59654642Y-114179285D01*
X59726071Y-114036428D01*
X59797500Y-113965000D01*
X59940357Y-113893571D01*
X61011785Y-114036428D02*
X61083214Y-113965000D01*
X61226071Y-113893571D01*
X61583214Y-113893571D01*
X61726071Y-113965000D01*
X61797500Y-114036428D01*
X61868928Y-114179285D01*
X61868928Y-114322142D01*
X61797500Y-114536428D01*
X60940357Y-115393571D01*
X61868928Y-115393571D01*
X62511785Y-114822142D02*
X63654642Y-114822142D01*
X64654642Y-113893571D02*
X64797500Y-113893571D01*
X64940357Y-113965000D01*
X65011785Y-114036428D01*
X65083214Y-114179285D01*
X65154642Y-114465000D01*
X65154642Y-114822142D01*
X65083214Y-115107857D01*
X65011785Y-115250714D01*
X64940357Y-115322142D01*
X64797500Y-115393571D01*
X64654642Y-115393571D01*
X64511785Y-115322142D01*
X64440357Y-115250714D01*
X64368928Y-115107857D01*
X64297500Y-114822142D01*
X64297500Y-114465000D01*
X64368928Y-114179285D01*
X64440357Y-114036428D01*
X64511785Y-113965000D01*
X64654642Y-113893571D01*
X66011785Y-114536428D02*
X65868928Y-114465000D01*
X65797500Y-114393571D01*
X65726071Y-114250714D01*
X65726071Y-114179285D01*
X65797500Y-114036428D01*
X65868928Y-113965000D01*
X66011785Y-113893571D01*
X66297500Y-113893571D01*
X66440357Y-113965000D01*
X66511785Y-114036428D01*
X66583214Y-114179285D01*
X66583214Y-114250714D01*
X66511785Y-114393571D01*
X66440357Y-114465000D01*
X66297500Y-114536428D01*
X66011785Y-114536428D01*
X65868928Y-114607857D01*
X65797500Y-114679285D01*
X65726071Y-114822142D01*
X65726071Y-115107857D01*
X65797500Y-115250714D01*
X65868928Y-115322142D01*
X66011785Y-115393571D01*
X66297500Y-115393571D01*
X66440357Y-115322142D01*
X66511785Y-115250714D01*
X66583214Y-115107857D01*
X66583214Y-114822142D01*
X66511785Y-114679285D01*
X66440357Y-114607857D01*
X66297500Y-114536428D01*
X67226071Y-114822142D02*
X68368928Y-114822142D01*
X69868928Y-115393571D02*
X69011785Y-115393571D01*
X69440357Y-115393571D02*
X69440357Y-113893571D01*
X69297500Y-114107857D01*
X69154642Y-114250714D01*
X69011785Y-114322142D01*
X71154642Y-113893571D02*
X70868928Y-113893571D01*
X70726071Y-113965000D01*
X70654642Y-114036428D01*
X70511785Y-114250714D01*
X70440357Y-114536428D01*
X70440357Y-115107857D01*
X70511785Y-115250714D01*
X70583214Y-115322142D01*
X70726071Y-115393571D01*
X71011785Y-115393571D01*
X71154642Y-115322142D01*
X71226071Y-115250714D01*
X71297500Y-115107857D01*
X71297500Y-114750714D01*
X71226071Y-114607857D01*
X71154642Y-114536428D01*
X71011785Y-114465000D01*
X70726071Y-114465000D01*
X70583214Y-114536428D01*
X70511785Y-114607857D01*
X70440357Y-114750714D01*
D11*
X103242857Y-118550000D02*
X103195238Y-118526190D01*
X103123809Y-118526190D01*
X103052380Y-118550000D01*
X103004761Y-118597619D01*
X102980952Y-118645238D01*
X102957142Y-118740476D01*
X102957142Y-118811904D01*
X102980952Y-118907142D01*
X103004761Y-118954761D01*
X103052380Y-119002380D01*
X103123809Y-119026190D01*
X103171428Y-119026190D01*
X103242857Y-119002380D01*
X103266666Y-118978571D01*
X103266666Y-118811904D01*
X103171428Y-118811904D01*
X103480952Y-118764285D02*
X103647619Y-118764285D01*
X103719047Y-119026190D02*
X103480952Y-119026190D01*
X103480952Y-118526190D01*
X103719047Y-118526190D01*
X103933333Y-119026190D02*
X103933333Y-118526190D01*
X104219047Y-119026190D01*
X104219047Y-118526190D01*
X104457142Y-118526190D02*
X104457142Y-118930952D01*
X104480952Y-118978571D01*
X104504761Y-119002380D01*
X104552380Y-119026190D01*
X104647619Y-119026190D01*
X104695238Y-119002380D01*
X104719047Y-118978571D01*
X104742857Y-118930952D01*
X104742857Y-118526190D01*
X104957142Y-119002380D02*
X105028571Y-119026190D01*
X105147619Y-119026190D01*
X105195238Y-119002380D01*
X105219047Y-118978571D01*
X105242857Y-118930952D01*
X105242857Y-118883333D01*
X105219047Y-118835714D01*
X105195238Y-118811904D01*
X105147619Y-118788095D01*
X105052380Y-118764285D01*
X105004761Y-118740476D01*
X104980952Y-118716666D01*
X104957142Y-118669047D01*
X104957142Y-118621428D01*
X104980952Y-118573809D01*
X105004761Y-118550000D01*
X105052380Y-118526190D01*
X105171428Y-118526190D01*
X105242857Y-118550000D01*
D10*
X115590476Y-115928571D02*
X115733333Y-115976190D01*
X115780952Y-116023809D01*
X115828571Y-116119047D01*
X115828571Y-116261904D01*
X115780952Y-116357142D01*
X115733333Y-116404761D01*
X115638095Y-116452380D01*
X115257142Y-116452380D01*
X115257142Y-115452380D01*
X115590476Y-115452380D01*
X115685714Y-115500000D01*
X115733333Y-115547619D01*
X115780952Y-115642857D01*
X115780952Y-115738095D01*
X115733333Y-115833333D01*
X115685714Y-115880952D01*
X115590476Y-115928571D01*
X115257142Y-115928571D01*
X116590476Y-115928571D02*
X116733333Y-115976190D01*
X116780952Y-116023809D01*
X116828571Y-116119047D01*
X116828571Y-116261904D01*
X116780952Y-116357142D01*
X116733333Y-116404761D01*
X116638095Y-116452380D01*
X116257142Y-116452380D01*
X116257142Y-115452380D01*
X116590476Y-115452380D01*
X116685714Y-115500000D01*
X116733333Y-115547619D01*
X116780952Y-115642857D01*
X116780952Y-115738095D01*
X116733333Y-115833333D01*
X116685714Y-115880952D01*
X116590476Y-115928571D01*
X116257142Y-115928571D01*
X117114285Y-115452380D02*
X117685714Y-115452380D01*
X117400000Y-116452380D02*
X117400000Y-115452380D01*
D11*
X116102380Y-117026190D02*
X116197619Y-117026190D01*
X116245238Y-117050000D01*
X116292857Y-117097619D01*
X116316666Y-117192857D01*
X116316666Y-117359523D01*
X116292857Y-117454761D01*
X116245238Y-117502380D01*
X116197619Y-117526190D01*
X116102380Y-117526190D01*
X116054761Y-117502380D01*
X116007142Y-117454761D01*
X115983333Y-117359523D01*
X115983333Y-117192857D01*
X116007142Y-117097619D01*
X116054761Y-117050000D01*
X116102380Y-117026190D01*
X116530952Y-117526190D02*
X116530952Y-117026190D01*
X116816666Y-117526190D02*
X116602380Y-117240476D01*
X116816666Y-117026190D02*
X116530952Y-117311904D01*
D10*
%TO.C,EO1*%
X142856743Y-106266666D02*
X142856743Y-105933333D01*
X143380552Y-105790476D02*
X143380552Y-106266666D01*
X142380552Y-106266666D01*
X142380552Y-105790476D01*
X143380552Y-105219047D02*
X143332933Y-105314285D01*
X143285314Y-105361904D01*
X143190076Y-105409523D01*
X142904362Y-105409523D01*
X142809124Y-105361904D01*
X142761505Y-105314285D01*
X142713886Y-105219047D01*
X142713886Y-105076190D01*
X142761505Y-104980952D01*
X142809124Y-104933333D01*
X142904362Y-104885714D01*
X143190076Y-104885714D01*
X143285314Y-104933333D01*
X143332933Y-104980952D01*
X143380552Y-105076190D01*
X143380552Y-105219047D01*
%TO.C,Lo1*%
X143452380Y-71442857D02*
X143452380Y-71919047D01*
X142452380Y-71919047D01*
X143452380Y-70966666D02*
X143404761Y-71061904D01*
X143357142Y-71109523D01*
X143261904Y-71157142D01*
X142976190Y-71157142D01*
X142880952Y-71109523D01*
X142833333Y-71061904D01*
X142785714Y-70966666D01*
X142785714Y-70823809D01*
X142833333Y-70728571D01*
X142880952Y-70680952D01*
X142976190Y-70633333D01*
X143261904Y-70633333D01*
X143357142Y-70680952D01*
X143404761Y-70728571D01*
X143452380Y-70823809D01*
X143452380Y-70966666D01*
%TO.C,Lin1*%
X49247619Y-69770728D02*
X49247619Y-69294538D01*
X50247619Y-69294538D01*
X49247619Y-70104061D02*
X49914285Y-70104061D01*
X50247619Y-70104061D02*
X50200000Y-70056442D01*
X50152380Y-70104061D01*
X50200000Y-70151681D01*
X50247619Y-70104061D01*
X50152380Y-70104061D01*
X49914285Y-70580252D02*
X49247619Y-70580252D01*
X49819047Y-70580252D02*
X49866666Y-70627871D01*
X49914285Y-70723109D01*
X49914285Y-70865966D01*
X49866666Y-70961204D01*
X49771428Y-71008823D01*
X49247619Y-71008823D01*
%TO.C,PTC1*%
X78285714Y-73278571D02*
X78285714Y-71778571D01*
X78857142Y-71778571D01*
X79000000Y-71850000D01*
X79071428Y-71921428D01*
X79142857Y-72064285D01*
X79142857Y-72278571D01*
X79071428Y-72421428D01*
X79000000Y-72492857D01*
X78857142Y-72564285D01*
X78285714Y-72564285D01*
X79571428Y-71778571D02*
X80428571Y-71778571D01*
X80000000Y-73278571D02*
X80000000Y-71778571D01*
X81785714Y-73135714D02*
X81714285Y-73207142D01*
X81500000Y-73278571D01*
X81357142Y-73278571D01*
X81142857Y-73207142D01*
X81000000Y-73064285D01*
X80928571Y-72921428D01*
X80857142Y-72635714D01*
X80857142Y-72421428D01*
X80928571Y-72135714D01*
X81000000Y-71992857D01*
X81142857Y-71850000D01*
X81357142Y-71778571D01*
X81500000Y-71778571D01*
X81714285Y-71850000D01*
X81785714Y-71921428D01*
%TO.C,L2*%
X117033333Y-87752380D02*
X116557142Y-87752380D01*
X116557142Y-86752380D01*
X117319047Y-86847619D02*
X117366666Y-86800000D01*
X117461904Y-86752380D01*
X117700000Y-86752380D01*
X117795238Y-86800000D01*
X117842857Y-86847619D01*
X117890476Y-86942857D01*
X117890476Y-87038095D01*
X117842857Y-87180952D01*
X117271428Y-87752380D01*
X117890476Y-87752380D01*
%TO.C,JP2*%
X52052380Y-98304761D02*
X52766666Y-98304761D01*
X52909523Y-98352380D01*
X53004761Y-98447619D01*
X53052380Y-98590476D01*
X53052380Y-98685714D01*
X53052380Y-97828571D02*
X52052380Y-97828571D01*
X52766666Y-97495238D01*
X52052380Y-97161904D01*
X53052380Y-97161904D01*
X53052380Y-96685714D02*
X52052380Y-96685714D01*
X52052380Y-96304761D01*
X52100000Y-96209523D01*
X52147619Y-96161904D01*
X52242857Y-96114285D01*
X52385714Y-96114285D01*
X52480952Y-96161904D01*
X52528571Y-96209523D01*
X52576190Y-96304761D01*
X52576190Y-96685714D01*
X52147619Y-95733333D02*
X52100000Y-95685714D01*
X52052380Y-95590476D01*
X52052380Y-95352380D01*
X52100000Y-95257142D01*
X52147619Y-95209523D01*
X52242857Y-95161904D01*
X52338095Y-95161904D01*
X52480952Y-95209523D01*
X53052380Y-95780952D01*
X53052380Y-95161904D01*
%TO.C,Nin1*%
X49247619Y-84523809D02*
X50247619Y-84523809D01*
X49247619Y-85095238D01*
X50247619Y-85095238D01*
X49247619Y-85571428D02*
X49914285Y-85571428D01*
X50247619Y-85571428D02*
X50200000Y-85523809D01*
X50152380Y-85571428D01*
X50200000Y-85619047D01*
X50247619Y-85571428D01*
X50152380Y-85571428D01*
X49914285Y-86047619D02*
X49247619Y-86047619D01*
X49819047Y-86047619D02*
X49866666Y-86095238D01*
X49914285Y-86190476D01*
X49914285Y-86333333D01*
X49866666Y-86428571D01*
X49771428Y-86476190D01*
X49247619Y-86476190D01*
%TO.C,MOV1*%
X54647619Y-81038095D02*
X55647619Y-81038095D01*
X54933333Y-81371428D01*
X55647619Y-81704761D01*
X54647619Y-81704761D01*
X55647619Y-82371428D02*
X55647619Y-82561904D01*
X55600000Y-82657142D01*
X55504761Y-82752380D01*
X55314285Y-82800000D01*
X54980952Y-82800000D01*
X54790476Y-82752380D01*
X54695238Y-82657142D01*
X54647619Y-82561904D01*
X54647619Y-82371428D01*
X54695238Y-82276190D01*
X54790476Y-82180952D01*
X54980952Y-82133333D01*
X55314285Y-82133333D01*
X55504761Y-82180952D01*
X55600000Y-82276190D01*
X55647619Y-82371428D01*
X55647619Y-83085714D02*
X54647619Y-83419047D01*
X55647619Y-83752380D01*
X54647619Y-84609523D02*
X54647619Y-84038095D01*
X54647619Y-84323809D02*
X55647619Y-84323809D01*
X55504761Y-84228571D01*
X55409523Y-84133333D01*
X55361904Y-84038095D01*
%TO.C,MOV5*%
X127038095Y-117752380D02*
X127038095Y-116752380D01*
X127371428Y-117466666D01*
X127704761Y-116752380D01*
X127704761Y-117752380D01*
X128371428Y-116752380D02*
X128561904Y-116752380D01*
X128657142Y-116800000D01*
X128752380Y-116895238D01*
X128800000Y-117085714D01*
X128800000Y-117419047D01*
X128752380Y-117609523D01*
X128657142Y-117704761D01*
X128561904Y-117752380D01*
X128371428Y-117752380D01*
X128276190Y-117704761D01*
X128180952Y-117609523D01*
X128133333Y-117419047D01*
X128133333Y-117085714D01*
X128180952Y-116895238D01*
X128276190Y-116800000D01*
X128371428Y-116752380D01*
X129085714Y-116752380D02*
X129419047Y-117752380D01*
X129752380Y-116752380D01*
X130561904Y-116752380D02*
X130085714Y-116752380D01*
X130038095Y-117228571D01*
X130085714Y-117180952D01*
X130180952Y-117133333D01*
X130419047Y-117133333D01*
X130514285Y-117180952D01*
X130561904Y-117228571D01*
X130609523Y-117323809D01*
X130609523Y-117561904D01*
X130561904Y-117657142D01*
X130514285Y-117704761D01*
X130419047Y-117752380D01*
X130180952Y-117752380D01*
X130085714Y-117704761D01*
X130038095Y-117657142D01*
%TO.C,F2*%
X59766666Y-104028571D02*
X59433333Y-104028571D01*
X59433333Y-104552380D02*
X59433333Y-103552380D01*
X59909523Y-103552380D01*
X60242857Y-103647619D02*
X60290476Y-103600000D01*
X60385714Y-103552380D01*
X60623809Y-103552380D01*
X60719047Y-103600000D01*
X60766666Y-103647619D01*
X60814285Y-103742857D01*
X60814285Y-103838095D01*
X60766666Y-103980952D01*
X60195238Y-104552380D01*
X60814285Y-104552380D01*
X82380952Y-108352380D02*
X82190476Y-108352380D01*
X82095238Y-108400000D01*
X82047619Y-108447619D01*
X81952380Y-108590476D01*
X81904761Y-108780952D01*
X81904761Y-109161904D01*
X81952380Y-109257142D01*
X82000000Y-109304761D01*
X82095238Y-109352380D01*
X82285714Y-109352380D01*
X82380952Y-109304761D01*
X82428571Y-109257142D01*
X82476190Y-109161904D01*
X82476190Y-108923809D01*
X82428571Y-108828571D01*
X82380952Y-108780952D01*
X82285714Y-108733333D01*
X82095238Y-108733333D01*
X82000000Y-108780952D01*
X81952380Y-108828571D01*
X81904761Y-108923809D01*
X82857142Y-109066666D02*
X83333333Y-109066666D01*
X82761904Y-109352380D02*
X83095238Y-108352380D01*
X83428571Y-109352380D01*
X84523809Y-109352380D02*
X84523809Y-108352380D01*
X84761904Y-108352380D01*
X84904761Y-108400000D01*
X85000000Y-108495238D01*
X85047619Y-108590476D01*
X85095238Y-108780952D01*
X85095238Y-108923809D01*
X85047619Y-109114285D01*
X85000000Y-109209523D01*
X84904761Y-109304761D01*
X84761904Y-109352380D01*
X84523809Y-109352380D01*
X86095238Y-109257142D02*
X86047619Y-109304761D01*
X85904761Y-109352380D01*
X85809523Y-109352380D01*
X85666666Y-109304761D01*
X85571428Y-109209523D01*
X85523809Y-109114285D01*
X85476190Y-108923809D01*
X85476190Y-108780952D01*
X85523809Y-108590476D01*
X85571428Y-108495238D01*
X85666666Y-108400000D01*
X85809523Y-108352380D01*
X85904761Y-108352380D01*
X86047619Y-108400000D01*
X86095238Y-108447619D01*
%TO.C,MOV2*%
X127238095Y-95552380D02*
X127238095Y-94552380D01*
X127571428Y-95266666D01*
X127904761Y-94552380D01*
X127904761Y-95552380D01*
X128571428Y-94552380D02*
X128761904Y-94552380D01*
X128857142Y-94600000D01*
X128952380Y-94695238D01*
X129000000Y-94885714D01*
X129000000Y-95219047D01*
X128952380Y-95409523D01*
X128857142Y-95504761D01*
X128761904Y-95552380D01*
X128571428Y-95552380D01*
X128476190Y-95504761D01*
X128380952Y-95409523D01*
X128333333Y-95219047D01*
X128333333Y-94885714D01*
X128380952Y-94695238D01*
X128476190Y-94600000D01*
X128571428Y-94552380D01*
X129285714Y-94552380D02*
X129619047Y-95552380D01*
X129952380Y-94552380D01*
X130238095Y-94647619D02*
X130285714Y-94600000D01*
X130380952Y-94552380D01*
X130619047Y-94552380D01*
X130714285Y-94600000D01*
X130761904Y-94647619D01*
X130809523Y-94742857D01*
X130809523Y-94838095D01*
X130761904Y-94980952D01*
X130190476Y-95552380D01*
X130809523Y-95552380D01*
%TO.C,JP1*%
X57152380Y-94704761D02*
X57866666Y-94704761D01*
X58009523Y-94752380D01*
X58104761Y-94847619D01*
X58152380Y-94990476D01*
X58152380Y-95085714D01*
X58152380Y-94228571D02*
X57152380Y-94228571D01*
X57866666Y-93895238D01*
X57152380Y-93561904D01*
X58152380Y-93561904D01*
X58152380Y-93085714D02*
X57152380Y-93085714D01*
X57152380Y-92704761D01*
X57200000Y-92609523D01*
X57247619Y-92561904D01*
X57342857Y-92514285D01*
X57485714Y-92514285D01*
X57580952Y-92561904D01*
X57628571Y-92609523D01*
X57676190Y-92704761D01*
X57676190Y-93085714D01*
X58152380Y-91561904D02*
X58152380Y-92133333D01*
X58152380Y-91847619D02*
X57152380Y-91847619D01*
X57295238Y-91942857D01*
X57390476Y-92038095D01*
X57438095Y-92133333D01*
%TO.C,No1*%
X143352380Y-90038095D02*
X142352380Y-90038095D01*
X143352380Y-89466666D01*
X142352380Y-89466666D01*
X143352380Y-88847619D02*
X143304761Y-88942857D01*
X143257142Y-88990476D01*
X143161904Y-89038095D01*
X142876190Y-89038095D01*
X142780952Y-88990476D01*
X142733333Y-88942857D01*
X142685714Y-88847619D01*
X142685714Y-88704761D01*
X142733333Y-88609523D01*
X142780952Y-88561904D01*
X142876190Y-88514285D01*
X143161904Y-88514285D01*
X143257142Y-88561904D01*
X143304761Y-88609523D01*
X143352380Y-88704761D01*
X143352380Y-88847619D01*
%TO.C,RT1*%
X120052380Y-57452380D02*
X119719047Y-56976190D01*
X119480952Y-57452380D02*
X119480952Y-56452380D01*
X119861904Y-56452380D01*
X119957142Y-56500000D01*
X120004761Y-56547619D01*
X120052380Y-56642857D01*
X120052380Y-56785714D01*
X120004761Y-56880952D01*
X119957142Y-56928571D01*
X119861904Y-56976190D01*
X119480952Y-56976190D01*
X120338095Y-56452380D02*
X120909523Y-56452380D01*
X120623809Y-57452380D02*
X120623809Y-56452380D01*
X121766666Y-57452380D02*
X121195238Y-57452380D01*
X121480952Y-57452380D02*
X121480952Y-56452380D01*
X121385714Y-56595238D01*
X121290476Y-56690476D01*
X121195238Y-56738095D01*
%TO.C,MOV3*%
X127238095Y-72752380D02*
X127238095Y-71752380D01*
X127571428Y-72466666D01*
X127904761Y-71752380D01*
X127904761Y-72752380D01*
X128571428Y-71752380D02*
X128761904Y-71752380D01*
X128857142Y-71800000D01*
X128952380Y-71895238D01*
X129000000Y-72085714D01*
X129000000Y-72419047D01*
X128952380Y-72609523D01*
X128857142Y-72704761D01*
X128761904Y-72752380D01*
X128571428Y-72752380D01*
X128476190Y-72704761D01*
X128380952Y-72609523D01*
X128333333Y-72419047D01*
X128333333Y-72085714D01*
X128380952Y-71895238D01*
X128476190Y-71800000D01*
X128571428Y-71752380D01*
X129285714Y-71752380D02*
X129619047Y-72752380D01*
X129952380Y-71752380D01*
X130190476Y-71752380D02*
X130809523Y-71752380D01*
X130476190Y-72133333D01*
X130619047Y-72133333D01*
X130714285Y-72180952D01*
X130761904Y-72228571D01*
X130809523Y-72323809D01*
X130809523Y-72561904D01*
X130761904Y-72657142D01*
X130714285Y-72704761D01*
X130619047Y-72752380D01*
X130333333Y-72752380D01*
X130238095Y-72704761D01*
X130190476Y-72657142D01*
%TO.C,F1*%
X61666666Y-54328571D02*
X61333333Y-54328571D01*
X61333333Y-54852380D02*
X61333333Y-53852380D01*
X61809523Y-53852380D01*
X62714285Y-54852380D02*
X62142857Y-54852380D01*
X62428571Y-54852380D02*
X62428571Y-53852380D01*
X62333333Y-53995238D01*
X62238095Y-54090476D01*
X62142857Y-54138095D01*
X59380952Y-61352380D02*
X59190476Y-61352380D01*
X59095238Y-61400000D01*
X59047619Y-61447619D01*
X58952380Y-61590476D01*
X58904761Y-61780952D01*
X58904761Y-62161904D01*
X58952380Y-62257142D01*
X59000000Y-62304761D01*
X59095238Y-62352380D01*
X59285714Y-62352380D01*
X59380952Y-62304761D01*
X59428571Y-62257142D01*
X59476190Y-62161904D01*
X59476190Y-61923809D01*
X59428571Y-61828571D01*
X59380952Y-61780952D01*
X59285714Y-61733333D01*
X59095238Y-61733333D01*
X59000000Y-61780952D01*
X58952380Y-61828571D01*
X58904761Y-61923809D01*
X59857142Y-62066666D02*
X60333333Y-62066666D01*
X59761904Y-62352380D02*
X60095238Y-61352380D01*
X60428571Y-62352380D01*
X61523809Y-62352380D02*
X61523809Y-61352380D01*
X61761904Y-61352380D01*
X61904761Y-61400000D01*
X62000000Y-61495238D01*
X62047619Y-61590476D01*
X62095238Y-61780952D01*
X62095238Y-61923809D01*
X62047619Y-62114285D01*
X62000000Y-62209523D01*
X61904761Y-62304761D01*
X61761904Y-62352380D01*
X61523809Y-62352380D01*
X63095238Y-62257142D02*
X63047619Y-62304761D01*
X62904761Y-62352380D01*
X62809523Y-62352380D01*
X62666666Y-62304761D01*
X62571428Y-62209523D01*
X62523809Y-62114285D01*
X62476190Y-61923809D01*
X62476190Y-61780952D01*
X62523809Y-61590476D01*
X62571428Y-61495238D01*
X62666666Y-61400000D01*
X62809523Y-61352380D01*
X62904761Y-61352380D01*
X63047619Y-61400000D01*
X63095238Y-61447619D01*
%TO.C,GDT2*%
X117004761Y-109600000D02*
X116909523Y-109552380D01*
X116766666Y-109552380D01*
X116623809Y-109600000D01*
X116528571Y-109695238D01*
X116480952Y-109790476D01*
X116433333Y-109980952D01*
X116433333Y-110123809D01*
X116480952Y-110314285D01*
X116528571Y-110409523D01*
X116623809Y-110504761D01*
X116766666Y-110552380D01*
X116861904Y-110552380D01*
X117004761Y-110504761D01*
X117052380Y-110457142D01*
X117052380Y-110123809D01*
X116861904Y-110123809D01*
X117480952Y-110552380D02*
X117480952Y-109552380D01*
X117719047Y-109552380D01*
X117861904Y-109600000D01*
X117957142Y-109695238D01*
X118004761Y-109790476D01*
X118052380Y-109980952D01*
X118052380Y-110123809D01*
X118004761Y-110314285D01*
X117957142Y-110409523D01*
X117861904Y-110504761D01*
X117719047Y-110552380D01*
X117480952Y-110552380D01*
X118338095Y-109552380D02*
X118909523Y-109552380D01*
X118623809Y-110552380D02*
X118623809Y-109552380D01*
X119195238Y-109647619D02*
X119242857Y-109600000D01*
X119338095Y-109552380D01*
X119576190Y-109552380D01*
X119671428Y-109600000D01*
X119719047Y-109647619D01*
X119766666Y-109742857D01*
X119766666Y-109838095D01*
X119719047Y-109980952D01*
X119147619Y-110552380D01*
X119766666Y-110552380D01*
%TO.C,Gin1*%
X50200000Y-100471428D02*
X50247619Y-100376190D01*
X50247619Y-100233333D01*
X50200000Y-100090476D01*
X50104761Y-99995238D01*
X50009523Y-99947619D01*
X49819047Y-99900000D01*
X49676190Y-99900000D01*
X49485714Y-99947619D01*
X49390476Y-99995238D01*
X49295238Y-100090476D01*
X49247619Y-100233333D01*
X49247619Y-100328571D01*
X49295238Y-100471428D01*
X49342857Y-100519047D01*
X49676190Y-100519047D01*
X49676190Y-100328571D01*
X49247619Y-100947619D02*
X49914285Y-100947619D01*
X50247619Y-100947619D02*
X50200000Y-100900000D01*
X50152380Y-100947619D01*
X50200000Y-100995238D01*
X50247619Y-100947619D01*
X50152380Y-100947619D01*
X49914285Y-101423809D02*
X49247619Y-101423809D01*
X49819047Y-101423809D02*
X49866666Y-101471428D01*
X49914285Y-101566666D01*
X49914285Y-101709523D01*
X49866666Y-101804761D01*
X49771428Y-101852380D01*
X49247619Y-101852380D01*
%TO.C,L1*%
X77933333Y-90152380D02*
X77457142Y-90152380D01*
X77457142Y-89152380D01*
X78790476Y-90152380D02*
X78219047Y-90152380D01*
X78504761Y-90152380D02*
X78504761Y-89152380D01*
X78409523Y-89295238D01*
X78314285Y-89390476D01*
X78219047Y-89438095D01*
%TO.C,MOV4*%
X88447619Y-109038095D02*
X89447619Y-109038095D01*
X88733333Y-109371428D01*
X89447619Y-109704761D01*
X88447619Y-109704761D01*
X89447619Y-110371428D02*
X89447619Y-110561904D01*
X89400000Y-110657142D01*
X89304761Y-110752380D01*
X89114285Y-110800000D01*
X88780952Y-110800000D01*
X88590476Y-110752380D01*
X88495238Y-110657142D01*
X88447619Y-110561904D01*
X88447619Y-110371428D01*
X88495238Y-110276190D01*
X88590476Y-110180952D01*
X88780952Y-110133333D01*
X89114285Y-110133333D01*
X89304761Y-110180952D01*
X89400000Y-110276190D01*
X89447619Y-110371428D01*
X89447619Y-111085714D02*
X88447619Y-111419047D01*
X89447619Y-111752380D01*
X89114285Y-112514285D02*
X88447619Y-112514285D01*
X89495238Y-112276190D02*
X88780952Y-112038095D01*
X88780952Y-112657142D01*
%TO.C,GDT1*%
X56400000Y-72304761D02*
X56447619Y-72209523D01*
X56447619Y-72066666D01*
X56400000Y-71923809D01*
X56304761Y-71828571D01*
X56209523Y-71780952D01*
X56019047Y-71733333D01*
X55876190Y-71733333D01*
X55685714Y-71780952D01*
X55590476Y-71828571D01*
X55495238Y-71923809D01*
X55447619Y-72066666D01*
X55447619Y-72161904D01*
X55495238Y-72304761D01*
X55542857Y-72352380D01*
X55876190Y-72352380D01*
X55876190Y-72161904D01*
X55447619Y-72780952D02*
X56447619Y-72780952D01*
X56447619Y-73019047D01*
X56400000Y-73161904D01*
X56304761Y-73257142D01*
X56209523Y-73304761D01*
X56019047Y-73352380D01*
X55876190Y-73352380D01*
X55685714Y-73304761D01*
X55590476Y-73257142D01*
X55495238Y-73161904D01*
X55447619Y-73019047D01*
X55447619Y-72780952D01*
X56447619Y-73638095D02*
X56447619Y-74209523D01*
X55447619Y-73923809D02*
X56447619Y-73923809D01*
X55447619Y-75066666D02*
X55447619Y-74495238D01*
X55447619Y-74780952D02*
X56447619Y-74780952D01*
X56304761Y-74685714D01*
X56209523Y-74590476D01*
X56161904Y-74495238D01*
%TO.C,G\u002A\u002A\u002A*%
G36*
X80778794Y-114850636D02*
G01*
X80841681Y-114900335D01*
X80846648Y-114904402D01*
X80927854Y-114976339D01*
X80969925Y-115029690D01*
X80976650Y-115071603D01*
X80954086Y-115107004D01*
X80929886Y-115122268D01*
X80898828Y-115116436D01*
X80850335Y-115084962D01*
X80789435Y-115036246D01*
X80724171Y-114980647D01*
X80677593Y-114937810D01*
X80659915Y-114917209D01*
X80672772Y-114889857D01*
X80695212Y-114857227D01*
X80717509Y-114832804D01*
X80741387Y-114829367D01*
X80778794Y-114850636D01*
G37*
G36*
X83810791Y-115405993D02*
G01*
X83812476Y-115579631D01*
X83817869Y-115709970D01*
X83827477Y-115803658D01*
X83841810Y-115867343D01*
X83847118Y-115881620D01*
X83903210Y-115960447D01*
X83983452Y-116005478D01*
X84076331Y-116018036D01*
X84170335Y-115999441D01*
X84253952Y-115951016D01*
X84315671Y-115874082D01*
X84334633Y-115825654D01*
X84344332Y-115765786D01*
X84352452Y-115668195D01*
X84358267Y-115545203D01*
X84361055Y-115409130D01*
X84361194Y-115373909D01*
X84361333Y-115017308D01*
X84561530Y-115017308D01*
X84561530Y-116193465D01*
X84461432Y-116193465D01*
X84397298Y-116190629D01*
X84368791Y-116174477D01*
X84361523Y-116133546D01*
X84361333Y-116113709D01*
X84361333Y-116033954D01*
X84292516Y-116098139D01*
X84230785Y-116149522D01*
X84173106Y-116188245D01*
X84169038Y-116190408D01*
X84085315Y-116213170D01*
X83979101Y-116215356D01*
X83873121Y-116197845D01*
X83815963Y-116176732D01*
X83752321Y-116129543D01*
X83690501Y-116059338D01*
X83672071Y-116031212D01*
X83650212Y-115991747D01*
X83634258Y-115953459D01*
X83623281Y-115907905D01*
X83616355Y-115846640D01*
X83612550Y-115761222D01*
X83610939Y-115643209D01*
X83610595Y-115484156D01*
X83610594Y-115471808D01*
X83610594Y-115017308D01*
X83810791Y-115017308D01*
X83810791Y-115405993D01*
G37*
G36*
X81572766Y-114552594D02*
G01*
X81580784Y-114554550D01*
X81630026Y-114567995D01*
X81649587Y-114575154D01*
X81647252Y-114599874D01*
X81637712Y-114660447D01*
X81623661Y-114740269D01*
X81604189Y-114833201D01*
X81583753Y-114885289D01*
X81555449Y-114905386D01*
X81512371Y-114902343D01*
X81499611Y-114899291D01*
X81468579Y-114881039D01*
X81463921Y-114839154D01*
X81468995Y-114808507D01*
X81484155Y-114727589D01*
X81499362Y-114638861D01*
X81500171Y-114633846D01*
X81513257Y-114572599D01*
X81533476Y-114549429D01*
X81572766Y-114552594D01*
G37*
G36*
X80941113Y-115243179D02*
G01*
X81037531Y-115129891D01*
X81041263Y-115126710D01*
X81161834Y-115045676D01*
X81292396Y-115003145D01*
X81426392Y-114992833D01*
X81595144Y-115015631D01*
X81739157Y-115079614D01*
X81853970Y-115180209D01*
X81935124Y-115312843D01*
X81978159Y-115472946D01*
X81983993Y-115564497D01*
X81983993Y-115667948D01*
X81054709Y-115667948D01*
X81071617Y-115724253D01*
X81128160Y-115856450D01*
X81207812Y-115946364D01*
X81314984Y-115998141D01*
X81376395Y-116010517D01*
X81517979Y-116005721D01*
X81647370Y-115955082D01*
X81728460Y-115890789D01*
X81801413Y-115816172D01*
X81880033Y-115860927D01*
X81931830Y-115894583D01*
X81958032Y-115919766D01*
X81958811Y-115922530D01*
X81939356Y-115964666D01*
X81888155Y-116021242D01*
X81816837Y-116081727D01*
X81737029Y-116135591D01*
X81703222Y-116153983D01*
X81553726Y-116204597D01*
X81392543Y-116218815D01*
X81237514Y-116196066D01*
X81168923Y-116171123D01*
X81047751Y-116090327D01*
X80954194Y-115976507D01*
X80889409Y-115839125D01*
X80854552Y-115687641D01*
X80850780Y-115531515D01*
X80866308Y-115448982D01*
X81083993Y-115448982D01*
X81088012Y-115467047D01*
X81106175Y-115479366D01*
X81146354Y-115487016D01*
X81216418Y-115491073D01*
X81324236Y-115492612D01*
X81404256Y-115492776D01*
X81526090Y-115491695D01*
X81629065Y-115488743D01*
X81703253Y-115484352D01*
X81738726Y-115478955D01*
X81740045Y-115478136D01*
X81745385Y-115441231D01*
X81724598Y-115382456D01*
X81685220Y-115316981D01*
X81634783Y-115259976D01*
X81629362Y-115255275D01*
X81537572Y-115205259D01*
X81432136Y-115189398D01*
X81324092Y-115203771D01*
X81224475Y-115244460D01*
X81144320Y-115307543D01*
X81094666Y-115389102D01*
X81083993Y-115448982D01*
X80866308Y-115448982D01*
X80879248Y-115380207D01*
X80941113Y-115243179D01*
G37*
G36*
X82951638Y-115012647D02*
G01*
X83067277Y-115074666D01*
X83152155Y-115169792D01*
X83177020Y-115208707D01*
X83195369Y-115244839D01*
X83208377Y-115286530D01*
X83217215Y-115342121D01*
X83223058Y-115419953D01*
X83227079Y-115528367D01*
X83230451Y-115675705D01*
X83231632Y-115734816D01*
X83240712Y-116193465D01*
X83013229Y-116193465D01*
X82997491Y-115313159D01*
X82927278Y-115252820D01*
X82832585Y-115202034D01*
X82723172Y-115198357D01*
X82623115Y-115231223D01*
X82575173Y-115258549D01*
X82539624Y-115293467D01*
X82514662Y-115343318D01*
X82498479Y-115415441D01*
X82489267Y-115517177D01*
X82485220Y-115655865D01*
X82484486Y-115794249D01*
X82484486Y-116193465D01*
X82259264Y-116193465D01*
X82259264Y-115017308D01*
X82371875Y-115017308D01*
X82441243Y-115019737D01*
X82474106Y-115032372D01*
X82483961Y-115063234D01*
X82484486Y-115084231D01*
X82484486Y-115151155D01*
X82540791Y-115099871D01*
X82638319Y-115028912D01*
X82740553Y-114996640D01*
X82808965Y-114992283D01*
X82951638Y-115012647D01*
G37*
G36*
X81976520Y-114700046D02*
G01*
X82008237Y-114728583D01*
X82019249Y-114755677D01*
X82006857Y-114792746D01*
X81966346Y-114849892D01*
X81932310Y-114891243D01*
X81869923Y-114963493D01*
X81829632Y-115002203D01*
X81802037Y-115012728D01*
X81777739Y-115000427D01*
X81763777Y-114987278D01*
X81740165Y-114953925D01*
X81742163Y-114917183D01*
X81773556Y-114866569D01*
X81832016Y-114798342D01*
X81897469Y-114730561D01*
X81942456Y-114699055D01*
X81976520Y-114700046D01*
G37*
G36*
X85465596Y-115030293D02*
G01*
X85502002Y-115045923D01*
X85578167Y-115090215D01*
X85639309Y-115140433D01*
X85656500Y-115161196D01*
X85681545Y-115206833D01*
X85673710Y-115237114D01*
X85635956Y-115269659D01*
X85588802Y-115303225D01*
X85553101Y-115312611D01*
X85511090Y-115296440D01*
X85447524Y-115255042D01*
X85358887Y-115211223D01*
X85266224Y-115191361D01*
X85183509Y-115195979D01*
X85124717Y-115225596D01*
X85112072Y-115242529D01*
X85097814Y-115287273D01*
X85109433Y-115329385D01*
X85151922Y-115373804D01*
X85230279Y-115425466D01*
X85349497Y-115489310D01*
X85374409Y-115501842D01*
X85513248Y-115576422D01*
X85610072Y-115643005D01*
X85670674Y-115708405D01*
X85700847Y-115779434D01*
X85706384Y-115862905D01*
X85704274Y-115889772D01*
X85685814Y-115975270D01*
X85653922Y-116050905D01*
X85644818Y-116064945D01*
X85554741Y-116147987D01*
X85436213Y-116199770D01*
X85301495Y-116218151D01*
X85162848Y-116200983D01*
X85068320Y-116165826D01*
X84994179Y-116120173D01*
X84924751Y-116062644D01*
X84870825Y-116004129D01*
X84843191Y-115955517D01*
X84842681Y-115938092D01*
X84867947Y-115909375D01*
X84917671Y-115873565D01*
X84918227Y-115873226D01*
X84960828Y-115850557D01*
X84993072Y-115850505D01*
X85031846Y-115877782D01*
X85072557Y-115916277D01*
X85148171Y-115975980D01*
X85230199Y-116005053D01*
X85281294Y-116012066D01*
X85387962Y-116008401D01*
X85456053Y-115973041D01*
X85485895Y-115905776D01*
X85487442Y-115880657D01*
X85479228Y-115832431D01*
X85450008Y-115788831D01*
X85392915Y-115744240D01*
X85301079Y-115693043D01*
X85196802Y-115643011D01*
X85079903Y-115584552D01*
X85001132Y-115533280D01*
X84950581Y-115482326D01*
X84937849Y-115463507D01*
X84893926Y-115353942D01*
X84893807Y-115251027D01*
X84931289Y-115159352D01*
X85000168Y-115083510D01*
X85094241Y-115028091D01*
X85207306Y-114997688D01*
X85333159Y-114996891D01*
X85465596Y-115030293D01*
G37*
G36*
X81143840Y-114570835D02*
G01*
X81159826Y-114600236D01*
X81186711Y-114657881D01*
X81218212Y-114729217D01*
X81248043Y-114799692D01*
X81269918Y-114854752D01*
X81277553Y-114879846D01*
X81277408Y-114880093D01*
X81252710Y-114894377D01*
X81218957Y-114912307D01*
X81188097Y-114922838D01*
X81162695Y-114910969D01*
X81133810Y-114868442D01*
X81100090Y-114802531D01*
X81064212Y-114723858D01*
X81039886Y-114659957D01*
X81033057Y-114630558D01*
X81051585Y-114601526D01*
X81091919Y-114575753D01*
X81131184Y-114565571D01*
X81143840Y-114570835D01*
G37*
G36*
X79977795Y-114397915D02*
G01*
X80160734Y-114451066D01*
X80322723Y-114538990D01*
X80448287Y-114652586D01*
X80533737Y-114752415D01*
X80460015Y-114826136D01*
X80386293Y-114899858D01*
X80300486Y-114808876D01*
X80182984Y-114709944D01*
X80048142Y-114648402D01*
X79886009Y-114620397D01*
X79806851Y-114617708D01*
X79611628Y-114637784D01*
X79446521Y-114697171D01*
X79313809Y-114793586D01*
X79215774Y-114924745D01*
X79154695Y-115088364D01*
X79132855Y-115282160D01*
X79132834Y-115292579D01*
X79148620Y-115483672D01*
X79196831Y-115640021D01*
X79280593Y-115767455D01*
X79403033Y-115871807D01*
X79462654Y-115907902D01*
X79538510Y-115946173D01*
X79606418Y-115968192D01*
X79685741Y-115978191D01*
X79794338Y-115980406D01*
X79967205Y-115965087D01*
X80106103Y-115916763D01*
X80218238Y-115830876D01*
X80310820Y-115702872D01*
X80347978Y-115630411D01*
X80406449Y-115505288D01*
X80106650Y-115498261D01*
X79806851Y-115491235D01*
X79806851Y-115292579D01*
X80658642Y-115292579D01*
X80647228Y-115348884D01*
X80636670Y-115409112D01*
X80624256Y-115490665D01*
X80620675Y-115516270D01*
X80575084Y-115680309D01*
X80488705Y-115839057D01*
X80370473Y-115981524D01*
X80229325Y-116096719D01*
X80091120Y-116167606D01*
X79943701Y-116204110D01*
X79775587Y-116216516D01*
X79610270Y-116204230D01*
X79513713Y-116182185D01*
X79319540Y-116096327D01*
X79154123Y-115970146D01*
X79020142Y-115806037D01*
X78950400Y-115678467D01*
X78922517Y-115608481D01*
X78905310Y-115536217D01*
X78896463Y-115446440D01*
X78893658Y-115323916D01*
X78893616Y-115305091D01*
X78895117Y-115182946D01*
X78901756Y-115094289D01*
X78916457Y-115022610D01*
X78942142Y-114951396D01*
X78965511Y-114898833D01*
X79055696Y-114749314D01*
X79176726Y-114613923D01*
X79314849Y-114506588D01*
X79395268Y-114463602D01*
X79585863Y-114402532D01*
X79783105Y-114381186D01*
X79977795Y-114397915D01*
G37*
G36*
X113569165Y-115517479D02*
G01*
X113569165Y-117518911D01*
X109067436Y-117518911D01*
X109067436Y-117227794D01*
X109309937Y-117227794D01*
X110142514Y-117227794D01*
X112384288Y-117227794D01*
X113216865Y-117227794D01*
X113111672Y-117118625D01*
X113039977Y-117054145D01*
X112966835Y-117021446D01*
X112862915Y-117010234D01*
X112800577Y-117009456D01*
X112674078Y-117014526D01*
X112591134Y-117036600D01*
X112522415Y-117085971D01*
X112489482Y-117118625D01*
X112384288Y-117227794D01*
X110142514Y-117227794D01*
X110085505Y-117168631D01*
X112324784Y-117168631D01*
X112434582Y-117064040D01*
X112511863Y-116971285D01*
X112541733Y-116869181D01*
X112542311Y-116855592D01*
X113058247Y-116855592D01*
X113103978Y-116985000D01*
X113157421Y-117055573D01*
X113258070Y-117160257D01*
X113268936Y-116897336D01*
X113269436Y-116761272D01*
X113260300Y-116654582D01*
X113243390Y-116598315D01*
X113242351Y-116597180D01*
X113189510Y-116587339D01*
X113130836Y-116626586D01*
X113066755Y-116728953D01*
X113058247Y-116855592D01*
X112542311Y-116855592D01*
X112544381Y-116806960D01*
X112526413Y-116679673D01*
X112477593Y-116600295D01*
X112405543Y-116579094D01*
X112380149Y-116585761D01*
X112350498Y-116614702D01*
X112333143Y-116682529D01*
X112325624Y-116802661D01*
X112324784Y-116887758D01*
X112324784Y-117168631D01*
X110085505Y-117168631D01*
X110037320Y-117118625D01*
X109965625Y-117054145D01*
X109892484Y-117021446D01*
X109788563Y-117010234D01*
X109726225Y-117009456D01*
X109599726Y-117014526D01*
X109516782Y-117036600D01*
X109448063Y-117085971D01*
X109415130Y-117118625D01*
X109309937Y-117227794D01*
X109067436Y-117227794D01*
X109067436Y-116825516D01*
X109983585Y-116825516D01*
X110011800Y-116957772D01*
X110080767Y-117052951D01*
X110146099Y-117118007D01*
X110186445Y-117153055D01*
X110190565Y-117155014D01*
X110196030Y-117121585D01*
X110200077Y-117033130D01*
X110201964Y-116907402D01*
X110202018Y-116880950D01*
X110201425Y-116855592D01*
X110569486Y-116855592D01*
X110615217Y-116985000D01*
X110668660Y-117055573D01*
X110769309Y-117160257D01*
X110780175Y-116897336D01*
X110780329Y-116855592D01*
X111777267Y-116855592D01*
X111822998Y-116985000D01*
X111876441Y-117055573D01*
X111977090Y-117160257D01*
X111987956Y-116897336D01*
X111988456Y-116761272D01*
X111979320Y-116654582D01*
X111962411Y-116598315D01*
X111961371Y-116597180D01*
X111908530Y-116587339D01*
X111849856Y-116626586D01*
X111785776Y-116728953D01*
X111777267Y-116855592D01*
X110780329Y-116855592D01*
X110780676Y-116761272D01*
X110771539Y-116654582D01*
X110754630Y-116598315D01*
X110753590Y-116597180D01*
X110700749Y-116587339D01*
X110642076Y-116626586D01*
X110577995Y-116728953D01*
X110569486Y-116855592D01*
X110201425Y-116855592D01*
X110198537Y-116732069D01*
X110186307Y-116641731D01*
X110162648Y-116595950D01*
X110145360Y-116585268D01*
X110079228Y-116593106D01*
X110023465Y-116657179D01*
X109989207Y-116760947D01*
X109983585Y-116825516D01*
X109067436Y-116825516D01*
X109067436Y-116450707D01*
X109404539Y-116450707D01*
X109433430Y-116518195D01*
X109499576Y-116552187D01*
X109611200Y-116571014D01*
X109742188Y-116574676D01*
X109866426Y-116563174D01*
X109957799Y-116536507D01*
X109982421Y-116518195D01*
X110010650Y-116450707D01*
X112478890Y-116450707D01*
X112507781Y-116518195D01*
X112572055Y-116553697D01*
X112694898Y-116570692D01*
X112782277Y-116572779D01*
X112938073Y-116564520D01*
X113030976Y-116538613D01*
X113056773Y-116518195D01*
X113085553Y-116449388D01*
X113046302Y-116397732D01*
X112942615Y-116365370D01*
X112782277Y-116354441D01*
X112619030Y-116365852D01*
X112516703Y-116398656D01*
X112478890Y-116450707D01*
X110010650Y-116450707D01*
X110011202Y-116449388D01*
X109971951Y-116397732D01*
X109868263Y-116365370D01*
X109707925Y-116354441D01*
X109544678Y-116365852D01*
X109442351Y-116398656D01*
X109404539Y-116450707D01*
X109067436Y-116450707D01*
X109067436Y-116067432D01*
X109250433Y-116067432D01*
X109258009Y-116247100D01*
X109281612Y-116358036D01*
X109322556Y-116402806D01*
X109382154Y-116383973D01*
X109403650Y-116366499D01*
X109457088Y-116270433D01*
X109470029Y-116155466D01*
X109469285Y-116149143D01*
X110568012Y-116149143D01*
X110584908Y-116263477D01*
X110627867Y-116357518D01*
X110685292Y-116412161D01*
X110730038Y-116416080D01*
X110750153Y-116375358D01*
X110767080Y-116277107D01*
X110777409Y-116149143D01*
X111775793Y-116149143D01*
X111792689Y-116263477D01*
X111835648Y-116357518D01*
X111893073Y-116412161D01*
X111937819Y-116416080D01*
X111957934Y-116375358D01*
X111974861Y-116277107D01*
X111986205Y-116136573D01*
X111987855Y-116097535D01*
X111988232Y-116086840D01*
X112324784Y-116086840D01*
X112327637Y-116226199D01*
X112335208Y-116336090D01*
X112346021Y-116397357D01*
X112349184Y-116402961D01*
X112412494Y-116424892D01*
X112482323Y-116377236D01*
X112493433Y-116363539D01*
X112525219Y-116286799D01*
X112542344Y-116177525D01*
X112543217Y-116152009D01*
X112529777Y-116033840D01*
X112475576Y-115941897D01*
X112434582Y-115899570D01*
X112324784Y-115794980D01*
X112324784Y-116086840D01*
X111988232Y-116086840D01*
X111998513Y-115794980D01*
X111998621Y-115791901D01*
X111887207Y-115898031D01*
X111808145Y-115993120D01*
X111778015Y-116096142D01*
X111775793Y-116149143D01*
X110777409Y-116149143D01*
X110778424Y-116136573D01*
X110780074Y-116097535D01*
X110790840Y-115791901D01*
X110679426Y-115898031D01*
X110600364Y-115993120D01*
X110570234Y-116096142D01*
X110568012Y-116149143D01*
X109469285Y-116149143D01*
X109455842Y-116034877D01*
X109401438Y-115942158D01*
X109360231Y-115899570D01*
X109250433Y-115794980D01*
X109250433Y-116067432D01*
X109067436Y-116067432D01*
X109067436Y-115735817D01*
X109309937Y-115735817D01*
X109415130Y-115844986D01*
X109486825Y-115909465D01*
X109559967Y-115942164D01*
X109663887Y-115953376D01*
X109726225Y-115954155D01*
X109852724Y-115949084D01*
X109935668Y-115927010D01*
X110004387Y-115877640D01*
X110037320Y-115844986D01*
X110142514Y-115735817D01*
X112384288Y-115735817D01*
X112489482Y-115844986D01*
X112561176Y-115909465D01*
X112634318Y-115942164D01*
X112738239Y-115953376D01*
X112800577Y-115954155D01*
X112927076Y-115949084D01*
X113010019Y-115927010D01*
X113078739Y-115877640D01*
X113111672Y-115844986D01*
X113216865Y-115735817D01*
X112384288Y-115735817D01*
X110142514Y-115735817D01*
X109309937Y-115735817D01*
X109067436Y-115735817D01*
X109067436Y-115517479D01*
X113569165Y-115517479D01*
G37*
D12*
%TO.C,EO1*%
X141300000Y-105600000D02*
G75*
G03*
X141300000Y-105600000I-2000000J0D01*
G01*
%TO.C,Lo1*%
X141371828Y-71200000D02*
G75*
G03*
X141371828Y-71200000I-2000000J0D01*
G01*
%TO.C,Lin1*%
X48294128Y-77151681D02*
X42294128Y-77151681D01*
X42294128Y-77151681D02*
X42294128Y-63151681D01*
X42294128Y-63151681D02*
X48294128Y-63151681D01*
X48294128Y-63151681D02*
X48294128Y-77151681D01*
%TO.C,H4*%
X46216162Y-53390035D02*
X46216162Y-51890035D01*
X49716162Y-56890035D02*
X51216162Y-56890035D01*
X42716162Y-56890035D02*
X41216162Y-56890035D01*
X46216162Y-60390035D02*
X46216162Y-61890035D01*
X49716162Y-56890035D02*
G75*
G03*
X49716162Y-56890035I-3500000J0D01*
G01*
%TO.C,H2*%
X139371828Y-109961257D02*
X139371828Y-108461257D01*
X142871828Y-113461257D02*
X144371828Y-113461257D01*
X135871828Y-113461257D02*
X134371828Y-113461257D01*
X139371828Y-116961257D02*
X139371828Y-118461257D01*
X142871828Y-113461257D02*
G75*
G03*
X142871828Y-113461257I-3500000J0D01*
G01*
%TO.C,H1*%
X139368909Y-53396463D02*
X139368909Y-51896463D01*
X142868909Y-56896463D02*
X144368909Y-56896463D01*
X135868909Y-56896463D02*
X134368909Y-56896463D01*
X139368909Y-60396463D02*
X139368909Y-61896463D01*
X142868909Y-56896463D02*
G75*
G03*
X142868909Y-56896463I-3500000J0D01*
G01*
%TO.C,PTC1*%
X76836702Y-68100000D02*
X101836702Y-68100000D01*
X101836702Y-68100000D02*
X101836702Y-71100000D01*
X101836702Y-71100000D02*
X76836702Y-71100000D01*
X76836702Y-71100000D02*
X76836702Y-68100000D01*
%TO.C,L2*%
X115436702Y-66450000D02*
X104436702Y-66450000D01*
X104436702Y-66450000D02*
X104436702Y-88950000D01*
X104436702Y-88950000D02*
X115436702Y-88950000D01*
X115436702Y-88950000D02*
X115436702Y-66450000D01*
X114436702Y-77700000D02*
G75*
G03*
X115436702Y-77700000I500000J0D01*
G01*
X112436702Y-77700000D02*
G75*
G03*
X113436702Y-77700000I500000J0D01*
G01*
X104436702Y-77700000D02*
G75*
G03*
X105436702Y-77700000I500000J0D01*
G01*
X110436702Y-77700000D02*
G75*
G03*
X111436702Y-77700000I500000J0D01*
G01*
X106436702Y-77700000D02*
G75*
G03*
X107436702Y-77700000I500000J0D01*
G01*
X108436702Y-77700000D02*
G75*
G03*
X109436702Y-77700000I500000J0D01*
G01*
X111436702Y-77700000D02*
G75*
G03*
X112436702Y-77700000I500000J0D01*
G01*
X107436702Y-77700000D02*
G75*
G03*
X108436702Y-77700000I500000J0D01*
G01*
X105436702Y-77700000D02*
G75*
G03*
X106436702Y-77700000I500000J0D01*
G01*
X113436702Y-77700000D02*
G75*
G03*
X114436702Y-77700000I500000J0D01*
G01*
X109436702Y-77700000D02*
G75*
G03*
X110436702Y-77700000I500000J0D01*
G01*
D13*
%TO.C,JP2*%
X53736702Y-106600000D02*
X53736702Y-88200000D01*
D12*
%TO.C,Nin1*%
X48294128Y-92624526D02*
X42294128Y-92624526D01*
X42294128Y-92624526D02*
X42294128Y-78624526D01*
X42294128Y-78624526D02*
X48294128Y-78624526D01*
X48294128Y-78624526D02*
X48294128Y-92624526D01*
%TO.C,MOV1*%
X56286702Y-87800000D02*
X56286702Y-87100000D01*
X76186702Y-82800000D02*
X76186702Y-87300000D01*
X67986702Y-87300000D02*
X76186702Y-87300000D01*
X56286702Y-87300000D02*
X56286702Y-82300000D01*
X67986702Y-87800000D02*
X67986702Y-87300000D01*
X64286702Y-82300000D02*
X64286702Y-81800000D01*
X64286702Y-81800000D02*
X76186702Y-81800000D01*
X64286702Y-82300000D02*
X56286702Y-82300000D01*
X67986702Y-87800000D02*
X56286702Y-87800000D01*
X76186702Y-81800000D02*
X76186702Y-82800000D01*
%TO.C,MOV5*%
X126336702Y-116050000D02*
X126336702Y-108550000D01*
X132336702Y-104450000D02*
X132336702Y-116050000D01*
X126336702Y-108550000D02*
X125836702Y-108550000D01*
X132336702Y-116050000D02*
X126336702Y-116050000D01*
X125836702Y-108550000D02*
X125836702Y-96400000D01*
X131836702Y-96400000D02*
X131836702Y-104450000D01*
X125836702Y-96400000D02*
X131836702Y-96400000D01*
X131836702Y-104450000D02*
X132336702Y-104450000D01*
%TO.C,F2*%
X61736702Y-94800000D02*
X111736702Y-94800000D01*
X111736702Y-94800000D02*
X111736702Y-107200000D01*
X111736702Y-107200000D02*
X61736702Y-107200000D01*
X61736702Y-107200000D02*
X61736702Y-94800000D01*
%TO.C,MOV2*%
X126336702Y-94050000D02*
X126336702Y-86550000D01*
X132336702Y-82450000D02*
X132336702Y-94050000D01*
X126336702Y-86550000D02*
X125836702Y-86550000D01*
X132336702Y-94050000D02*
X126336702Y-94050000D01*
X125836702Y-86550000D02*
X125836702Y-74400000D01*
X131836702Y-74400000D02*
X131836702Y-82450000D01*
X125836702Y-74400000D02*
X131836702Y-74400000D01*
X131836702Y-82450000D02*
X132336702Y-82450000D01*
%TO.C,H3*%
X46216162Y-109968243D02*
X46216162Y-108468243D01*
X49716162Y-113468243D02*
X51216162Y-113468243D01*
X42716162Y-113468243D02*
X41216162Y-113468243D01*
X46216162Y-116968243D02*
X46216162Y-118468243D01*
X49716162Y-113468243D02*
G75*
G03*
X49716162Y-113468243I-3500000J0D01*
G01*
D13*
%TO.C,JP1*%
X59036702Y-96500000D02*
X59036702Y-90700000D01*
D12*
%TO.C,No1*%
X141371828Y-89300000D02*
G75*
G03*
X141371828Y-89300000I-2000000J0D01*
G01*
%TO.C,RT1*%
X123511702Y-58500000D02*
X123511702Y-66200000D01*
X123036702Y-71500000D02*
X117761702Y-71500000D01*
X117761702Y-71500000D02*
X117761702Y-64000000D01*
X123511702Y-66200000D02*
X123036702Y-66200000D01*
X118236702Y-58500000D02*
X123511702Y-58500000D01*
X123036702Y-66200000D02*
X123036702Y-71500000D01*
X117761702Y-64000000D02*
X118236702Y-64000000D01*
X118236702Y-64000000D02*
X118236702Y-58500000D01*
%TO.C,MOV3*%
X126336702Y-70925000D02*
X126336702Y-63425000D01*
X132336702Y-59325000D02*
X132336702Y-70925000D01*
X126336702Y-63425000D02*
X125836702Y-63425000D01*
X132336702Y-70925000D02*
X126336702Y-70925000D01*
X125836702Y-63425000D02*
X125836702Y-51275000D01*
X131836702Y-51275000D02*
X131836702Y-59325000D01*
X125836702Y-51275000D02*
X131836702Y-51275000D01*
X131836702Y-59325000D02*
X132336702Y-59325000D01*
%TO.C,F1*%
X63836702Y-52200000D02*
X113836702Y-52200000D01*
X113836702Y-52200000D02*
X113836702Y-64600000D01*
X113836702Y-64600000D02*
X63836702Y-64600000D01*
X63836702Y-64600000D02*
X63836702Y-52200000D01*
%TO.C,GDT2*%
X114036702Y-108500000D02*
X122036702Y-108500000D01*
X122036702Y-108500000D02*
X122036702Y-91500000D01*
X122036702Y-91500000D02*
X114036702Y-91500000D01*
X114036702Y-91500000D02*
X114036702Y-108500000D01*
%TO.C,Gin1*%
X48294128Y-108133252D02*
X42294128Y-108133252D01*
X42294128Y-108133252D02*
X42294128Y-94133252D01*
X42294128Y-94133252D02*
X48294128Y-94133252D01*
X48294128Y-94133252D02*
X48294128Y-108133252D01*
%TO.C,L1*%
X76686702Y-77300000D02*
X99186702Y-77300000D01*
X99186702Y-77300000D02*
X99186702Y-88300000D01*
X99186702Y-88300000D02*
X76686702Y-88300000D01*
X76686702Y-88300000D02*
X76686702Y-77300000D01*
X87936702Y-78300000D02*
G75*
G03*
X87936702Y-77300000I0J500000D01*
G01*
X87936702Y-80300000D02*
G75*
G03*
X87936702Y-79300000I0J500000D01*
G01*
X87936702Y-88300000D02*
G75*
G03*
X87936702Y-87300000I0J500000D01*
G01*
X87936702Y-82300000D02*
G75*
G03*
X87936702Y-81300000I0J500000D01*
G01*
X87936702Y-86300000D02*
G75*
G03*
X87936702Y-85300000I0J500000D01*
G01*
X87936702Y-84300000D02*
G75*
G03*
X87936702Y-83300000I0J500000D01*
G01*
X87936702Y-81300000D02*
G75*
G03*
X87936702Y-80300000I0J500000D01*
G01*
X87936702Y-85300000D02*
G75*
G03*
X87936702Y-84300000I0J500000D01*
G01*
X87936702Y-87300000D02*
G75*
G03*
X87936702Y-86300000I0J500000D01*
G01*
X87936702Y-79300000D02*
G75*
G03*
X87936702Y-78300000I0J500000D01*
G01*
X87936702Y-83300000D02*
G75*
G03*
X87936702Y-82300000I0J500000D01*
G01*
%TO.C,MOV4*%
X110186702Y-107700000D02*
X110186702Y-108400000D01*
X90286702Y-112700000D02*
X90286702Y-108200000D01*
X98486702Y-108200000D02*
X90286702Y-108200000D01*
X110186702Y-108200000D02*
X110186702Y-113200000D01*
X98486702Y-107700000D02*
X98486702Y-108200000D01*
X102186702Y-113200000D02*
X102186702Y-113700000D01*
X102186702Y-113700000D02*
X90286702Y-113700000D01*
X102186702Y-113200000D02*
X110186702Y-113200000D01*
X98486702Y-107700000D02*
X110186702Y-107700000D01*
X90286702Y-113700000D02*
X90286702Y-112700000D01*
%TO.C,GDT1*%
X57636702Y-69400000D02*
X74636702Y-69400000D01*
X74636702Y-69400000D02*
X74636702Y-77400000D01*
X74636702Y-77400000D02*
X57636702Y-77400000D01*
X57636702Y-77400000D02*
X57636702Y-69400000D01*
%TD*%
D14*
X139300000Y-105600000D03*
X139371828Y-71200000D03*
X45294128Y-66651681D03*
X45294128Y-73651681D03*
D15*
X45294128Y-70151681D03*
D14*
X46216162Y-56890035D03*
X139371828Y-113461257D03*
X139368909Y-56896463D03*
X83086702Y-69600000D03*
X95586702Y-69600000D03*
X101436702Y-73700000D03*
X118536702Y-81700000D03*
X53736702Y-107900000D03*
X53736702Y-86900000D03*
X45294128Y-82124526D03*
X45294128Y-89124526D03*
D15*
X45294128Y-85624526D03*
D14*
X61286702Y-84600000D03*
X71786702Y-84600000D03*
X128836702Y-112250000D03*
X128836702Y-109750000D03*
X128836702Y-101750000D03*
X71936702Y-101000000D03*
X64436702Y-101000000D03*
X79486702Y-101000000D03*
X93986702Y-101000000D03*
X109036702Y-101000000D03*
X101536702Y-101000000D03*
X128836702Y-90250000D03*
X128836702Y-87750000D03*
X128836702Y-79750000D03*
X46216162Y-113468243D03*
X59036702Y-97600000D03*
X59036702Y-89600000D03*
X139371828Y-89300000D03*
X120636702Y-70250000D03*
X120636702Y-59750000D03*
X128836702Y-67125000D03*
X128836702Y-64625000D03*
X128836702Y-56625000D03*
X74036702Y-58400000D03*
X66536702Y-58400000D03*
X81586702Y-58400000D03*
X96086702Y-58400000D03*
X111136702Y-58400000D03*
X103636702Y-58400000D03*
X118036702Y-107290000D03*
X118036702Y-92710000D03*
X45294128Y-97633252D03*
X45294128Y-104633252D03*
D15*
X45294128Y-101133252D03*
D14*
X83936702Y-91300000D03*
X91936702Y-74200000D03*
X105186702Y-110900000D03*
X94686702Y-110900000D03*
X58846702Y-73400000D03*
X73426702Y-73400000D03*
M02*
